<?xml version="1.0" encoding="utf-8"?>
<!-- Generator: Adobe Illustrator 25.3.1, SVG Export Plug-In . SVG Version: 6.00 Build 0)  -->
<svg version="1.1" id="Layer_1" xmlns="http://www.w3.org/2000/svg" xmlns:xlink="http://www.w3.org/1999/xlink" x="0px" y="0px"
	 viewBox="0 0 118.94 298.3" style="enable-background:new 0 0 118.94 298.3;" xml:space="preserve">
<style type="text/css">
	.st0{fill:#754D24;}
</style>
<g id="_x31_">
	<path class="st0" d="M85.64,264.67c0.64-0.42,1.12-0.74,1.56-1.03c0.1-1.6-1.51-0.61-1.91-1.35c-0.07-0.63,0.48-0.72,0.78-1.01
		c0.44-0.44,0.32-1.02-0.27-1.22c-0.34-0.12-0.71-0.14-1.3-0.24c0.42-0.44,0.71-0.75,1-1.04c0.49-0.51,0.35-0.93-0.3-1.4
		c-0.38,0.21-0.82,0.45-1.26,0.69c-1.17,0.62-1.42,1.57-1.22,2.85c0.54,3.42,1.32,6.78,2.05,10.16c0.76,3.53,1.45,7.07,2.19,10.6
		c0.31,1.47,0.68,2.92,1,4.38c0.32,1.47,0.68,2.93,0.9,4.41c0.31,2.08,0.52,4.18,0.73,6.27c0.04,0.42-0.09,0.86-0.14,1.24
		c-0.61,0.15-0.81-0.15-0.86-0.56c-0.27-2.01-0.5-4.03-0.78-6.04c-0.2-1.41-0.41-2.82-0.69-4.22c-0.55-2.72-1.13-5.43-1.73-8.14
		c-0.55-2.49-1.17-4.97-1.72-7.47c-0.61-2.79-1.19-5.58-1.76-8.38c-0.19-0.95-0.28-1.92-0.94-2.68c-0.9-0.01-1.46,0.52-2.08,0.92
		c-2.02,1.32-4.23,1.9-6.64,1.71c-5.03-0.38-10.05-0.87-14.89-2.36c-2.22-0.68-4.37-1.6-6.5-2.53c-2.31-1.02-4.08-2.82-5.88-4.51
		c-4.06-3.83-6.42-8.69-8-13.93c-0.79-2.61-0.75-5.34-0.14-8.02c0.46-1.99,1.16-3.89,2.18-5.66c0.22-0.39,0.48-0.77,0.78-1.09
		c1.07-1.16,2.35-1.59,3.87-0.96c1.32,0.55,2.67,1.04,3.92,1.71c3.22,1.72,6.71,2.61,10.23,3.42c2.2,0.5,4.4,0.85,6.67,0.99
		c3.21,0.2,6.39,0.79,9.59,1.19c0.21,0.03,0.44-0.05,0.76-0.09c-3.05-12.38-6.66-24.58-9.28-37.12c-0.37,0-0.69-0.08-0.94,0.01
		c-3.37,1.3-6.8,2.45-9.96,4.21c-2.31,1.29-4.75,2.26-7.15,3.32c-1.96,0.87-4.03,1.22-6.09,1.63c-2.13,0.42-4.29,0.8-6.49,0.71
		c-1.13-0.04-2.26-0.08-3.37-0.27c-2.07-0.36-4.13-0.81-6.18-1.25c-0.51-0.11-1.06-0.21-1.5-0.46c-3.21-1.86-6.23-3.93-8.2-7.22
		c-2.81-4.7-1.96-8.65,1.64-12.25c1.1-1.1,2.51-1.9,3.86-2.71c0.89-0.54,1.91-0.83,3-0.84c0.97-0.01,1.94-0.2,2.92-0.26
		c1.72-0.1,3.42-0.07,5.16,0.22c3.21,0.53,6.28,1.44,9.32,2.58c4.29,1.61,8.71,2.9,12.97,4.58c2.88,1.14,5.84,1.23,8.82,1.52
		c0.13,0.01,0.28-0.09,0.57-0.19c-0.03-0.3-0.02-0.66-0.1-0.99c-1.06-4.38-2.05-8.77-3.21-13.12c-0.7-2.61-1.65-5.14-2.53-7.7
		c-0.66-1.92-1.41-3.81-1.6-5.85c-0.02-0.22-0.11-0.44-0.18-0.65c-1.58-4.5-2.25-9.19-2.89-13.87c-0.19-1.39-1.1-1.91-2.41-1.34
		c-2.5,1.09-5.16,1.62-7.73,2.43c-2.01,0.63-4.09,0.95-6.21,1.07c-1.95,0.12-3.89,0.38-5.82,0.67c-2.48,0.37-4.94,0.41-7.4-0.11
		c-2.35-0.5-4.71-0.96-7.06-1.5c-2.21-0.51-4.28-1.45-6.24-2.56c-2.09-1.18-4.1-2.48-5.83-4.21c-2.07-2.07-3.67-4.39-4.39-7.23
		c-0.45-1.76-0.54-3.57,0.13-5.33c0.46-1.19,0.93-2.38,1.45-3.55c0.75-1.66,2-2.81,3.76-3.34c1-0.3,2.03-0.62,3.06-0.72
		c2.93-0.29,5.85-0.3,8.71,0.64c1.5,0.49,3.05,0.81,4.58,1.19c1.7,0.42,3.24,1.19,4.73,2.08c2.51,1.51,5,3.06,7.55,4.5
		c1.63,0.92,3.36,1.68,5.03,2.53c1.61,0.82,3.18,1.69,4.79,2.51c0.93,0.47,1.87,0.97,2.86,1.29c1.56,0.5,3.17,0.86,4.8,1.29
		c0.05-0.19,0.18-0.4,0.15-0.6c-0.37-2.68-0.81-5.34-1.15-8.02c-0.71-5.59-1.64-11.16-1.55-16.83c0.02-1.42-0.18-2.85-0.3-4.27
		c-0.02-0.28-0.18-0.54-0.25-0.73c-1.59,0.12-3.08,0.25-4.57,0.34c-3.09,0.2-5.94-0.8-8.73-1.94c-1.59-0.65-3.09-1.54-4.59-2.38
		c-3.02-1.68-6.09-3.3-8.85-5.41c-2.65-2.02-5.02-4.3-6.59-7.31c-0.93-1.8-1.36-3.63-0.98-5.66c0.29-1.55,0.4-3.14,0.72-4.68
		c0.42-2.04,1.15-2.68,3.22-2.81c1.35-0.09,2.73-0.18,4.05,0.03c3.86,0.62,7.69,1.39,11.53,2.1c0.22,0.04,0.44,0.1,0.65,0.18
		c3.61,1.48,7.22,2.96,10.83,4.46c1.21,0.5,2.2,1.26,2.85,2.44c0.23,0.41,0.66,0.71,1.19,1.25c1.41-5.85,1.6-11.64,3.42-17.34
		c-0.61,0.07-0.91,0.04-1.14,0.15c-3.29,1.58-6.82,1.69-10.36,1.63c-0.97-0.02-1.95-0.15-2.92-0.29c-2.1-0.29-4.12-0.83-5.92-2.02
		c-0.56-0.37-1.16-0.7-1.76-1.01c-3.52-1.78-6.25-4.4-8.2-7.82c-0.63-1.11-1.29-2.22-1.77-3.39c-1.49-3.64-0.72-7.1,1.11-10.38
		c0.73-1.3,1.69-2.48,2.61-3.68c0.78-1.02,1.71-1.9,2.89-2.47c0.34-0.16,0.66-0.37,0.96-0.59c3.15-2.4,6.83-2.97,10.64-3.08
		c2.19-0.06,4.36,0.06,6.5,0.55c1.79,0.41,3.36,1.17,4.86,2.27c3.19,2.34,5.65,5.39,8.25,8.31c0.58,0.65,0.88,1.56,1.28,2.36
		c0.26,0.52,0.49,1.07,0.83,1.83c1.38-1.83,2.49-3.57,3.73-5.22c1.21-1.62,2.53-3.17,3.86-4.7c1.37-1.58,2.8-3.09,4.35-4.8
		c-1.33-0.42-2.48-0.58-3.65-0.69c-1.43-0.13-2.83-0.33-4.16-0.93c-2.84-1.28-4.99-3.26-6.41-6.05c-1.93-3.82-3.09-7.82-2.81-12.15
		c0.03-0.45,0-0.9-0.01-1.35c-0.04-3.27,1.45-5.67,3.98-7.66c2.02-1.58,4.16-1.94,6.57-1.49c1.37,0.26,2.51,0.82,3.49,1.88
		c2.33,2.54,4.02,5.44,4.99,8.73c0.64,2.16,1.21,4.32,2.17,6.38c0.76,1.63,1.31,3.35,1.97,5.03c0.11,0.27,0.26,0.53,0.45,0.91
		c1.58-0.64,1.89-2.29,2.8-3.37c0.9-1.07,1.46-2.42,2.19-3.69c-0.52-0.87-0.95-1.66-1.46-2.39c-1.76-2.53-2.56-5.41-3.13-8.38
		c-0.09-0.44-0.09-0.9-0.17-1.34C79,6.96,79.62,4.61,80.94,2.41c1.1-1.84,2.82-2.65,4.96-2.34c0.45,0.06,0.89,0.15,1.34,0.21
		c1.86,0.23,2.93,1.44,3.61,3.03c0.44,1.04,0.65,2.16,0.54,3.31c-0.16,1.65-0.41,3.27-1.2,4.78c-0.32,0.62-0.79,1.27-0.6,2.19
		c1.42-0.49,2.76-0.92,4.08-1.4c1.08-0.39,2.18-0.51,3.32-0.53c2.1-0.03,4.2-0.16,6.31-0.23c0.97-0.03,1.95-0.05,2.93,0
		c0.83,0.04,1.17,0.52,1.05,1.38c-0.05,0.36-0.17,0.72-0.32,1.06c-0.86,1.94-2.17,3.6-3.5,5.22c-0.62,0.76-1.45,1.26-2.31,1.77
		c-2.32,1.38-4.9,1.86-7.46,2.44c-0.37,0.08-0.75,0.09-1.11,0.2c-0.87,0.29-1.72,0.39-2.64,0.17c-0.57-0.14-1.19-0.03-1.92-0.03
		c-0.54,0.98-1.05,1.98-1.63,2.92c-0.58,0.93-1.48,1.66-1.79,2.76c0.58,0.37,0.92-0.05,1.27-0.25c1.55-0.91,3.07-1.89,4.63-2.79
		c3.55-2.06,7.41-3.19,11.42-4.01c3.15-0.65,6.11-0.15,9.11,0.61c2.79,0.71,4.14,2.74,4.43,5.37c0.41,3.8-0.13,7.5-2.19,10.84
		c-1.19,1.94-2.59,3.68-4.48,5c-1.04,0.73-2.01,1.57-2.94,2.32c-0.23,2.34-0.42,4.65-0.68,6.95c-0.4,3.5-2.25,6.32-4.33,9.03
		c-2.34,3.04-5.58,5.01-8.61,7.21c-0.95,0.69-2.14,1.12-3.29,1.45c-5.37,1.55-10.83,2.52-16.45,2.31c-1.89-0.07-3.72-0.49-5.52-1.02
		c-1.36-0.4-2.76-0.74-3.99-1.53c-0.89-0.57-1.81-1.06-2.47-1.92c-0.22-0.28-0.55-0.48-0.99-0.85c-0.38,0.96-0.74,1.76-1.01,2.58
		c-0.4,1.21-0.65,2.48-1.12,3.66c-1.22,3.05-1.41,6.29-1.79,9.49c-0.2,1.71-0.39,3.43-0.57,5.15c-0.11,1.11-0.19,2.23-0.27,3.29
		c0.63,0.24,0.83-0.1,1.05-0.4c1.79-2.45,3.84-4.62,6.33-6.37c0.79-0.56,1.53-1.21,2.25-1.87c1.5-1.37,3.21-2.49,4.74-3.8
		c1.63-1.39,3.41-2.44,5.32-3.3c1.16-0.52,2.37-0.91,3.58-1.32c2.56-0.85,5.12-1.7,7.7-2.48c0.47-0.14,1.05-0.09,1.54,0.03
		c1.21,0.28,2.34,0.19,3.54-0.17c2.23-0.67,4.56-0.92,6.88-1.1c1.17-0.09,2.27,0.14,3.13,0.97c0.3,0.29,0.6,0.75,0.59,1.13
		c-0.03,1.19,0.04,2.4-0.61,3.5c-0.34,0.58-0.51,1.25-0.76,1.87c-0.14,0.34-0.26,0.71-0.47,1.01c-1.67,2.4-3.24,4.88-5.06,7.16
		c-1.87,2.34-3.93,4.55-6.04,6.67c-2.3,2.32-5.19,3.82-7.99,5.44c-3.17,1.83-6.61,2.83-10.16,3.57c-1.03,0.21-2.04,0.5-3.05,0.75
		c-0.22,0.05-0.44,0.16-0.65,0.14c-2.28-0.15-4.47,0.48-6.71,0.72c-1.56,0.17-3.13,0.37-4.68-0.17c-0.34-0.12-0.74-0.08-1.2-0.12
		c-0.25,1.51-0.36,3.02-0.03,4.48c0.32,1.4,0.34,2.81,0.47,4.22c0.22,2.47,0.57,4.93,0.82,7.4c0.37,3.66,0.69,7.33,1.03,10.98
		c0.48,0.24,0.68-0.1,0.92-0.39c1.23-1.51,2.36-3.11,3.71-4.51c1.84-1.91,4.15-3.24,6.45-4.5c2.37-1.3,4.85-2.37,7.36-3.41
		c3.26-1.35,6.46-2.85,9.82-3.96c0.64-0.21,0.95-0.7,1.27-1.21c0.78-1.2,1.5-2.43,2.33-3.59c1.42-2.01,3.32-3.45,5.53-4.52
		c0.84-0.41,1.7-0.6,2.6-0.62c2.08-0.06,3.23,0.65,4.03,2.55c0.95,2.27,1.27,4.67,0.89,7.08c-0.45,2.89-1.07,5.74-2.39,8.43
		c-1.18,2.4-2.71,4.51-4.47,6.47c-2.58,2.87-5.57,5.3-8.85,7.31c-4.05,2.47-8.23,4.74-13.02,5.43c-2.75,0.39-5.53,0.7-8.3,0.72
		c-1.84,0.02-3.76-0.14-5.5-0.97c-0.1-0.05-0.27,0.05-0.53,0.11c0.03,0.26,0.02,0.55,0.1,0.81c1.14,3.83,1.52,7.81,2.29,11.72
		c0.39,1.99,0.84,3.97,1.4,5.92c1.66,5.7,3.36,11.38,5.1,17.05c0.43,1.41,1.06,2.75,1.62,4.16c0.21-0.16,0.4-0.23,0.41-0.33
		c0.54-3.97,1.85-7.74,2.77-11.61c0.66-2.79,1.55-5.49,2.92-8.02c0.46-0.86,0.95-1.71,1.47-2.54c1.29-2.03,2.58-4.06,3.91-6.06
		c1.35-2.02,3.03-3.69,5.14-4.98c3.42-2.09,7.03-3.73,10.87-4.87c1.59-0.47,3.2-0.81,4.88-0.81c0.67,0,1.38,0,2.02-0.18
		c1.86-0.52,3.74-0.42,5.61-0.21c2.92,0.33,5.28,1.63,6.74,4.31c0.4,0.74,0.74,1.46,0.77,2.32c0.02,0.67,0.17,1.35,0.18,2.02
		c0.01,0.75,0.05,1.53-0.14,2.23c-0.75,2.75-1.52,5.5-2.41,8.21c-0.83,2.53-2.42,4.65-4.1,6.69c-1.09,1.33-2.21,2.64-3.32,3.96
		c-0.82,0.97-1.62,1.98-2.49,2.91c-3.61,3.81-7.79,6.84-12.57,9.01c-1.98,0.9-4.03,1.67-6.03,2.52c-1.46,0.61-2.89,1.28-4.35,1.87
		c-1.39,0.56-2.81,1.06-4.23,1.53c-1.51,0.49-3.06,0.8-4.66,0.41c-0.2-0.05-0.43,0.02-0.78,0.04c-0.21,0.67,0.07,1.3,0.21,1.93
		c0.82,3.66,1.75,7.31,2.43,11c0.67,3.62,1.05,7.29,1.62,10.92c0.58,3.7,1.94,7.18,2.9,11.24c0.42-0.76,0.61-1.07,0.76-1.4
		c0.63-1.44,1.19-2.92,1.88-4.34c1.37-2.82,3.41-5.12,5.76-7.16c0.34-0.29,0.69-0.59,1.09-0.8c3.32-1.75,6.53-3.75,10.26-4.56
		c1.17-0.25,2.35-0.47,3.54-0.63c2.53-0.34,5.05-0.75,7.62-0.46c1.59,0.18,3.08,0.59,4.49,1.36c3.18,1.74,4.8,4.46,5.08,8
		c0.09,1.19,0.08,2.43-0.15,3.59c-1.01,4.91-2.74,9.54-5.84,13.55c-1.24,1.6-2.66,3.06-4.02,4.57c-0.81,0.89-1.64,1.76-2.52,2.59
		c-2.29,2.17-4.52,4.42-6.93,6.45c-2.14,1.8-4.66,3.02-7.26,4.05c-0.28,0.11-0.56,0.22-0.93,0.36c-0.72,1.34-1.44,2.73-2.23,4.09
		c-0.41,0.71-0.95,1.35-1.45,2c-0.82,1.06-0.89,2.19-0.4,3.39c1.98,4.82,3.09,9.89,4.25,14.94c0.67,2.93,1.32,5.86,1.9,8.81
		c0.32,1.62,0.49,3.27,0.67,4.91c0.29,2.69,0.66,5.37,1.28,8.01c0.1,0.43,0.15,0.89,0.13,1.33c-0.01,0.24-0.24,0.48-0.48,0.91
		c-0.46-0.63-0.8-1.09-1.06-1.46c-0.5-0.13-1.16-0.12-1.28-0.36c-0.34-0.75,0.5-0.71,0.87-0.98c0.05-0.04,0.08-0.12,0.2-0.29
		c-0.07-0.48-0.16-1.06-0.27-1.76c-0.51,0.04-0.94,0.12-1.36,0.1c-0.18-0.01-0.43-0.19-0.49-0.35c-0.05-0.15,0.06-0.45,0.2-0.55
		c0.23-0.17,0.55-0.22,0.82-0.33c0.63-0.25,0.7-0.72,0.48-1.43c-0.21-0.03-0.48-0.05-0.75-0.11c-0.2-0.05-0.39-0.14-0.65-0.25
		c0.09-0.25,0.12-0.49,0.25-0.62c0.71-0.72,0.72-0.71,0.58-1.64c-0.14-0.05-0.27-0.13-0.41-0.13c-0.36,0.01-0.82,0.17-0.98-0.27
		c-0.17-0.48,0.27-0.58,0.61-0.75c0.74-0.38,0.73-0.4,0.67-1.68c-0.44-0.14-0.91-0.28-1.35-0.42c-0.28-1.03,0.9-0.66,1.05-1.27
		c0.13-0.96-0.48-1.45-1.36-1.86c0.14-0.75,1.26-1.29,0.37-2.3c-0.36-0.1-0.9-0.25-1.43-0.4c-0.04-0.96,1.01-0.7,1.2-1.48
		c-0.09-0.28-0.22-0.69-0.36-1.13c-0.53-0.07-1-0.14-1.79-0.24c0.46-0.46,0.71-0.69,0.95-0.93c0.68-0.68,0.59-1.24-0.27-1.72
		c-0.19-0.1-0.39-0.17-0.67-0.28c0.31-0.46,0.68-0.82,0.82-1.26c0.1-0.31-0.09-0.72-0.17-1.22c-0.65-0.07-1.26-0.14-1.9-0.21
		c0.05-1,1.05-0.92,1.43-1.64c-0.07-0.22-0.17-0.56-0.27-0.87c-0.64-0.1-1.2-0.19-1.74-0.27c-0.13-1.03,0.83-0.8,1.18-1.27
		c0.33-0.5-0.11-1.47-0.75-1.52c-0.29-0.02-0.6,0.16-0.88,0.1C86.18,265.16,85.98,264.91,85.64,264.67z M73.26,37.21
		c-0.28,0.23-0.6,0.42-0.84,0.69c-1.37,1.52-2.72,3.07-4.08,4.6c-0.33,0.38-0.59,0.86-1.21,0.81c0.13,0.71-0.42,1.08-0.79,1.52
		c-2.13,2.55-3.98,5.28-5.56,8.19c-1.64,3.04-3.21,6.11-4.56,9.31c-1.44,3.4-2.74,6.83-3.35,10.49c-0.16,0.96-0.32,1.93-0.48,2.89
		c-0.54,3.18-1.17,6.35-1.6,9.54c-0.38,2.82-0.58,5.68-0.79,8.52c-0.2,2.77-0.46,5.55,0.21,8.31c0.09,0.36,0.12,0.76,0.07,1.12
		c-0.32,2.1,0.03,4.2,0.04,6.3c0.01,3.38,0.45,6.73,0.76,10.09c0.37,3.9,1.02,7.74,1.68,11.59c0.08,0.44,0.14,0.89,0.2,1.34
		c0.62,4.69,1.22,9.39,1.87,14.07c0.22,1.56,0.65,3.09,0.82,4.66c0.42,3.76,1.7,7.3,2.67,10.91c0.6,2.24,1.48,4.41,2.23,6.61
		c0.32,0.92,0.67,1.84,0.91,2.79c1.08,4.37,2.03,8.77,3.21,13.12c1.21,4.42,2.01,8.92,3.02,13.38c1.1,4.83,2.23,9.64,3.62,14.39
		c0.59,2.01,1.04,4.07,1.58,6.1c0.92,3.48,1.84,6.97,2.79,10.44c0.22,0.79,0.53,1.57,0.87,2.32c0.33,0.73,1.04,1.05,1.86,0.85
		c0.41-0.1,0.77-0.36,1.11-0.52c0.01-0.8-0.32-1.09-0.96-1.11c-0.41-0.01-0.94,0.19-1.09-0.57c0.34-0.31,0.72-0.65,1.07-0.97
		c-0.14-0.71-0.41-1.18-1.18-1.19c-0.29,0-0.59-0.04-0.87-0.12c-0.09-0.03-0.13-0.23-0.25-0.45c0.43-0.32,0.88-0.65,1.26-0.93
		c-0.11-0.85-0.5-1.04-1.14-0.86c-0.32,0.09-0.63,0.03-0.66-0.35c-0.01-0.17,0.15-0.4,0.3-0.54c0.25-0.24,0.54-0.44,0.76-0.61
		c-0.1-0.71-0.34-1.13-0.9-1.35c-0.17-0.07-0.27-0.32-0.4-0.47c0.17-0.45,0.33-0.85,0.51-1.31c-0.55-0.29-1.03-0.55-1.67-0.9
		c0.46-0.41,0.77-0.69,1.14-1.02c-0.12-0.32-0.24-0.66-0.35-0.96c-0.49-0.09-0.9-0.16-1.49-0.26c0.39-0.62,0.68-1.09,1.01-1.62
		c-0.43-0.27-0.83-0.53-1.21-0.77c0.12-0.25,0.17-0.39,0.25-0.51c0.72-1.02,0.71-1.09-0.17-1.75c-0.22-0.16-0.41-0.35-0.7-0.59
		c0.36-0.37,0.64-0.61,0.86-0.9c0.33-0.43,0.23-0.82-0.28-1.06c-0.25-0.12-0.52-0.17-0.74-0.24c-0.02-0.2-0.05-0.3-0.02-0.34
		c0.17-0.25,0.35-0.48,0.53-0.71c0.64-0.8,0.59-1.28-0.24-1.8c-0.29-0.18-0.63-0.29-0.98-0.45c1.06-1.31,1.06-1.31,0.74-2.6
		c-0.52-0.18-1.05-0.37-2.14-0.75c1.56-0.47,2.45-1.04,1.69-2.32c-0.52-0.47-1.42,0.39-1.83-0.66c0.34-0.26,0.68-0.52,1.01-0.79
		c0.17-0.14,0.42-0.28,0.46-0.45c0.06-0.27,0.04-0.6-0.07-0.85c-0.07-0.16-0.36-0.31-0.54-0.3c-0.53,0.02-1.12,0.53-1.64-0.32
		c0.44-0.35,0.88-0.61,1.22-0.97c0.17-0.18,0.3-0.57,0.22-0.78c-0.07-0.2-0.42-0.35-0.68-0.42c-0.28-0.08-0.61,0-0.88-0.1
		c-0.16-0.05-0.25-0.3-0.43-0.54c0.57-0.31,1.08-0.58,1.73-0.93c-0.26-0.38-0.39-0.79-0.65-0.9c-0.44-0.19-0.96-0.21-1.42-0.29
		c0-0.79,0.61-0.67,0.94-0.91c0.2-0.15,0.44-0.5,0.39-0.69c-0.07-0.32-0.3-0.71-0.58-0.86c-0.29-0.16-0.73-0.03-1.08-0.11
		c-0.17-0.04-0.36-0.28-0.4-0.46c-0.04-0.18,0.06-0.45,0.19-0.59c0.14-0.15,0.38-0.21,0.59-0.27c0.78-0.23,0.6-0.7,0.29-1.27
		c-0.34,0-0.71,0.05-1.07-0.02c-0.17-0.03-0.34-0.26-0.44-0.43c-0.05-0.09,0.04-0.29,0.13-0.4c0.09-0.11,0.24-0.18,0.37-0.23
		c0.36-0.16,0.74-0.36,0.55-0.8c-0.08-0.19-0.47-0.26-0.73-0.35c-0.25-0.09-0.51-0.14-1.04-0.27c0.44-0.42,0.71-0.63,0.91-0.9
		c0.17-0.21,0.39-0.5,0.36-0.73c-0.04-0.38-0.33-0.61-0.78-0.64c-0.33-0.02-0.66-0.19-1.01-0.3c0.14-0.25,0.18-0.41,0.28-0.49
		c0.29-0.23,0.68-0.38,0.54-0.86c-0.13-0.45-0.51-0.49-0.9-0.5c-0.15,0-0.3-0.01-0.44-0.06c-0.21-0.07-0.4-0.16-0.6-0.25
		c0.56-0.61,0.9-0.98,1.2-1.3c-0.18-0.71-0.62-0.86-1.18-0.97c-0.56-0.11-0.64-0.49-0.21-0.97c0.19-0.21,0.51-0.29,0.59-0.33
		c-0.18-1.12-0.68-1.48-1.42-1.64c-0.16-0.03-0.27-0.32-0.47-0.56c0.4-0.26,0.77-0.49,1.01-0.64c-0.2-1.01-0.81-0.85-1.3-0.97
		c-0.16-0.04-0.28-0.26-0.48-0.46c0.42-0.39,0.78-0.74,1.11-1.05c-0.12-0.66-0.28-1.12-1.03-0.89c-0.46,0.14-0.69-0.11-0.78-0.61
		c0.31-0.26,0.64-0.53,0.98-0.8c-0.31-1.03-0.3-1.05-0.68-1.27c-0.3-0.18-0.74-0.18-0.73-0.67c0.89-1.25,1.16-1.52-0.87-2.43
		c0.01-0.65,1.12-0.99,0.58-1.77c-0.36-0.52-0.88-0.94-1.31-1.39c0.01-0.1-0.01-0.18,0.02-0.24c0.67-1.46,0.66-1.49-0.72-2.04
		c-0.18-0.07-0.32-0.27-0.57-0.49c0.4-0.45,0.76-0.85,1.09-1.22c-0.17-0.2-0.25-0.36-0.36-0.39c-0.21-0.06-0.45-0.02-0.66-0.08
		c-0.43-0.13-0.61-0.53-0.36-0.85c0.14-0.17,0.37-0.26,0.51-0.43c0.42-0.51,0.3-0.95-0.37-1.1c-0.46-0.1-0.91-0.09-0.91-0.84
		c0.2-0.12,0.49-0.22,0.67-0.43c0.18-0.19,0.32-0.49,0.33-0.74c0.02-0.34-0.26-0.48-0.6-0.51c-0.28-0.03-0.55-0.12-0.97-0.22
		c0.21-0.36,0.31-0.64,0.5-0.84c0.99-1.05,0.99-1.1-0.23-1.82c-0.11-0.07-0.17-0.23-0.25-0.35c0.05-0.13,0.08-0.28,0.16-0.4
		c0.08-0.12,0.24-0.19,0.33-0.31c0.59-0.78,0.46-1.05-0.59-1.31c-0.19-0.05-0.39-0.11-0.54-0.15c-0.15-0.81,1.24-0.82,0.71-1.75
		c-0.18-0.04-0.4-0.09-0.61-0.15c-0.2-0.06-0.4-0.14-0.59-0.21c0.02-0.19-0.01-0.37,0.07-0.47c1.04-1.43,1.04-1.43-0.59-2.36
		c0.2-0.22,0.4-0.42,0.57-0.63c0.59-0.74,0.51-1.02-0.38-1.51c-0.13-0.07-0.3-0.07-0.41-0.16c-0.1-0.08-0.13-0.24-0.23-0.44
		c0.25-0.28,0.52-0.58,0.84-0.92c-0.48-0.38-0.91-0.72-1.33-1.06c0.38-0.52,0.67-0.91,1-1.35c-0.57-0.31-1-0.55-1.56-0.87
		c0.31-0.29,0.53-0.46,0.7-0.67c0.17-0.2,0.31-0.44,0.54-0.77c-0.37-0.21-0.65-0.31-0.86-0.49c-0.21-0.17-0.35-0.42-0.52-0.63
		c0.4-0.37,0.7-0.66,1-0.94c-0.42-0.44-0.76-0.79-1.1-1.14c0.38-0.42,0.66-0.75,1-1.13c-0.43-0.39-0.79-0.71-1.2-1.09
		c0.37-0.46,0.68-0.84,0.99-1.23c-0.47-0.46-0.87-0.84-1.25-1.22c0.37-0.44,0.63-0.76,0.92-1.11c-0.51-0.36-0.91-0.65-1.2-0.86
		c-0.08-0.93,1.13-0.63,1.05-1.41c-0.11-1-1.3-0.06-1.62-0.97c0.14-0.15,0.31-0.37,0.52-0.55c0.23-0.19,0.5-0.32,0.73-0.51
		c0.2-0.17,0.05-0.66-0.22-0.74c-0.14-0.04-0.3-0.02-0.45-0.01c-0.33,0.02-0.67-0.05-0.63-0.42c0.02-0.23,0.26-0.48,0.46-0.65
		c0.16-0.14,0.42-0.17,0.59-0.3c0.08-0.06,0.06-0.26,0.09-0.4c-0.28-0.51-1.29-0.13-1.24-1.07c0.17-0.1,0.37-0.2,0.54-0.33
		c0.67-0.5,0.61-0.77-0.18-1.22c-0.22-0.12-0.39-0.32-0.6-0.49c0.45-0.46,0.8-0.8,1.23-1.24c-0.39-0.27-0.64-0.41-0.85-0.61
		c-0.2-0.18-0.35-0.42-0.51-0.63c1.15-0.97,1.14-0.97,0.14-1.98c-0.05-0.05-0.06-0.13-0.12-0.26c0.23-0.38,0.49-0.8,0.76-1.23
		c-0.4-0.36-0.73-0.66-1.08-0.97c0.33-0.49,0.65-0.95,0.97-1.41c-0.47-0.33-0.83-0.57-1.26-0.86c0.37-0.47,0.68-0.85,0.98-1.23
		c-0.35-0.36-0.64-0.66-0.95-0.99c0.35-0.4,0.63-0.72,0.91-1.03c-0.4-0.39-0.74-0.72-1.21-1.18c0.47-0.19,0.75-0.27,0.99-0.41
		c0.48-0.29,0.55-0.71,0.18-1.09c-0.1-0.1-0.3-0.1-0.4-0.19c-0.45-0.41-0.43-0.75,0.11-1c0.4-0.18,0.94-0.15,0.68-0.86
		c-0.35-0.07-0.72-0.09-1.05-0.21c-0.4-0.15-0.41-0.62-0.02-0.87c0.18-0.12,0.43-0.14,0.63-0.24c0.09-0.04,0.14-0.16,0.21-0.24
		c-0.37-0.26-0.72-0.51-1.02-0.73c0.19-1.04,1.06-0.53,1.48-0.9c0.09-0.08,0.1-0.25,0.16-0.38c-0.33-0.45-1.29-0.06-1.3-1.02
		c0.32-0.19,0.67-0.39,1.04-0.61c-0.34-0.34-0.63-0.63-0.86-0.86c0.12-0.96,1.46-0.24,1.41-1.28c-0.42-0.22-0.84-0.44-1.49-0.77
		c0.76-0.52,1.31-0.9,1.89-1.3c-0.58-0.79-1.93,0.11-2.19-1.34c0.54,0,0.97,0.03,1.4-0.01c0.28-0.03,0.58-0.14,0.81-0.29
		c0.14-0.09,0.19-0.33,0.32-0.59c-0.63-0.22-1.17-0.4-1.78-0.61c0.18-0.3,0.25-0.57,0.41-0.63c0.27-0.11,0.59-0.07,0.89-0.11
		c0.6-0.09,0.74-0.42,0.46-0.99c-0.47-0.13-1.21,0.1-1.36-0.79c0.51-0.24,0.95-0.45,1.43-0.68c-0.42-0.32-0.77-0.58-1.27-0.96
		c0.56-0.33,0.99-0.59,1.45-0.87c-0.45-0.29-1.06-0.04-1.2-0.81c0.37-0.19,0.76-0.4,1.18-0.62c-0.3-0.32-0.53-0.58-0.77-0.83
		c0.43-0.55,1.37-0.33,1.57-1.23c-0.21-0.16-0.47-0.3-0.64-0.51c-0.28-0.34-0.2-0.8,0.15-0.95c0.27-0.12,0.64-0.08,0.84-0.26
		c0.29-0.26,0.47-0.65,0.64-0.9c-0.32-0.67-1.38-0.3-1.19-1.37c0.48-0.18,1.07-0.33,1.57-0.62c0.26-0.15,0.38-0.55,0.57-0.85
		c-0.61-0.35-1.09-0.62-1.88-1.07c1-0.29,1.67-0.49,2.27-0.67c0.43-0.97-1.25-0.71-0.71-1.71c0.29-0.06,0.65-0.12,1-0.22
		c0.4-0.11,0.65-0.36,0.52-0.89c-0.29-0.13-0.67-0.23-0.94-0.45c-0.18-0.15-0.27-0.48-0.29-0.74c-0.01-0.08,0.35-0.3,0.51-0.27
		c0.62,0.09,1.2,0.16,1.53-0.53c-0.04-0.77-1.68-0.37-1.08-1.68c0.48-0.08,1.03-0.18,1.64-0.28c-0.09-0.71-1.16-0.62-0.97-1.51
		c0.52-0.11,1.1-0.17,1.63-0.37c0.16-0.06,0.31-0.53,0.24-0.74c-0.08-0.24-0.49-0.35-0.61-0.6c-0.13-0.28-0.1-0.64-0.16-1.05
		c0.66,0,1.15,0,1.62,0c0-0.25,0.04-0.41-0.01-0.53c-0.22-0.56-1.33-0.46-1.11-1.21c0.28-0.93,1.24,0.06,1.77-0.42
		c0.27-0.67-0.9-0.84-0.47-1.7c0.27,0,0.62,0.02,0.96,0c0.56-0.04,0.74-0.48,0.82-0.93c0.08-0.49-0.26-0.58-0.68-0.63
		c-0.22-0.03-0.4-0.31-0.7-0.57c0.69-0.43,1.22-0.75,1.73-1.07c-0.26-0.42-0.46-0.72-0.77-1.22c0.88,0,1.52,0,2.17,0
		c-0.03-0.71-1.05-0.88-0.62-1.65c0.33-0.11,0.68-0.22,1.02-0.34c0.09-0.5,0.18-0.97,0.27-1.43c0.58,0.04,1.01,0.08,1.62,0.13
		c-0.22-0.58-0.39-1.01-0.6-1.59c0.57-0.09,1.03-0.17,1.73-0.29c-0.55-0.74-0.97-1.32-1.4-1.9c0.65,0.1,1.31,0.2,2.2,0.34
		c-0.75-1.47,1.04-1.12,1.05-1.94c0.01-1.34,1.73-0.44,1.87-1.54c-0.1-0.33-0.2-0.67-0.32-1.07c0.53-0.14,0.92-0.24,1.34-0.35
		c-0.03-0.56-0.05-1.08-0.07-1.6c0.57,0.06,1.14,0.12,1.68,0.18c0.23-0.81,0.1-1.71,1.2-1.73c0.09,0,0.25-0.2,0.24-0.28
		c-0.18-1.09,0.89-0.75,1.31-1.17c0.11-0.4,0.23-0.81,0.36-1.27c0.55,0.06,1.03,0.12,1.58,0.18c-0.08-0.59-0.14-1.08-0.21-1.56
		c0.42-0.16,0.75-0.29,1.07-0.42c0.03-0.54,0.05-1.05,0.08-1.56c0.52,0.24,1.04,0.48,1.52,0.7c0.15-0.13,0.25-0.17,0.26-0.22
		c0.03-0.21,0.05-0.43,0.03-0.64c-0.05-0.96-0.06-0.95,1.05-1.06c0.2-0.02,0.39-0.16,0.54-0.22c0.23-0.69-0.73-1.28,0.01-1.94
		c0.18,0.01,0.4,0.04,0.62,0.03c0.26-0.01,0.52-0.05,1.04-0.1c-0.31-0.43-0.51-0.63-0.62-0.87c-0.24-0.52-0.07-0.86,0.46-0.99
		c0.14-0.03,0.3-0.03,0.44-0.01c0.56,0.05,0.89-0.28,0.91-0.75c0.01-0.3-0.23-0.7-0.48-0.91c-0.25-0.21-0.66-0.23-0.89-0.3
		c-1.1,1.58-2.13,3.02-3.12,4.5c-0.61,0.92-1.15,1.89-1.72,2.85c-0.57,0.46-1.19,0.87-1.7,1.39c-1.13,1.16-2.23,2.36-3.31,3.56
		C74.77,35.4,74.02,36.31,73.26,37.21z M74.96,81.23l-0.05,0.05c1.66-1.16,3.28-2.37,4.98-3.47c1.75-1.13,3.57-2.14,5.46-3.27
		c-0.28-0.09-0.42-0.19-0.53-0.16c-3.3,0.71-6.49,1.77-9.61,3.06c-2.09,0.87-4,2.03-5.74,3.48c-1.9,1.58-3.87,3.09-5.81,4.63
		c-0.58,0.46-1.23,0.86-1.32,1.73c-0.02,0.23-0.33,0.46-0.54,0.64c-0.92,0.77-1.86,1.51-2.79,2.27c-1.95,1.59-3.41,3.59-4.52,5.8
		c-0.7,1.4-0.7,2.97-0.56,4.62c0.36-0.12,0.6-0.14,0.75-0.27c0.53-0.42,1.05-0.85,1.54-1.31c1.21-1.12,2.4-2.26,3.61-3.38
		c0.49-0.46,1.04-0.88,1.48-1.39C65.47,89.5,69.94,85.08,74.96,81.23z M70.53,187.9c2.65,1.17,5.12,0.73,7.54-0.26
		c1.81-0.74,3.63-1.47,5.37-2.33c2.96-1.47,6.15-2.38,9.09-3.93c4.17-2.21,7.86-5.04,11.03-8.48c2.9-3.14,5.68-6.41,7.97-10.05
		c0.43-0.69,0.83-1.43,1.07-2.2c0.74-2.36,1.34-4.77,2.12-7.12c0.46-1.39,0.6-2.76,0.51-4.21c-0.17-2.87-1.67-4.75-4.19-5.89
		c-1.09-0.5-2.25-0.77-3.48-0.85c-2.96-0.18-5.82,0.57-8.75,0.72c-0.81,0.04-1.63,0.27-2.41,0.53c-3.57,1.17-7.02,2.58-10.24,4.6
		c-2.23,1.4-3.98,3.16-5.39,5.32c-1.15,1.76-2.29,3.53-3.42,5.3c-2.17,3.38-3.77,6.98-4.54,10.95c-0.41,2.13-0.99,4.24-1.65,6.31
		c-0.64,2.03-0.65,4.12-0.98,6.34c1.37-0.24,2.4-0.84,3.39-1.46c3.88-2.43,7.86-4.71,11.5-7.52c3.37-2.6,6.09-5.78,8.49-9.27
		c1.57-2.29,3.02-4.67,4.66-6.91c1.42-1.94,3.04-3.74,5.09-5.06c0.22-0.14,0.47-0.45,0.86,0.02c-0.37,0.5-0.67,1.13-1.17,1.52
		c-1.57,1.23-2.68,2.84-3.88,4.37c-1.3,1.65-2.58,3.33-3.65,5.13c-2.21,3.73-4.89,7.04-8.17,9.84c-4.6,3.91-9.78,6.95-15.04,9.86
		c-0.84,0.47-1.68,0.94-2.56,1.42C70,185.81,70.27,186.88,70.53,187.9z M89.39,248.89c0.46-0.06,0.83-0.07,1.18-0.17
		c3.29-0.94,6.34-2.42,8.93-4.64c3.42-2.93,6.66-6.08,9.77-9.36c3.97-4.18,6.65-9.06,8.01-14.66c0.5-2.05,0.77-4.08,0.41-6.24
		c-0.46-2.75-1.87-4.67-4.22-6.03c-2.26-1.3-4.72-1.44-7.21-1.27c-1.5,0.1-2.98,0.39-4.47,0.54c-5.01,0.47-9.31,2.8-13.6,5.15
		c-0.2,0.11-0.37,0.26-0.53,0.41c-2.54,2.36-4.99,4.81-6.26,8.15c-0.64,1.68-1.58,3.25-1.76,5.09c-0.11,1.13-0.06,2.19,0.48,3.27
		c0.93,1.86,1.23,4.03,2.73,5.63c0.05,0.05,0.09,0.13,0.1,0.2c0.32,1.63,1.52,2.72,2.42,4c0.17,0.24,0.54,0.34,0.75,0.47
		c0.52-1.56,0.94-3,1.47-4.4c1.03-2.71,2.74-5,4.54-7.22c3.19-3.93,7.16-6.85,11.76-8.89c2.12-0.94,4.41-1.5,6.47-2.6
		c0.21-0.11,0.53-0.05,1.14-0.09c-0.49,0.51-0.7,0.86-1,1c-1.56,0.73-3.14,1.42-4.73,2.11c-0.96,0.42-1.99,0.72-2.9,1.22
		c-4.04,2.25-7.52,5.14-10.49,8.75c-2.66,3.24-4.43,6.76-5.03,10.89c-0.14,0.97-0.22,1.96,0.36,2.84c0.94,1.43,1.26,3.04,1.43,4.7
		C89.2,248.08,89.3,248.43,89.39,248.89z M57.45,56.93c0.58-1.05,1.21-2.16,1.81-3.28c0.36-0.68,0.54-1.41,0.36-2.18
		c-0.46-2.01-1.23-3.86-2.78-5.31c-0.38-0.36-0.77-0.72-1.1-1.13c-1.56-1.94-3.39-3.6-5.25-5.25c-1.62-1.44-3.48-2.38-5.57-2.79
		c-1.24-0.25-2.53-0.27-3.8-0.39c-4.48-0.41-8.58,0.51-12.46,2.94c-3.81,2.39-5.93,5.86-7.28,9.94c-0.4,1.2-0.49,2.53-0.14,3.79
		c1.41,5.04,4.14,9.12,8.68,11.86c1.22,0.74,2.45,1.46,3.69,2.16c0.39,0.22,0.79,0.43,1.22,0.57c3.53,1.16,7.13,1.77,10.87,1.31
		c2.41-0.3,4.71-0.92,6.82-2.16c0.54-0.32,0.92-0.69,1.16-1.3c0.78-1.95,1.64-3.87,2.45-5.8c0.13-0.31,0.41-0.66-0.02-1.04
		c-1.84,0.06-3.76,0.03-5.49-0.67c-3.06-1.23-6.14-2.44-8.91-4.28c-1.62-1.08-3.31-2.09-4.87-3.25c-1.26-0.94-2.39-2.05-3.55-3.11
		c-0.31-0.28-0.33-0.65,0.11-1.09c0.49,0.43,1.01,0.84,1.48,1.3c1.18,1.17,2.46,2.2,3.92,3c0.79,0.43,1.54,0.95,2.27,1.48
		c1.59,1.16,3.33,2.03,5.11,2.84c1.02,0.47,2.05,0.93,3.07,1.4C51.88,57.72,54.57,57.97,57.45,56.93z M45.55,226.06
		c-0.39,1.02-0.67,1.78-0.97,2.54c-0.86,2.2-0.79,4.41,0,6.6c1.13,3.16,2.98,5.89,5.24,8.32c1.27,1.37,2.41,2.88,4.04,3.9
		c1.4,0.88,2.74,1.85,4.09,2.8c2.72,1.92,5.68,3.45,8.76,4.6c3.5,1.3,7.13,2.35,10.86,2.9c1.11,0.16,2.23,0.32,3.34,0.47
		c0.62,0.08,1.16-0.04,1.66-0.49c0.83-0.76,1.73-1.45,2.56-2.2c3.53-3.17,3.61-7,2.11-10.91c-0.77-2.02-1.93-3.92-3.36-5.57
		c-0.71-0.82-1.19-1.94-2.48-2.13c-0.24-0.04-0.47-0.34-0.63-0.57c-0.79-1.13-1.77-2.08-3.02-2.63c-1.21-0.53-2.49-1.02-3.79-1.23
		c-3.26-0.51-6.55-0.86-9.83-1.27c-0.15-0.02-0.3,0-0.45-0.02c-1.56-0.19-3.15-0.25-4.68-0.6c-3.66-0.84-7.35-1.58-10.76-3.24
		C47.43,226.94,46.62,226.57,45.55,226.06z M60.27,66.04c-0.31,0.38-0.27,0.86,0.14,1.31c1.39,1.52,2.99,2.67,4.96,3.39
		c3.67,1.35,7.45,1.61,11.3,1.5c4.4-0.13,8.61-1.26,12.8-2.45c0.71-0.2,1.42-0.54,2.01-0.98c2.23-1.65,4.54-3.24,6.6-5.08
		c4.52-4.04,6.7-9.15,6.34-15.26c-0.02-0.42,0.06-0.91-0.54-1.21c-0.21,0.06-0.49,0.14-0.77,0.23c-3.75,1.16-7.51,1.44-11.28,0.08
		c-0.87-0.32-1.7-0.4-2.63-0.12c-0.7,0.21-1.49,0.19-2.24,0.21c-2.59,0.05-5.07,0.76-7.46,1.59c-3.76,1.31-7.25,3.24-10.71,5.22
		c-0.32,0.18-0.62,0.42-0.91,0.67c-1.35,1.19-2.77,2.32-4.01,3.61c-0.87,0.91-1.52,2.03-2.21,3.1c-0.28,0.43-0.44,0.96-0.57,1.47
		c-0.12,0.46-0.53,0.92-0.12,1.54c0.42-0.04,0.86-0.04,1.3-0.11c2.97-0.47,5.95-0.89,8.97-0.82c0.45,0.01,0.91-0.03,1.35-0.11
		c6.57-1.19,12.82-3.22,18.34-7.12c0.98-0.69,1.94-1.42,2.95-2.08c0.24-0.16,0.55-0.54,1.03-0.04c-0.6,0.58-1.13,1.22-1.78,1.69
		c-1.71,1.22-3.38,2.54-5.23,3.5c-5.57,2.92-11.46,4.85-17.8,5.17c-2.47,0.12-4.93,0.4-7.37,0.89
		C61.96,65.96,61.16,65.96,60.27,66.04z M52.27,137.1c-1.32-0.46-2.56-1.17-4-1.42c-2.1-0.36-4-1.26-5.84-2.29
		c-1.38-0.77-2.79-1.46-4.2-2.19c-1.07-0.55-2.16-1.06-3.2-1.65c-2.81-1.6-5.61-3.2-8.38-4.86c-1.88-1.13-3.8-2.11-5.96-2.6
		c-1.98-0.45-3.94-0.98-5.93-1.37c-2.46-0.48-4.93-0.5-7.39,0.06c-1.1,0.25-2.17,0.61-3.07,1.57C4.26,124,4.49,125.69,5,127.35
		c0.6,1.97,1.61,3.72,2.99,5.24c2.07,2.29,4.21,4.52,7.1,5.81c0.89,0.4,1.84,0.64,2.74,1.01c2.66,1.11,5.48,1.64,8.32,1.84
		c3.44,0.23,6.89,0.41,10.34,0.66c2.62,0.19,5.27,0.1,7.88,0.39c2.34,0.26,4.65,0.19,6.97,0.07c0.49-0.02,0.98-0.26,1.53-0.42
		c-0.13-1.37-0.24-2.63-0.37-3.89C52.45,137.77,52.36,137.49,52.27,137.1z M77.77,36.72c1.11,1.5,2.18,2.9,3.65,4.01
		c2.84,2.15,5.97,3.74,9.22,5.14c3.43,1.48,6.96,1.73,10.59,0.88c3.48-0.82,6.33-2.76,8.77-5.25c3.55-3.62,4.78-8.11,4.28-13.05
		c-0.21-2.12-1.33-3.69-3.57-4.47c-2.51-0.86-5.04-0.94-7.57-0.68c-4.23,0.42-8.19,1.87-11.92,3.88c-2.18,1.17-4.29,2.48-6.4,3.77
		c-0.31,0.19-0.91,0.29-0.7,1.04c2.54,0.43,5.12,0.88,7.71,1.3c4.35,0.71,8.68,0.57,12.99-0.39c1.34-0.3,2.59-0.74,3.74-1.49
		c0.92-0.6,1.86-1.15,2.79-1.73c-0.04,0.55-0.22,0.95-0.53,1.2c-1.73,1.46-3.54,2.8-5.87,3.15c-1.93,0.29-3.87,0.58-5.81,0.82
		c-0.74,0.09-1.51,0.12-2.25,0.03c-3.73-0.44-7.49-0.58-11.14-1.56c-0.36-0.1-0.74-0.11-1.11-0.17c-1.23-0.21-2.34,0.01-3.46,0.64
		C79.93,34.52,78.77,35.3,77.77,36.72z M98.77,78.51c1.11-1.23,1.31-2.66,1.55-4.06c0.16-0.91-0.36-1.66-1.26-1.85
		c-0.65-0.14-1.36-0.21-2.01-0.12c-2.01,0.28-4.06,0.45-5.98,1.05c-4.18,1.3-8.08,3.24-11.65,5.8c-1.65,1.18-3.24,2.44-4.9,3.61
		c-3.41,2.39-6.18,5.47-9.07,8.42c-1.63,1.66-3.11,3.47-4.76,5.11c-1.92,1.9-3.96,3.68-5.94,5.52c-0.19,0.17-0.27,0.46-0.45,0.76
		c1.01,0.62,1.98,0.47,2.68,0.48c1.82-0.86,2.45-2.62,3.98-3.83c0.08,1.17-0.33,1.83-0.9,2.45c-0.32,0.36-0.84,0.66-0.58,1.29
		c1.81,0.09,1.88,0.14,2.78-0.94c1.2-1.44,2.3-2.97,3.43-4.46c0.17-0.22,0.24-0.55,0.64-0.36c-0.27,2.01-1.86,3.36-2.69,5.26
		c1.97,0.12,3.53-0.25,4.52-1.98c0.48-0.85,1.01-1.67,1.52-2.5c0.42-0.68,0.84-1.36,1.26-2.04c0.09,2.15-1.42,3.67-2.03,5.7
		c1.42-0.06,2.47-0.43,3.26-1.49c1.13-1.53,1.93-3.21,2.59-4.98c0.13-0.36,0.38-0.68,0.75-1.32c0.17,2.72-1.35,4.54-2.05,6.71
		c2.11-0.2,3.63-1.02,4.41-3c0.6-1.54,1.26-3.05,1.91-4.57c0.14-0.33,0.33-0.63,0.5-0.94c0.38,2.29-1.19,4.08-1.41,6.39
		c2.11-0.83,3.86-1.75,4.53-4.02c0.51-1.73,1.15-3.41,1.76-5.11c0.05-0.14,0.27-0.22,0.52-0.42c0.03,0.37,0.1,0.59,0.06,0.79
		c-0.3,1.24-0.64,2.46-0.93,3.7c-0.11,0.46-0.34,0.95,0.14,1.57c0.78-0.63,1.44-1.23,2.16-1.73c1.18-0.82,1.82-1.96,2.13-3.33
		c0.25-1.1,0.54-2.19,0.86-3.27c0.08-0.27,0.37-0.48,0.9-1.15c-0.14,1.59-0.23,2.64-0.34,4.01c0.73-0.79,1.2-1.37,1.75-1.86
		c0.77-0.69,1.19-1.53,1.37-2.52c0.11-0.59,0.24-1.17,0.36-1.76c0.12-0.59,0.26-1.17,0.34-1.77c0.07-0.53,0.06-1.08,0.57-1.56
		c0.13,1.07,0.26,2.14,0.4,3.25c1.81-1.71,2.11-2.41,1.97-4.48c-0.05-0.82-0.08-1.65-0.04-2.47c0.01-0.21,0.29-0.41,0.47-0.64
		C98.56,76.65,97.81,77.79,98.77,78.51z M99.55,109.52c0.11-0.08,0.21-0.16,0.32-0.24c-0.13-0.5-0.24-1.01-0.4-1.5
		c-0.61-1.81-1.97-2.57-3.87-2.14c-1.41,0.32-2.69,0.94-3.84,1.82c-1.78,1.34-3.07,3.09-4.2,4.96c-1.09,1.8-2.06,3.67-3.15,5.47
		c-1.36,2.25-2.78,4.46-4.56,6.42c-3.03,3.33-6.66,5.85-10.65,7.86c-1.6,0.81-3.25,1.52-5.05,1.89c-2.43,0.49-4.68,1.55-6.99,2.38
		c-0.14,1.03,0.21,1.82,0.59,2.83c0.45-0.45,0.77-0.74,1.06-1.06c0.4-0.45,0.75-0.94,1.18-1.37c0.11-0.11,0.46-0.13,0.59-0.03
		c0.14,0.1,0.24,0.4,0.2,0.58c-0.06,0.28-0.21,0.57-0.4,0.79c-0.43,0.52-0.91,1-1.35,1.51c-0.07,0.09-0.04,0.27-0.07,0.51
		c0.49,0.24,1.01,0.5,1.48,0.73c1.81-0.57,1.95-2.63,3.56-3.67c-0.13,1.64-1.42,2.5-1.66,3.82c1.08,0.4,1.87,0.19,2.48-0.65
		c0.66-0.91,1.29-1.85,1.96-2.75c0.2-0.27,0.52-0.45,1-0.85c0.07,1.95-1.78,2.83-1.76,4.41c0.11,0.09,0.17,0.17,0.23,0.18
		c0.22,0.04,0.45,0.1,0.66,0.06c1.54-0.29,2.83-1.04,3.7-2.35c0.67-1,1.22-2.07,1.85-3.09c0.09-0.14,0.32-0.18,0.6-0.33
		c0,0.34,0.07,0.58-0.01,0.75c-0.52,1.08-1.07,2.15-1.6,3.22c-0.15,0.31-0.47,0.6-0.16,0.99c2.59,0.03,3.28-0.31,4.31-2.4
		c0.56-1.14,0.97-2.36,1.47-3.53c0.13-0.32,0.23-0.74,0.89-0.61c0,0.89-0.38,1.7-0.61,2.55c-0.25,0.91-0.84,1.72-0.93,2.9
		c0.66-0.24,1.13-0.46,1.61-0.59c1.22-0.32,1.86-1.07,2.13-2.34c0.31-1.47,0.83-2.89,1.26-4.33c0.06-0.2,0.15-0.39,0.22-0.59
		c0.74,1.95-0.29,3.54-0.28,5.38c1.73-0.53,3.02-1.26,3.49-3c0.36-1.3,0.79-2.59,1.2-3.87c0.08-0.24,0.23-0.46,0.52-1.02
		c0.38,1.97-0.47,3.41-0.46,5.09c1.96-0.89,3.33-2.06,3.48-4.31c0.11-1.71,0.34-3.41,0.53-5.19c0.77,0.49,0.63,1.24,0.7,1.86
		c0.07,0.67,0.02,1.35-0.01,2.03c-0.02,0.62-0.37,1.24,0.02,2c1.61-1.24,2.79-2.58,3.27-4.52c0.41-1.64,0.62-3.24,0.3-4.91
		c-0.05-0.25-0.1-0.63,0.51-0.64c0.13,0.45,0.31,0.92,0.4,1.41c0.09,0.51,0.11,1.04,0.15,1.57c0.04,0.47-0.12,1,0.26,1.5
		c1.75-1.66,2.46-3.51,2-5.77c-0.11-0.51-0.24-1.02-0.35-1.54c-0.17-0.73-0.36-1.46-0.5-2.2c-0.04-0.22,0.06-0.47,0.12-0.89
		c1.36,1.32,0.85,3.17,1.91,4.52c0.21-0.47,0.42-0.79,0.51-1.15c0.19-0.8,0.32-1.62,0.45-2.43c0.03-0.22,0-0.45-0.03-0.67
		c-0.28-2.15-0.5-4.33-1.88-6.15c-0.13-0.17-0.22-0.41-0.23-0.62c-0.01-0.24,0.08-0.49,0.19-1.08
		C98.57,108.11,99.06,108.82,99.55,109.52z M64.5,189.06c-1.89-0.17-3.53-0.29-5.17-0.49c-1.11-0.14-2.24-0.29-3.3-0.61
		c-2.08-0.64-4.12-1.38-6.16-2.13c-3.8-1.4-7.57-2.86-11.37-4.26c-1.05-0.39-2.13-0.72-3.23-0.98c-3.24-0.78-6.52-0.88-9.84-0.65
		c-2.68,0.18-4.93,1.21-6.86,3.01c-0.36,0.34-0.64,0.83-0.81,1.31c-0.74,2.07-0.19,3.89,1.41,5.29c2.89,2.52,5.95,4.73,9.69,5.95
		c5.42,1.77,10.85,2.28,16.38,0.76c3.9-1.07,7.77-2.26,11.66-3.39c0.86-0.25,1.73-0.47,2.61-0.67c1.67-0.38,3.35-0.73,5.15-1.12
		C64.61,190.42,64.56,189.86,64.5,189.06z M48.52,98.43c0.08-0.58,0.18-1.08,0.21-1.58c0.09-1.79-0.01-3.6,0.26-5.36
		c0.65-4.2,0.31-3.52-1.95-6.99c-0.08-0.13-0.17-0.25-0.28-0.35c-0.28-0.25-0.53-0.56-0.86-0.72c-1.42-0.68-2.85-1.33-4.29-1.94
		c-1.52-0.64-3.08-1.17-4.59-1.82c-2.08-0.89-4.19-1.61-6.43-1.98c-1.7-0.28-3.39-0.62-5.08-0.96c-2.22-0.45-4.45-0.63-6.71-0.49
		c-0.42,0.03-0.82,0.22-1.23,0.34c0.36,1.81,1.49,3.06,2.36,4.45c1.8,2.88,4.18,5.05,7.41,6.26c3.23,1.2,6.44,2.47,9.77,3.37
		c1.98,0.54,3.71,1.61,5.49,2.55c0.51,0.27,0.94,0.73,1.37,1.15c1.29,1.25,2.56,2.53,3.85,3.77C47.95,98.27,48.2,98.3,48.52,98.43z
		 M79.44,259.41c-0.67-0.2-0.93-0.32-1.2-0.36c-3.37-0.44-6.6-1.48-9.85-2.4c-1.72-0.48-3.37-1.27-5.01-2.01
		c-2.89-1.3-5.48-3.1-8.1-4.87c-2.33-1.56-4.51-3.26-6.35-5.36c-2.14-2.44-4.12-5.02-5.19-8.12c-1.03-2.97-1.41-5.99,0.17-8.96
		c0.27-0.51,0.62-1.06,0.33-1.7c-2.21-1.19-2.97-1.03-4.24,0.98c-0.24,0.37-0.39,0.81-0.55,1.23c-0.04,0.1,0.07,0.26,0.11,0.39
		c0.35,0.06,0.7,0.11,1.23,0.2c-0.82,1.09-1.63,2.04-2.28,3.08c-0.72,1.14-1.14,2.4-0.73,3.83c1.64-1.91,1.64-1.91,2.53-2.17
		c-2.45,5.09-2.57,6.17-0.95,8.87c0.91-0.92,0.23-2.67,1.87-3.32c-0.2,0.79-0.4,1.48-0.55,2.18c-0.43,1.96-0.4,3.88,0.49,5.72
		c0.15,0.32,0.32,0.69,0.79,0.58c0.05-0.75,0.07-1.5,0.15-2.25c0.09-0.78,0.23-1.56,1.18-1.96c-0.82,1.85-0.36,3.68-0.24,5.52
		c0.1,1.59,0.9,2.59,2.32,3.55c-0.1-0.99-0.2-1.78-0.24-2.57c-0.04-0.85-0.03-1.7,0.49-2.47c0.15,0.51,0.21,1.03,0.17,1.53
		c-0.09,0.94,0.19,1.83,0.59,2.61c0.78,1.53,1.72,2.98,2.62,4.45c0.12,0.2,0.36,0.49,0.78,0.14c-0.15-0.38-0.31-0.79-0.46-1.19
		c-0.4-1.08-0.5-2.2-0.31-3.33c0.05-0.27,0.35-0.51,0.57-0.82c0.12,0.22,0.18,0.28,0.19,0.35c0.03,0.22,0.06,0.44,0.06,0.67
		c0.03,2.03,0.79,3.81,1.86,5.48c0.66,1.03,1.11,1.2,2.67,1.01c-0.19-0.73-0.38-1.44-0.55-2.16c-0.33-1.36-0.32-1.37,0.28-2.3
		c0.2,0.77,0.46,1.46,0.56,2.17c0.17,1.17,0.8,2.09,1.43,3.02c0.2,0.29,0.52,0.56,0.84,0.68c0.54,0.2,1.13,0.26,1.93,0.43
		c-0.4-1.92-1.16-3.75,0.42-5.67c0,1.21-0.07,2.1,0.01,2.98c0.24,2.41,1.45,3.48,3.94,3.59c0.13-1.66,0.13-1.66,0.66-2.43
		c0.46,1,0.91,1.98,1.36,2.97c1.09-0.01,2.02,0.45,3.07,0.06c-0.1-0.73-0.23-1.46-0.27-2.19c-0.02-0.39,0.19-0.72,0.8-0.47
		c0.2,1.03,0.37,2.16,1.39,3.1c0.8-0.1,1.73,0.4,2.53,0.06c0.51-0.49,0.03-1.29,0.9-1.4c0.13,0.23,0.26,0.49,0.43,0.73
		c0.16,0.23,0.35,0.45,0.51,0.65C76.4,261.56,77.79,260.75,79.44,259.41z M76.19,32.22c2.15-2.06,1.94-1.96,1.16-4.27
		c-0.19-0.57-0.43-1.12-0.63-1.68c-0.98-2.67-2.09-5.31-2.89-8.04c-0.44-1.52-0.87-3.03-1.5-4.47c-0.91-2.08-2.17-3.94-3.76-5.58
		c-1.6-1.65-5.27-2.54-8.01-0.14c-0.37,0.32-0.64,0.85-0.76,1.33c-1.04,4.05-0.29,7.93,1.46,11.6c1.13,2.38,2.71,4.53,4.53,6.44
		C68.6,30.34,72.11,31.87,76.19,32.22z M25.19,92.16c0.11,0.34,0.25,0.54,0.23,0.72c-0.16,1.51,0.57,2.77,1.1,4.09
		c0.26,0.64,0.74,1.02,1.61,1.12c-0.1-0.6-0.22-1.04-0.25-1.47c-0.06-1.04-0.09-2.09-0.08-3.14c0-0.2,0.3-0.4,0.62-0.79
		c0.08,0.64,0.19,1.02,0.15,1.37c-0.16,1.63,0.41,3.1,0.94,4.59c0.3,0.83,0.87,1.12,1.79,1.3c-0.06-0.46-0.12-0.82-0.16-1.17
		c-0.1-0.89-0.2-1.78-0.26-2.67c-0.02-0.33,0.17-0.55,0.65-0.43c0.06,0.39,0.13,0.83,0.2,1.26c0.23,1.43,0.71,2.77,1.44,4.01
		c0.11,0.18,0.42,0.24,0.76,0.42c0.1-0.93,0.13-1.67,0.27-2.4c0.06-0.31,0.24-0.75,0.78-0.51c0.04,0.87,0.06,1.76,0.13,2.64
		c0.05,0.53,0.21,1.03,0.69,1.36c0.35,0.24,0.36,0.27,1.63,0.35c-0.07-0.74-0.17-1.48-0.2-2.22c-0.02-0.39,0.15-0.72,0.76-0.67
		c0.05,0.42,0.04,0.87,0.16,1.29c0.18,0.64,0.39,1.3,0.71,1.88c0.46,0.81,1.08,0.95,2.3,0.66c-0.08-0.51-0.19-1.03-0.23-1.55
		c-0.02-0.28,0-0.62,0.55-0.64c0.09,0.22,0.19,0.48,0.29,0.73c0.14,0.35,0.25,0.71,0.4,1.05c0.47,1.08,0.69,1.16,2.08,0.82
		c0.27-0.83-0.65-1.65,0.05-2.71c0.4,0.88,0.72,1.62,1.07,2.35c0.28,0.57,0.52,0.6,1.53,0.24c0.08-0.82-0.5-1.66-0.06-2.8
		c0.43,0.79,0.72,1.38,1.08,1.92c0.13,0.2,0.43,0.28,0.74,0.46c0.58-2-0.22-3.36-1.49-4.56c-1.03-0.98-2.16-1.89-3.09-2.96
		c-1.95-2.25-4.5-3.44-7.24-4.36c-3.42-1.15-6.84-2.28-10.23-3.49c-1.85-0.66-3.46-1.74-4.91-3.11c-1.83-1.73-3.27-3.7-4.49-5.88
		c-0.16-0.29-0.45-0.51-0.8-0.9c-0.89,2.17-0.97,4.25-0.94,6.34c0.01,0.72-0.09,1.5,0.59,2.13c0.27-0.94,0.48-1.81,0.78-2.64
		c0.09-0.26,0.44-0.42,0.85-0.78c0,0.65,0.12,1.07-0.02,1.37c-0.77,1.71-0.14,3.4,0.07,5.08c0.05,0.39,0.3,0.83,1.03,0.81
		c0.1-0.87,0.2-1.74,0.31-2.61c0.04-0.32,0.18-0.56,0.68-0.44c0.04,0.47,0.07,0.97,0.14,1.47c0.14,1.19,0.28,2.38,0.47,3.56
		c0.07,0.43,0.26,0.86,0.86,0.78c0.08-0.97,0.12-1.95,0.26-2.91c0.03-0.24,0.37-0.44,0.67-0.77c0.27,4.13,0.82,5.47,2.59,6.26
		C24.94,94.77,23.87,93.38,25.19,92.16z M46.05,143.85c-1.34-0.13-2.68-0.3-4.02-0.4c-2.85-0.19-5.7-0.34-8.55-0.52
		c-1.43-0.09-2.85-0.3-4.27-0.26c-5.23,0.16-10.11-1.24-14.86-3.23c-0.55-0.23-1.06-0.56-1.55-0.91c-2.58-1.86-4.89-4.01-6.71-6.62
		c-1.44-2.06-2.43-4.3-2.43-6.89c0-0.42,0.15-0.91-0.48-1.28c-0.7,0.76-0.98,1.74-1.35,2.69c-0.48,1.21-0.81,2.43-0.73,3.72
		c0.03,0.47,0.26,0.93,0.42,1.48c0.72-0.62,0.3-1.83,1.39-1.99c0.1,0.15,0.25,0.27,0.24,0.37c-0.18,1.54-0.43,3.08-0.54,4.62
		c-0.05,0.64,0.21,1.29,1.03,1.52c0.3-0.95-0.15-2.04,0.72-2.75c0.16,0.13,0.26,0.16,0.26,0.21c0.04,0.44,0.14,0.89,0.09,1.32
		c-0.13,1.15,0.16,2.24,0.45,3.32c0.18,0.68,0.59,1.11,1.37,1.26c0.08-0.74,0.14-1.33,0.21-1.92c0.04-0.37,0.05-0.86,0.5-0.88
		c0.5-0.02,0.44,0.47,0.46,0.84c0.07,0.9,0.12,1.8,0.22,2.69c0.11,0.94,0.67,1.47,1.69,1.61c0.3-1.17-0.18-2.53,0.89-3.82
		c0.13,0.5,0.26,0.75,0.25,1c-0.03,0.9,0.01,1.78,0.16,2.68c0.26,1.52,1.18,2.08,2.53,2.27c0.39-0.82-0.43-1.75,0.53-2.41
		c0.22,0.65,0.41,1.27,0.65,1.88c0.65,1.68,0.77,1.75,2.83,1.76c0.33-0.68-0.65-1.57,0.41-2.26c0.3,0.72,0.54,1.39,0.85,2.04
		c0.46,0.98,0.64,1.04,2.24,0.92c0-0.51-0.03-1.03,0.02-1.54c0.01-0.15,0.25-0.27,0.5-0.53c0.54,1.52,0.69,3.36,3.05,2.95
		c0.05-0.54,0.05-1.05,0.15-1.54c0.04-0.21,0.27-0.38,0.49-0.67c0.89,2.9,1.2,3.1,3.53,2.5c0.41-0.74-0.56-1.59,0.16-2.31
		c0.1,0.02,0.22,0.01,0.24,0.05c0.2,0.38,0.39,0.77,0.57,1.16c0.49,1.06,0.74,1.2,1.93,0.98c0.36-0.07,0.69-0.22,0.85-0.27
		c0.66-0.62-0.13-1.5,0.75-1.97c0.33,0.63,0.62,1.2,0.94,1.81c0.52-0.02,0.97-0.02,1.41-0.07c0.51-0.07,1.01-0.19,1.34-0.26
		c0.5-0.48,0.07-1.3,0.89-1.33c1.3,1.29,1.3,1.29,2.88,0.77c0-0.53,0-1.08,0-1.7c0.86,0.47,0.86,0.47,1.37,1.51
		C43.37,145.09,44.84,144.93,46.05,143.85z M83.82,116.33c-0.42,0.03-0.8-0.02-1.12,0.1c-5.32,2.05-10.69,3.95-15.67,6.8
		c-3.87,2.21-6.98,5.15-9.36,8.89c-0.48,0.76-0.94,1.53-0.74,2.5c0.94,0.43,1.77-0.07,2.61-0.31c1.73-0.48,3.45-1.02,5.16-1.57
		c0.92-0.29,1.83-0.64,2.74-0.99c2.27-0.85,4.18-2.32,6.22-3.51c0.04-0.44,0.03-0.82,0.13-1.16c0.04-0.13,0.36-0.27,0.53-0.24
		c0.26,0.05,0.48,0.24,0.69,0.35C78.35,124.9,82.51,119.6,83.82,116.33z M23.84,197.96c0.39,1.1,0.79,2.2,1.16,3.22
		c0.79,0.16,1.39,0.72,2.1,0.09c0.01-1.02-0.57-2.16,0.4-3.27c0.15,0.66,0.26,1.16,0.38,1.65c0.57,2.34,0.7,2.46,3.1,2.84
		c0.13,0.02,0.28-0.07,0.55-0.14c0.2-0.62-0.68-1.63,0.58-2.08c0.4,0.86,0.81,1.72,1.21,2.58c1.05,0.18,1.98,0.12,3-0.15
		c-0.08-0.64-0.18-1.15-0.19-1.66c0-0.17,0.18-0.44,0.34-0.49c0.14-0.05,0.46,0.08,0.53,0.22c0.31,0.58,0.56,1.19,0.84,1.82
		c0.72-0.07,1.3-0.13,1.84-0.18c0.23-0.7,0.42-1.3,0.7-2.16c0.47,0.78,0.79,1.32,1.12,1.87c0.9-0.21,1.74-0.22,2.4-0.88
		c-0.09-0.58-0.17-1.13-0.24-1.61c0.61-0.37,1.02-0.4,1.15,0.23c0.11,0.54,0.27,1.01,0.93,1.28c0.4-0.17,0.87-0.38,1.17-0.5
		c0.58-0.66-0.13-1.59,0.83-1.91c0.32,0.37,0.65,0.75,1.04,1.19c0.79-0.33,1.54-0.65,2.27-0.96c0.08-0.64,0.1-1.16,0.22-1.66
		c0.04-0.16,0.31-0.26,0.49-0.39c0.3,0.45,0.56,0.86,0.86,1.31c0.46-0.26,0.77-0.46,1.1-0.61c1.13-0.54,2.39-0.92,2.64-2.45
		c0.05-0.3,0.52-0.29,0.76-0.06c0.21,0.19,0.33,0.48,0.53,0.78c1.11-0.95,2.82-0.56,3.33-2.26c-1.45-0.31-2.66,0.17-3.86,0.51
		c-2.52,0.72-5.01,1.56-7.53,2.28c-2.02,0.58-4.06,1.09-6.11,1.55c-2.67,0.59-5.36,0.51-8.06,0.23c-5.04-0.52-9.67-2.08-13.76-5.1
		c-1.02-0.76-1.98-1.61-3-2.38c-1.01-0.76-1.64-1.73-1.88-2.96c-0.11-0.55-0.2-1.11-0.72-1.64c-0.74,1.47-1.1,2.85-0.93,4.41
		c0.59-0.16,1.05-0.28,1.69-0.45c-0.07,0.56-0.13,0.92-0.15,1.28c-0.05,0.96-0.12,1.93-0.09,2.89c0,0.19,0.38,0.37,0.62,0.59
		c0.3-0.55,0.54-0.99,0.92-1.67c0.18,0.5,0.32,0.75,0.36,1c0.09,0.74,0.12,1.49,0.21,2.24c0.09,0.72,0.45,1.23,1.31,1.41
		c0.04-0.7,0.07-1.34,0.12-2.13c0.35,0.18,0.64,0.24,0.67,0.37c0.11,0.43,0.07,0.89,0.18,1.32c0.33,1.33,0.81,2.57,2.39,2.95
		C23.26,198.52,23.26,198.52,23.84,197.96z M63.36,57.62c7.06-6.37,15.09-9.89,24.39-11.47c-1.58-0.95-2.87-1.67-4.11-2.48
		c-1.32-0.86-2.66-1.72-3.85-2.75c-1.12-0.96-2.04-2.14-3.13-3.31c-1.19,1-2.21,1.97-3.16,3.04c-2.35,2.65-4.3,5.59-6.26,8.53
		c-1.51,2.26-2.63,4.71-3.61,7.24C63.53,56.69,63.51,56.97,63.36,57.62z M85.59,19.61c0.55,1.7,1.92,2.39,3.53,2.66
		c3.36,0.57,6.52-0.51,9.69-1.36c0.14-0.04,0.26-0.15,0.39-0.22c3.15-1.49,5.1-4.08,6.55-7.12c0.13-0.28,0.02-0.68,0.02-1.06
		c-0.99,0-1.88-0.04-2.77,0.01c-2.09,0.1-4.18,0.27-6.27,0.36c-2.53,0.1-4.82,0.89-7.01,2.13C87.82,16.08,86.39,17.52,85.59,19.61z
		 M84.25,19.29c0.67-1.08,1-1.99,1.65-2.57c1.18-1.05,1.79-2.37,2.35-3.77c0.25-0.63,0.6-1.22,0.82-1.86
		c0.42-1.2,0.84-2.41,1.14-3.64c0.33-1.36-0.07-2.69-0.52-3.97c-0.31-0.89-1.05-1.51-1.92-1.8c-0.84-0.28-1.75-0.38-2.64-0.5
		c-0.97-0.12-1.77,0.26-2.41,0.98c-1.13,1.26-1.95,2.7-2.09,4.4c-0.32,3.69,0.64,7.15,2.12,10.49
		C83.07,17.79,83.65,18.41,84.25,19.29z M74.94,33.67c-1.47-0.46-2.55-0.75-3.59-1.14c-3.32-1.26-5.93-3.39-8.09-6.23
		c-3.43-4.52-5.55-9.4-4.96-15.2c0.01-0.07-0.16-0.15-0.33-0.31c-1.11,1.74-1.52,3.57-1.3,5.47c0.48,0.28,0.85,0.49,1.2,0.69
		c-0.53,1.5-1.35,2.82-0.65,4.41c0.36-0.32,0.65-0.58,1.15-1.02c0.08,0.58,0.21,0.93,0.17,1.26c-0.1,0.82-0.24,1.64-0.44,2.43
		c-0.15,0.57,0.01,1.03,0.3,1.48c0.06,0.09,0.21,0.13,0.31,0.18c0.54-0.19,0.36-1.3,1.38-0.93c-0.02,0.32-0.02,0.68-0.06,1.04
		c-0.09,0.74-0.22,1.48-0.27,2.22c-0.01,0.2,0.24,0.42,0.58,0.96c0.13-0.82,0.18-1.25,0.27-1.67c0.14-0.58,0.44-0.75,1-0.2
		c-0.11,0.82-0.25,1.71-0.36,2.59c-0.1,0.87,0.34,1.36,1.28,1.75c0.16-0.62,0.23-1.13,0.43-1.57c0.12-0.26,0.44-0.42,0.88-0.8
		c0,0.75-0.01,1.19,0,1.64c0.01,0.52-0.05,1.07,0.07,1.56c0.07,0.3,0.39,0.62,0.68,0.77c0.33,0.17,0.46-0.19,0.62-0.45
		c0.14-0.22,0.38-0.38,0.53-0.53c0.75,0.32,0.37,0.84,0.45,1.23c0.14,0.67,0.89,0.93,1.36,0.46c0.2-0.21,0.29-0.53,0.48-0.74
		c0.13-0.14,0.37-0.19,0.62-0.31c0.24,0.51,0.46,0.97,0.68,1.42c0.73,0.22,1.4,0.63,2.18,0.23c0.39-0.19,0.84-0.45,1.23-0.4
		c0.37,0.05,0.68,0.46,1.06,0.74C74.15,34.41,74.4,34.18,74.94,33.67z M62.35,193.11c0.49,0.65,0.49,0.65,1.92-0.23
		c-0.13-0.05-0.26-0.15-0.38-0.13C63.38,192.85,62.89,192.99,62.35,193.11z M80.07,233.42c-0.05-0.13-0.1-0.25-0.15-0.38
		c-0.08,0.07-0.25,0.17-0.23,0.21c0.04,0.11,0.15,0.2,0.24,0.29C79.93,233.54,80.02,233.46,80.07,233.42z"/>
	<path class="st0" d="M103.24,149.87c0.06-0.6,0.42-0.64,0.67-0.58c0.22,0.06,0.39,0.33,0.58,0.51c-0.18,0.2-0.41,0.58-0.54,0.55
		C103.66,150.28,103.42,150,103.24,149.87z"/>
	<path class="st0" d="M98,169.15c0.23,0.26,0.44,0.43,0.52,0.65c0.03,0.09-0.29,0.43-0.34,0.41c-0.23-0.1-0.45-0.27-0.6-0.46
		C97.55,169.7,97.79,169.44,98,169.15z"/>
	<path class="st0" d="M107.49,159.43c0.21,0.35,0.43,0.55,0.41,0.71c-0.03,0.25-0.18,0.55-0.37,0.7c-0.22,0.18-0.65-0.15-0.58-0.44
		C107.02,160.15,107.21,159.93,107.49,159.43z"/>
	<path class="st0" d="M79.14,185.55c-0.29-0.21-0.45-0.32-0.62-0.44c0.15-0.2,0.27-0.44,0.46-0.57c0.08-0.05,0.47,0.19,0.47,0.27
		C79.43,185.04,79.27,185.26,79.14,185.55z"/>
	<path class="st0" d="M90.45,176.91c-0.32,0.3-0.51,0.47-0.7,0.65c-0.16-0.2-0.39-0.39-0.46-0.62c-0.03-0.1,0.24-0.43,0.36-0.43
		C89.88,176.53,90.09,176.72,90.45,176.91z"/>
	<path class="st0" d="M91.76,160.92c0.4-0.14,0.63-0.26,0.85-0.26c0.08,0,0.26,0.36,0.21,0.47c-0.07,0.15-0.32,0.28-0.49,0.28
		C92.2,161.4,92.07,161.19,91.76,160.92z"/>
	<path class="st0" d="M93.12,176.57c0.19,0.23,0.32,0.38,0.45,0.53c-0.15,0.12-0.32,0.35-0.46,0.34c-0.15-0.01-0.37-0.24-0.39-0.4
		C92.69,176.93,92.94,176.77,93.12,176.57z"/>
	<path class="st0" d="M111.27,149.05c0.2,0.31,0.34,0.51,0.47,0.71c-0.18,0.1-0.37,0.28-0.53,0.26c-0.16-0.03-0.35-0.25-0.39-0.42
		C110.8,149.5,111.03,149.33,111.27,149.05z"/>
	<path class="st0" d="M76.18,175.58c-0.17,0.22-0.29,0.49-0.39,0.48c-0.16-0.01-0.4-0.18-0.45-0.33c-0.04-0.11,0.16-0.39,0.3-0.43
		C75.76,175.27,75.95,175.45,76.18,175.58z"/>
	<path class="st0" d="M81.42,171.46c0.21-0.2,0.32-0.35,0.47-0.42c0.08-0.04,0.33,0.1,0.33,0.14c-0.02,0.18-0.1,0.36-0.16,0.54
		C81.89,171.65,81.71,171.58,81.42,171.46z"/>
	<path class="st0" d="M82.98,162.69c0.23,0.15,0.38,0.25,0.54,0.35c-0.12,0.15-0.23,0.38-0.38,0.42c-0.12,0.03-0.37-0.15-0.42-0.29
		C82.67,163.08,82.86,162.89,82.98,162.69z"/>
	<path class="st0" d="M103.02,171.43c-0.57,0.25-0.76,0.41-0.9,0.38c-0.14-0.04-0.24-0.27-0.35-0.41c0.15-0.11,0.3-0.3,0.46-0.31
		C102.41,171.08,102.6,171.24,103.02,171.43z"/>
	<path class="st0" d="M96.38,149.09c0.16,0.34,0.33,0.53,0.29,0.65c-0.05,0.15-0.27,0.32-0.43,0.33c-0.13,0.01-0.4-0.27-0.38-0.31
		C95.96,149.57,96.14,149.4,96.38,149.09z"/>
	<path class="st0" d="M83.54,154.21c0.18,0.13,0.28,0.21,0.38,0.28c-0.18,0.16-0.37,0.32-0.55,0.49c-0.06-0.12-0.18-0.27-0.15-0.36
		C83.28,154.47,83.43,154.34,83.54,154.21z"/>
	<path class="st0" d="M90.03,166.74c0.05,0.32,0.15,0.54,0.09,0.66c-0.07,0.12-0.31,0.13-0.48,0.18c-0.04-0.13-0.14-0.29-0.1-0.38
		C89.62,167.06,89.79,166.96,90.03,166.74z"/>
	<path class="st0" d="M102.42,162.67c0.21,0.19,0.35,0.3,0.48,0.42c-0.14,0.12-0.26,0.28-0.42,0.36c-0.05,0.03-0.29-0.14-0.29-0.2
		C102.22,163.09,102.32,162.92,102.42,162.67z"/>
	<path class="st0" d="M86.97,179.76c0.14,0.13,0.23,0.21,0.32,0.29c-0.12,0.12-0.22,0.27-0.36,0.35c-0.05,0.03-0.2-0.11-0.3-0.18
		C86.75,180.06,86.86,179.91,86.97,179.76z"/>
	<path class="st0" d="M87.97,160.17c0.16,0.13,0.34,0.26,0.33,0.28c-0.09,0.16-0.21,0.3-0.32,0.45c-0.09-0.08-0.26-0.18-0.25-0.23
		C87.77,160.49,87.88,160.34,87.97,160.17z"/>
	<path class="st0" d="M90.26,154.84c-0.07,0.09-0.12,0.25-0.2,0.26c-0.11,0.01-0.23-0.09-0.35-0.14c0.07-0.09,0.12-0.25,0.2-0.26
		C90.02,154.69,90.14,154.79,90.26,154.84z"/>
	<path class="st0" d="M94.58,243.05c0.18,0.36,0.39,0.6,0.33,0.69c-0.13,0.22-0.36,0.42-0.59,0.53c-0.07,0.03-0.44-0.33-0.42-0.36
		C94.06,243.64,94.28,243.41,94.58,243.05z"/>
	<path class="st0" d="M95.78,231.56c-0.31,0.31-0.49,0.49-0.67,0.68c-0.16-0.21-0.37-0.41-0.45-0.65c-0.03-0.11,0.23-0.44,0.33-0.43
		C95.21,231.18,95.42,231.36,95.78,231.56z"/>
	<path class="st0" d="M101.15,210.39c0.2,0.39,0.35,0.67,0.49,0.94c-0.17,0.09-0.43,0.3-0.51,0.24c-0.21-0.15-0.39-0.39-0.48-0.63
		C100.62,210.87,100.89,210.68,101.15,210.39z"/>
	<path class="st0" d="M88.47,229.03c0.23-0.15,0.38-0.33,0.54-0.34c0.33-0.02,0.55,0.2,0.43,0.53c-0.05,0.13-0.33,0.27-0.48,0.25
		C88.8,229.44,88.68,229.22,88.47,229.03z"/>
	<path class="st0" d="M100.48,238.22c0.18,0.41,0.32,0.58,0.33,0.75c0.03,0.37-0.27,0.65-0.51,0.51c-0.11-0.07-0.26-0.25-0.23-0.33
		C100.13,238.89,100.27,238.66,100.48,238.22z"/>
	<path class="st0" d="M102.04,229.11c0.25-0.31,0.38-0.46,0.5-0.62c0.2,0.16,0.41,0.32,0.58,0.51c0.02,0.02-0.15,0.33-0.22,0.32
		C102.65,229.3,102.41,229.21,102.04,229.11z"/>
	<path class="st0" d="M107.26,212.98c0.24,0.32,0.45,0.51,0.5,0.73c0.02,0.11-0.27,0.28-0.41,0.43c-0.15-0.15-0.38-0.29-0.43-0.47
		C106.88,213.53,107.07,213.33,107.26,212.98z"/>
	<path class="st0" d="M113.03,219.95c0.25-0.16,0.43-0.36,0.6-0.36c0.16,0,0.31,0.22,0.47,0.35c-0.16,0.13-0.31,0.36-0.48,0.37
		C113.45,220.32,113.27,220.11,113.03,219.95z"/>
	<path class="st0" d="M91.83,238.11c-0.13-0.23-0.23-0.4-0.32-0.57c0.18-0.09,0.36-0.25,0.53-0.24c0.12,0.01,0.22,0.26,0.33,0.4
		C92.22,237.83,92.06,237.94,91.83,238.11z"/>
	<path class="st0" d="M96.85,218.45c0.09,0.16,0.19,0.33,0.29,0.5c-0.17,0.08-0.34,0.15-0.51,0.23c-0.07-0.18-0.15-0.36-0.18-0.55
		C96.44,218.6,96.67,218.53,96.85,218.45z"/>
	<path class="st0" d="M107.08,228.11c0.2-0.22,0.3-0.39,0.45-0.48c0.06-0.03,0.33,0.12,0.32,0.18c-0.01,0.17-0.06,0.43-0.17,0.49
		C107.58,228.35,107.36,228.2,107.08,228.11z"/>
	<path class="st0" d="M84.1,228.28c0.2,0.21,0.4,0.33,0.41,0.47c0.01,0.13-0.18,0.39-0.29,0.4c-0.14,0-0.38-0.17-0.41-0.3
		C83.77,228.71,83.95,228.53,84.1,228.28z"/>
	<path class="st0" d="M84.51,220.88c0.25-0.12,0.42-0.28,0.55-0.25c0.13,0.03,0.22,0.25,0.32,0.39c-0.14,0.11-0.3,0.31-0.43,0.3
		C84.82,221.32,84.71,221.09,84.51,220.88z"/>
	<path class="st0" d="M88.52,216.46c0.24-0.13,0.43-0.32,0.53-0.28c0.15,0.06,0.33,0.3,0.31,0.44c-0.02,0.13-0.27,0.32-0.42,0.32
		C88.82,216.93,88.71,216.68,88.52,216.46z"/>
	<path class="st0" d="M98.15,213.91c0.29-0.16,0.45-0.25,0.62-0.35c0.08,0.18,0.19,0.35,0.23,0.53c0.01,0.04-0.23,0.2-0.31,0.18
		C98.52,214.23,98.39,214.09,98.15,213.91z"/>
	<path class="st0" d="M92.24,222.82c-0.42,0.19-0.61,0.34-0.79,0.33c-0.15,0-0.3-0.2-0.44-0.31c0.12-0.14,0.21-0.36,0.36-0.4
		C91.49,222.41,91.67,222.57,92.24,222.82z"/>
	<path class="st0" d="M50.44,45.83c-0.27,0.3-0.42,0.53-0.63,0.66c-0.07,0.04-0.45-0.23-0.43-0.27c0.09-0.24,0.22-0.49,0.4-0.66
		C49.82,45.51,50.1,45.68,50.44,45.83z"/>
	<path class="st0" d="M27.99,45.09c0.31-0.23,0.5-0.43,0.72-0.5c0.09-0.03,0.27,0.22,0.4,0.34c-0.18,0.18-0.33,0.39-0.54,0.51
		C28.5,45.49,28.28,45.28,27.99,45.09z"/>
	<path class="st0" d="M41.74,65.73c-0.2,0.12-0.42,0.25-0.63,0.38c-0.08-0.16-0.27-0.43-0.23-0.47c0.18-0.17,0.42-0.28,0.63-0.41
		C41.57,65.35,41.63,65.48,41.74,65.73z"/>
	<path class="st0" d="M39.51,40.5c-0.23,0.19-0.37,0.4-0.5,0.4c-0.15,0-0.3-0.19-0.45-0.3c0.12-0.15,0.21-0.39,0.35-0.43
		C39.05,40.14,39.23,40.33,39.51,40.5z"/>
	<path class="st0" d="M43.09,45.55c0.15,0.27,0.36,0.49,0.31,0.59c-0.08,0.16-0.33,0.31-0.5,0.3c-0.11,0-0.3-0.31-0.28-0.47
		C42.63,45.84,42.88,45.73,43.09,45.55z"/>
	<path class="st0" d="M26.98,54.79c0.12,0.24,0.28,0.41,0.25,0.55c-0.03,0.13-0.3,0.32-0.39,0.28c-0.15-0.05-0.32-0.27-0.32-0.42
		C26.52,55.08,26.77,54.97,26.98,54.79z"/>
	<path class="st0" d="M47.21,50.31c0.21,0.17,0.43,0.26,0.48,0.41c0.05,0.14-0.02,0.44-0.13,0.51c-0.31,0.2-0.55-0.01-0.61-0.31
		C46.92,50.77,47.09,50.57,47.21,50.31z"/>
	<path class="st0" d="M47.82,61.07c0.05,0.29,0.16,0.54,0.09,0.63c-0.09,0.12-0.34,0.15-0.53,0.15c-0.05,0-0.17-0.3-0.13-0.36
		C47.36,61.34,47.55,61.25,47.82,61.07z"/>
	<path class="st0" d="M53.4,51.18c0.16,0.29,0.35,0.47,0.33,0.61c-0.02,0.13-0.27,0.23-0.42,0.34c-0.1-0.15-0.29-0.3-0.29-0.45
		C53.01,51.55,53.21,51.41,53.4,51.18z"/>
	<path class="st0" d="M49.17,65.93c0.19-0.21,0.32-0.35,0.45-0.48c0.14,0.14,0.3,0.27,0.39,0.44c0.03,0.05-0.15,0.3-0.21,0.29
		C49.62,66.15,49.44,66.05,49.17,65.93z"/>
	<path class="st0" d="M36.13,60.05c0.06-0.13,0.11-0.28,0.21-0.37c0.04-0.03,0.29,0.07,0.3,0.13c0.02,0.12-0.07,0.25-0.11,0.38
		C36.39,60.14,36.26,60.1,36.13,60.05z"/>
	<path class="st0" d="M74.08,255.07c0.43-0.04,0.69-0.1,0.92-0.05c0.09,0.02,0.21,0.4,0.15,0.45c-0.13,0.12-0.37,0.23-0.53,0.19
		C74.47,255.62,74.36,255.39,74.08,255.07z"/>
	<path class="st0" d="M80.43,242.51c0.19,0.23,0.32,0.38,0.44,0.53c-0.2,0.16-0.4,0.32-0.6,0.48c-0.09-0.18-0.25-0.37-0.24-0.54
		C80.04,242.83,80.26,242.7,80.43,242.51z"/>
	<path class="st0" d="M81.6,252.72c0.19-0.17,0.35-0.41,0.46-0.39c0.15,0.02,0.34,0.23,0.38,0.39c0.02,0.11-0.21,0.37-0.32,0.37
		C81.97,253.08,81.82,252.88,81.6,252.72z"/>
	<path class="st0" d="M87,249.2c-0.19,0.2-0.34,0.47-0.45,0.46c-0.18-0.02-0.33-0.23-0.49-0.36c0.13-0.15,0.24-0.4,0.39-0.43
		C86.58,248.83,86.76,249.05,87,249.2z"/>
	<path class="st0" d="M63.59,243.96c0.22,0.12,0.4,0.22,0.57,0.32c-0.14,0.21-0.25,0.52-0.44,0.59c-0.3,0.11-0.57-0.11-0.52-0.45
		C63.22,244.27,63.44,244.14,63.59,243.96z"/>
	<path class="st0" d="M72.17,239.12c0.05,0.27,0.17,0.5,0.1,0.61c-0.06,0.11-0.32,0.13-0.49,0.13c-0.04,0-0.16-0.27-0.12-0.33
		C71.76,239.4,71.94,239.3,72.17,239.12z"/>
	<path class="st0" d="M79.21,248.27c0.09,0.17,0.18,0.34,0.27,0.52c-0.17,0.07-0.35,0.13-0.52,0.2c-0.05-0.19-0.12-0.38-0.13-0.57
		C78.82,248.38,79.04,248.33,79.21,248.27z"/>
	<path class="st0" d="M63.38,249.18c-0.28,0.17-0.43,0.3-0.6,0.34c-0.09,0.02-0.31-0.17-0.3-0.21c0.06-0.18,0.18-0.34,0.28-0.51
		C62.92,248.9,63.08,249,63.38,249.18z"/>
	<path class="st0" d="M50.42,234.1c0.22-0.16,0.36-0.36,0.5-0.35c0.16,0.01,0.31,0.18,0.46,0.29c-0.13,0.15-0.24,0.39-0.39,0.42
		C50.86,234.48,50.68,234.27,50.42,234.1z"/>
	<path class="st0" d="M65.39,236.59c0.08,0.09,0.15,0.19,0.23,0.28c-0.13,0.1-0.26,0.19-0.39,0.29c-0.05-0.12-0.15-0.25-0.13-0.36
		C65.12,236.71,65.29,236.66,65.39,236.59z"/>
	<path class="st0" d="M54.97,240.72c0.17,0.08,0.39,0.15,0.38,0.2c-0.01,0.15-0.08,0.31-0.19,0.42c-0.04,0.04-0.33-0.07-0.33-0.1
		C54.85,241.06,54.92,240.9,54.97,240.72z"/>
	<path class="st0" d="M71.78,247.77c0.21-0.24,0.31-0.42,0.46-0.5c0.08-0.04,0.36,0.11,0.35,0.15c-0.03,0.19-0.07,0.42-0.2,0.54
		C72.33,248.02,72.07,247.87,71.78,247.77z"/>
	<path class="st0" d="M94.5,59.3c0.34,0.31,0.59,0.45,0.71,0.66c0.16,0.31-0.22,0.83-0.54,0.73c-0.23-0.07-0.5-0.33-0.55-0.55
		C94.08,59.95,94.31,59.69,94.5,59.3z"/>
	<path class="st0" d="M69.09,67.33c0.37,0.38,0.7,0.58,0.68,0.74c-0.02,0.21-0.3,0.42-0.51,0.57c-0.04,0.03-0.39-0.21-0.41-0.35
		C68.82,68.06,68.95,67.82,69.09,67.33z"/>
	<path class="st0" d="M68.35,58.57c0.2,0.36,0.38,0.58,0.41,0.82c0.02,0.11-0.25,0.35-0.4,0.37c-0.37,0.05-0.55-0.21-0.48-0.55
		C67.91,59.04,68.1,58.89,68.35,58.57z"/>
	<path class="st0" d="M79.14,60.88c-0.2-0.36-0.35-0.57-0.42-0.79c-0.02-0.08,0.21-0.32,0.22-0.32c0.22,0.13,0.45,0.26,0.62,0.45
		C79.59,60.27,79.37,60.53,79.14,60.88z"/>
	<path class="st0" d="M85.4,51.26c0.02,0.28,0.11,0.52,0.03,0.62c-0.11,0.13-0.35,0.14-0.53,0.21c-0.05-0.18-0.19-0.41-0.12-0.52
		C84.87,51.43,85.12,51.39,85.4,51.26z"/>
	<path class="st0" d="M91.07,63.78c0.28,0.29,0.54,0.46,0.52,0.55c-0.07,0.24-0.26,0.44-0.4,0.66c-0.13-0.12-0.37-0.24-0.37-0.37
		C90.81,64.39,90.94,64.17,91.07,63.78z"/>
	<path class="st0" d="M72.53,61.15c-0.19-0.47-0.29-0.65-0.32-0.84c-0.02-0.1,0.11-0.33,0.15-0.32c0.18,0.01,0.35,0.1,0.52,0.15
		C72.82,60.31,72.76,60.49,72.53,61.15z"/>
	<path class="st0" d="M75.9,56.62c0.17,0.28,0.36,0.45,0.34,0.6c-0.02,0.13-0.26,0.22-0.41,0.33c-0.11-0.15-0.29-0.29-0.29-0.44
		C75.53,56.98,75.72,56.85,75.9,56.62z"/>
	<path class="st0" d="M77.39,53.03c0.4-0.17,0.6-0.32,0.77-0.3c0.16,0.01,0.31,0.21,0.46,0.33c-0.12,0.14-0.22,0.37-0.36,0.41
		C78.13,53.49,77.94,53.32,77.39,53.03z"/>
	<path class="st0" d="M100,53.48c-0.18-0.06-0.4-0.1-0.4-0.14c-0.01-0.19,0.05-0.38,0.09-0.57c0.18,0.06,0.35,0.13,0.53,0.19
		C100.14,53.14,100.07,53.31,100,53.48z"/>
	<path class="st0" d="M96.42,56.71c0.05,0.11,0.09,0.22,0.14,0.33c-0.13,0.05-0.27,0.15-0.38,0.12c-0.07-0.01-0.1-0.22-0.15-0.34
		C96.16,56.79,96.29,56.75,96.42,56.71z"/>
	<path class="st0" d="M75.84,67.83c0.4-0.17,0.58-0.3,0.64-0.26c0.14,0.09,0.22,0.27,0.33,0.41c-0.11,0.06-0.23,0.19-0.32,0.17
		C76.3,68.11,76.12,67.98,75.84,67.83z"/>
	<path class="st0" d="M83.48,66.43c0.07,0.17,0.17,0.36,0.2,0.55c0.02,0.12-0.08,0.25-0.12,0.38c-0.19-0.15-0.38-0.3-0.58-0.45
		C83.08,66.82,83.16,66.74,83.48,66.43z"/>
	<path class="st0" d="M84.18,55.08c0.16,0.1,0.35,0.17,0.34,0.22c-0.02,0.18-0.11,0.35-0.17,0.52c-0.15-0.09-0.31-0.18-0.46-0.27
		C83.99,55.4,84.08,55.24,84.18,55.08z"/>
	<path class="st0" d="M89.6,52.92c-0.03-0.12-0.12-0.27-0.08-0.36c0.04-0.1,0.2-0.15,0.31-0.22c0.03,0.13,0.1,0.28,0.07,0.39
		C89.87,52.82,89.7,52.86,89.6,52.92z"/>
	<path class="st0" d="M99.89,57.55c-0.09,0.08-0.19,0.15-0.28,0.23c-0.09-0.15-0.19-0.31-0.28-0.46c0.14-0.04,0.29-0.13,0.4-0.1
		C99.8,57.24,99.83,57.43,99.89,57.55z"/>
	<path class="st0" d="M16.64,130.23c0.21,0.15,0.37,0.26,0.52,0.37c-0.18,0.18-0.35,0.36-0.53,0.54c-0.13-0.15-0.34-0.28-0.36-0.44
		C16.26,130.57,16.49,130.42,16.64,130.23z"/>
	<path class="st0" d="M24.93,130.36c0.16,0.28,0.25,0.45,0.34,0.61c-0.24,0.11-0.47,0.27-0.72,0.3c-0.09,0.01-0.23-0.26-0.34-0.41
		C24.42,130.71,24.64,130.56,24.93,130.36z"/>
	<path class="st0" d="M32.94,136.94c0.41-0.26,0.58-0.44,0.74-0.44c0.11,0,0.31,0.29,0.29,0.42c-0.02,0.14-0.25,0.33-0.4,0.34
		C33.41,137.26,33.23,137.09,32.94,136.94z"/>
	<path class="st0" d="M40.13,138.44c0.19,0.19,0.32,0.32,0.44,0.44c-0.15,0.13-0.28,0.29-0.46,0.37c-0.07,0.03-0.34-0.17-0.32-0.2
		C39.85,138.87,39.97,138.71,40.13,138.44z"/>
	<path class="st0" d="M41.87,137.01c0.44-0.13,0.69-0.28,0.77-0.22c0.19,0.15,0.29,0.4,0.43,0.61c-0.13,0.05-0.29,0.17-0.38,0.14
		C42.47,137.45,42.28,137.28,41.87,137.01z"/>
	<path class="st0" d="M24.64,135.35c0.18,0.25,0.4,0.5,0.37,0.55c-0.16,0.2-0.37,0.38-0.6,0.49c-0.04,0.02-0.37-0.33-0.34-0.39
		C24.19,135.78,24.4,135.6,24.64,135.35z"/>
	<path class="st0" d="M43.75,139.38c0.07-0.17,0.12-0.39,0.16-0.38c0.25,0.02,0.49,0.09,0.74,0.15c-0.13,0.16-0.23,0.39-0.39,0.45
		C44.12,139.64,43.92,139.46,43.75,139.38z"/>
	<path class="st0" d="M48.47,139.83c0.16,0.26,0.29,0.39,0.33,0.55c0.02,0.08-0.16,0.29-0.21,0.28c-0.17-0.05-0.32-0.16-0.48-0.25
		C48.21,140.26,48.31,140.11,48.47,139.83z"/>
	<path class="st0" d="M13.31,124.97c-0.16,0.07-0.32,0.16-0.48,0.17c-0.05,0-0.2-0.29-0.17-0.33c0.12-0.12,0.29-0.19,0.44-0.28
		C13.16,124.66,13.21,124.77,13.31,124.97z"/>
	<path class="st0" d="M91.13,35.61c-0.3,0.25-0.44,0.48-0.59,0.48c-0.4,0-0.67-0.23-0.67-0.66c0-0.09,0.2-0.26,0.26-0.25
		C90.43,35.27,90.71,35.42,91.13,35.61z"/>
	<path class="st0" d="M94.05,30.87c-0.18-0.2-0.39-0.33-0.41-0.48c-0.02-0.18,0.12-0.38,0.19-0.57c0.21,0.16,0.45,0.29,0.6,0.49
		C94.46,30.35,94.22,30.62,94.05,30.87z"/>
	<path class="st0" d="M95.74,42.89c0.32-0.24,0.51-0.42,0.74-0.52c0.05-0.02,0.33,0.29,0.32,0.44c0,0.14-0.22,0.37-0.38,0.4
		C96.28,43.25,96.09,43.07,95.74,42.89z"/>
	<path class="st0" d="M99.79,30.22c0.19,0.17,0.43,0.29,0.44,0.42c0.01,0.13-0.19,0.36-0.33,0.4c-0.12,0.03-0.4-0.16-0.41-0.27
		C99.48,30.61,99.66,30.45,99.79,30.22z"/>
	<path class="st0" d="M106.01,39.51c-0.27,0.25-0.42,0.47-0.63,0.53c-0.1,0.03-0.39-0.21-0.43-0.37c-0.08-0.31,0.09-0.58,0.45-0.55
		C105.56,39.14,105.71,39.31,106.01,39.51z"/>
	<path class="st0" d="M105.94,29.62c0.15,0.25,0.33,0.43,0.31,0.58c-0.02,0.14-0.29,0.37-0.39,0.34c-0.16-0.05-0.38-0.27-0.37-0.42
		C105.5,29.99,105.74,29.84,105.94,29.62z"/>
	<path class="st0" d="M82.65,36.95c0.2-0.21,0.34-0.46,0.46-0.45c0.15,0.01,0.38,0.19,0.42,0.35c0.03,0.1-0.18,0.37-0.32,0.4
		C83.08,37.27,82.9,37.09,82.65,36.95z"/>
	<path class="st0" d="M85.17,39.06c0.4-0.16,0.61-0.31,0.8-0.3c0.15,0.01,0.4,0.21,0.41,0.33c0.01,0.15-0.17,0.41-0.31,0.44
		C85.93,39.56,85.74,39.37,85.17,39.06z"/>
	<path class="st0" d="M89.83,40.65c0.2,0.08,0.44,0.16,0.43,0.19c-0.03,0.18-0.1,0.36-0.21,0.5c-0.02,0.03-0.36-0.08-0.36-0.13
		C89.7,41.03,89.78,40.85,89.83,40.65z"/>
	<path class="st0" d="M101.3,26.64c0.14,0.24,0.33,0.44,0.29,0.55c-0.06,0.16-0.29,0.26-0.45,0.38c-0.11-0.15-0.33-0.32-0.31-0.45
		C100.85,26.96,101.08,26.84,101.3,26.64z"/>
	<path class="st0" d="M97.86,38.21c0.19,0.08,0.31,0.13,0.42,0.18c-0.08,0.16-0.15,0.33-0.25,0.47c-0.01,0.02-0.28-0.09-0.28-0.14
		C97.75,38.56,97.82,38.39,97.86,38.21z"/>
	<path class="st0" d="M73.83,91.35c-0.33,0.17-0.54,0.36-0.75,0.37c-0.14,0.01-0.29-0.24-0.43-0.37c0.19-0.16,0.36-0.39,0.58-0.47
		C73.32,90.84,73.52,91.1,73.83,91.35z"/>
	<path class="st0" d="M80.28,82.86c0.07,0.13,0.24,0.29,0.23,0.45c-0.01,0.2-0.1,0.44-0.25,0.58C80.15,84,79.9,84,79.73,83.98
		c-0.07-0.01-0.16-0.23-0.16-0.36C79.57,83.22,79.74,82.92,80.28,82.86z"/>
	<path class="st0" d="M91.63,77.36c0.22,0.2,0.39,0.31,0.47,0.47c0.04,0.07-0.12,0.34-0.19,0.34c-0.18,0.01-0.36-0.09-0.53-0.15
		C91.45,77.83,91.52,77.65,91.63,77.36z"/>
	<path class="st0" d="M68,92.91c0.08,0.09,0.16,0.17,0.24,0.26c-0.13,0.11-0.25,0.23-0.38,0.34c-0.05-0.12-0.17-0.26-0.15-0.36
		C67.73,93.05,67.9,92.99,68,92.91z"/>
	<path class="st0" d="M75.9,87.75c0.22,0.19,0.35,0.31,0.47,0.42c-0.12,0.12-0.23,0.28-0.38,0.36c-0.05,0.03-0.29-0.13-0.29-0.2
		C75.7,88.17,75.8,88.02,75.9,87.75z"/>
	<path class="st0" d="M86.73,83.67c-0.22,0-0.41,0-0.6,0c0-0.12-0.04-0.3,0.02-0.36c0.08-0.08,0.29-0.13,0.38-0.08
		C86.62,83.28,86.65,83.47,86.73,83.67z"/>
	<path class="st0" d="M88.98,78.22c-0.1-0.17-0.22-0.32-0.27-0.49c-0.01-0.05,0.24-0.24,0.25-0.22c0.14,0.11,0.26,0.26,0.38,0.4
		C89.25,77.99,89.15,78.07,88.98,78.22z"/>
	<path class="st0" d="M90.65,84.34c0.06,0.19,0.12,0.35,0.14,0.52c0,0.02-0.25,0.13-0.31,0.09c-0.1-0.06-0.18-0.23-0.17-0.34
		C90.31,84.53,90.48,84.47,90.65,84.34z"/>
	<path class="st0" d="M83.35,87.5c0.13,0.14,0.29,0.26,0.27,0.3c-0.07,0.15-0.19,0.27-0.3,0.4c-0.09-0.08-0.28-0.19-0.27-0.22
		C83.12,87.82,83.24,87.67,83.35,87.5z"/>
	<path class="st0" d="M44.03,190.61c0.23,0.29,0.45,0.45,0.45,0.6c0.01,0.33-0.22,0.57-0.57,0.54c-0.19-0.02-0.37-0.18-0.56-0.28
		C43.56,191.21,43.76,190.95,44.03,190.61z"/>
	<path class="st0" d="M53.69,191.23c-0.19,0.18-0.31,0.4-0.45,0.42c-0.17,0.02-0.42-0.1-0.53-0.24c-0.16-0.2,0.16-0.64,0.42-0.58
		C53.3,190.88,53.45,191.06,53.69,191.23z"/>
	<path class="st0" d="M44.44,187.08c0.21,0.18,0.35,0.3,0.49,0.42c-0.13,0.16-0.25,0.39-0.41,0.44c-0.11,0.03-0.41-0.19-0.42-0.32
		C44.08,187.48,44.28,187.31,44.44,187.08z"/>
	<path class="st0" d="M49.87,190.67c-0.26,0.29-0.41,0.51-0.62,0.64c-0.06,0.04-0.37-0.14-0.42-0.28c-0.13-0.31,0.02-0.57,0.36-0.61
		C49.35,190.4,49.53,190.54,49.87,190.67z"/>
	<path class="st0" d="M33.79,187.02c0.28,0.38,0.43,0.75-0.14,0.98c-0.09,0.04-0.31-0.05-0.36-0.14
		C33.01,187.33,33.29,187.1,33.79,187.02z"/>
	<path class="st0" d="M43.34,194.19c0.06,0.3,0.19,0.53,0.12,0.66c-0.06,0.12-0.32,0.17-0.5,0.18c-0.05,0-0.2-0.28-0.16-0.34
		C42.91,194.54,43.09,194.42,43.34,194.19z"/>
	<path class="st0" d="M37.95,194.31c0.19,0.26,0.3,0.41,0.41,0.56c-0.16,0.11-0.32,0.25-0.49,0.32c-0.04,0.02-0.26-0.2-0.25-0.28
		C37.65,194.75,37.78,194.59,37.95,194.31z"/>
	<path class="st0" d="M24.05,188.84c0.29-0.13,0.48-0.3,0.62-0.26c0.12,0.03,0.2,0.29,0.24,0.46c0.01,0.04-0.22,0.22-0.3,0.2
		C24.45,189.17,24.31,189.03,24.05,188.84z"/>
	<path class="st0" d="M31.71,190.49c0.31,0.61,0.49,0.8,0.45,0.93c-0.04,0.14-0.28,0.3-0.43,0.3c-0.12-0.01-0.3-0.25-0.31-0.4
		C31.41,191.12,31.55,190.92,31.71,190.49z"/>
	<path class="st0" d="M25.84,183.93c0.15-0.12,0.27-0.26,0.42-0.32c0.07-0.03,0.2,0.13,0.31,0.2c-0.14,0.15-0.27,0.29-0.41,0.44
		C26.08,184.17,26,184.08,25.84,183.93z"/>
	<path class="st0" d="M27.04,79.67c0.2,0.3,0.33,0.51,0.47,0.71c-0.17,0.09-0.35,0.26-0.52,0.24c-0.14-0.01-0.37-0.23-0.37-0.37
		C26.62,80.11,26.82,79.96,27.04,79.67z"/>
	<path class="st0" d="M45.21,85.97c0.27,0.46,0.47,0.65,0.43,0.77c-0.05,0.15-0.28,0.25-0.44,0.37c-0.11-0.15-0.3-0.29-0.31-0.44
		C44.9,86.48,45.05,86.3,45.21,85.97z"/>
	<path class="st0" d="M33.24,85.59c-0.28,0.18-0.42,0.32-0.58,0.36c-0.09,0.02-0.32-0.18-0.31-0.22c0.07-0.18,0.16-0.4,0.31-0.47
		C32.75,85.22,32.96,85.42,33.24,85.59z"/>
	<path class="st0" d="M41.19,87.35c0.12,0.22,0.24,0.43,0.33,0.65c0.01,0.02-0.28,0.21-0.3,0.19c-0.18-0.16-0.32-0.35-0.47-0.54
		C40.85,87.58,40.95,87.51,41.19,87.35z"/>
	<path class="st0" d="M45.79,91.8c0.08,0.1,0.16,0.2,0.25,0.3c-0.17,0.08-0.34,0.17-0.5,0.25c-0.04-0.13-0.16-0.29-0.11-0.37
		C45.48,91.88,45.66,91.85,45.79,91.8z"/>
	<path class="st0" d="M35.16,81.66c0.07,0.27,0.11,0.46,0.16,0.64c-0.18,0.05-0.37,0.12-0.55,0.12c-0.04,0-0.17-0.27-0.13-0.32
		C34.76,81.94,34.94,81.84,35.16,81.66z"/>
	<path class="st0" d="M71.26,19.36c0.2,0.28,0.43,0.54,0.41,0.58c-0.17,0.19-0.38,0.36-0.62,0.45c-0.06,0.02-0.37-0.33-0.34-0.41
		C70.81,19.77,71.03,19.61,71.26,19.36z"/>
	<path class="st0" d="M69.32,25.59c0.28,0.22,0.58,0.41,0.56,0.46c-0.1,0.24-0.26,0.46-0.46,0.63c-0.04,0.03-0.45-0.22-0.44-0.31
		C69.01,26.12,69.17,25.9,69.32,25.59z"/>
	<path class="st0" d="M65.24,12.12c-0.26,0.13-0.43,0.3-0.58,0.27c-0.13-0.02-0.33-0.3-0.29-0.39c0.06-0.15,0.27-0.32,0.43-0.32
		C64.92,11.67,65.04,11.91,65.24,12.12z"/>
	<path class="st0" d="M73.1,29.5c0.27-0.12,0.48-0.29,0.58-0.24c0.13,0.07,0.2,0.29,0.23,0.46c0.01,0.04-0.23,0.21-0.31,0.19
		C73.44,29.85,73.33,29.7,73.1,29.5z"/>
	<path class="st0" d="M65.79,18.93c0.1,0.08,0.26,0.14,0.27,0.23c0.01,0.12-0.09,0.24-0.15,0.37c-0.1-0.07-0.28-0.13-0.28-0.2
		C65.63,19.2,65.73,19.07,65.79,18.93z"/>
	<path class="st0" d="M68.55,129.08c0.19,0.31,0.36,0.48,0.39,0.67c0.05,0.34-0.18,0.55-0.5,0.5c-0.14-0.02-0.36-0.3-0.33-0.42
		C68.16,129.6,68.36,129.4,68.55,129.08z"/>
	<path class="st0" d="M62.43,129.76c0.12,0.39,0.27,0.64,0.2,0.74c-0.14,0.2-0.4,0.31-0.6,0.46c-0.09-0.18-0.29-0.4-0.24-0.52
		C61.89,130.23,62.13,130.07,62.43,129.76z"/>
	<path class="st0" d="M67.3,129.01c-0.13-0.24-0.3-0.43-0.27-0.54c0.05-0.14,0.28-0.32,0.42-0.31c0.12,0.01,0.32,0.27,0.3,0.4
		C67.73,128.7,67.51,128.82,67.3,129.01z"/>
	<path class="st0" d="M69.28,125.76c-0.22,0.19-0.36,0.4-0.5,0.4c-0.15,0-0.3-0.19-0.45-0.3c0.11-0.15,0.21-0.39,0.34-0.42
		C68.82,125.42,69,125.6,69.28,125.76z"/>
	<path class="st0" d="M77.28,123.32c-0.16-0.23-0.35-0.38-0.34-0.53c0.01-0.14,0.22-0.27,0.34-0.4c0.14,0.14,0.36,0.27,0.39,0.42
		C77.68,122.94,77.46,123.1,77.28,123.32z"/>
	<path class="st0" d="M79.6,121.04c-0.1,0.02-0.2,0.04-0.3,0.06c0-0.11,0-0.22,0.02-0.32c0.01-0.03,0.1-0.05,0.15-0.07
		C79.51,120.82,79.55,120.93,79.6,121.04z"/>
	<path class="st0" d="M91.93,19.86c-0.29,0.14-0.48,0.31-0.65,0.3c-0.13-0.01-0.35-0.23-0.35-0.36c-0.01-0.15,0.18-0.32,0.28-0.47
		C91.37,19.44,91.53,19.56,91.93,19.86z"/>
	<path class="st0" d="M94.33,15.03c0.29,0.23,0.53,0.34,0.55,0.47c0.02,0.16-0.12,0.43-0.26,0.48c-0.16,0.06-0.39-0.08-0.58-0.13
		C94.12,15.62,94.21,15.39,94.33,15.03z"/>
	<path class="st0" d="M97.99,17.36c0.32-0.23,0.51-0.38,0.71-0.52c0.11,0.15,0.31,0.32,0.3,0.46c-0.01,0.15-0.2,0.38-0.35,0.42
		C98.51,17.75,98.33,17.55,97.99,17.36z"/>
	<path class="st0" d="M102.4,16.94c-0.17,0.1-0.33,0.19-0.5,0.29c-0.06-0.12-0.21-0.31-0.17-0.35c0.11-0.13,0.28-0.21,0.43-0.31
		C102.23,16.67,102.29,16.78,102.4,16.94z"/>
	<path class="st0" d="M65.2,87.68c-0.3,0.27-0.42,0.47-0.59,0.52c-0.31,0.09-0.6-0.05-0.63-0.4c-0.01-0.13,0.23-0.4,0.36-0.4
		C64.57,87.39,64.81,87.54,65.2,87.68z"/>
	<path class="st0" d="M59.24,92.98c0.27,0.53,0.45,0.72,0.41,0.84c-0.05,0.14-0.27,0.3-0.43,0.31c-0.09,0.01-0.29-0.25-0.29-0.39
		C58.93,93.55,59.07,93.37,59.24,92.98z"/>
	<path class="st0" d="M70.13,83.65c-0.22,0.2-0.34,0.41-0.49,0.42c-0.13,0.01-0.28-0.18-0.43-0.28c0.11-0.14,0.2-0.35,0.33-0.38
		C69.69,83.38,69.87,83.53,70.13,83.65z"/>
	<path class="st0" d="M74.96,81.23c-0.1-0.25-0.2-0.5-0.29-0.76c-0.01-0.03,0.08-0.13,0.1-0.13c0.1,0.02,0.29,0.08,0.29,0.12
		c-0.02,0.27-0.08,0.54-0.13,0.81C74.91,81.28,74.96,81.23,74.96,81.23z"/>
	<path class="st0" d="M83.33,9.38c0.25,0.35,0.49,0.6,0.45,0.66c-0.14,0.22-0.37,0.4-0.59,0.54c-0.06,0.04-0.35-0.16-0.35-0.17
		C82.96,10.11,83.11,9.83,83.33,9.38z"/>
	<path class="st0" d="M85.15,4.11c0.2,0.51,0.41,0.79,0.35,0.96c-0.08,0.21-0.4,0.32-0.62,0.47c-0.11-0.18-0.33-0.39-0.3-0.54
		C84.61,4.76,84.83,4.57,85.15,4.11z"/>
	<path class="st0" d="M83.27,15.14c0.4-0.17,0.6-0.32,0.78-0.31c0.16,0.01,0.38,0.2,0.42,0.34c0.02,0.11-0.18,0.37-0.32,0.4
		C84.01,15.6,83.83,15.43,83.27,15.14z"/>
	<path class="st0" d="M87.72,9.19c-0.6,0.31-0.79,0.49-0.93,0.46c-0.14-0.03-0.33-0.3-0.31-0.43c0.02-0.14,0.27-0.32,0.43-0.33
		C87.09,8.88,87.29,9.03,87.72,9.19z"/>
</g>
</svg>
