<?xml version="1.0" encoding="utf-8"?>
<!-- Generator: Adobe Illustrator 25.3.1, SVG Export Plug-In . SVG Version: 6.00 Build 0)  -->
<svg version="1.1" id="Layer_1" xmlns="http://www.w3.org/2000/svg" xmlns:xlink="http://www.w3.org/1999/xlink" x="0px" y="0px"
	 viewBox="0 0 227.43 299.17" style="enable-background:new 0 0 227.43 299.17;" xml:space="preserve">
<style type="text/css">
	.st0{fill:#754D24;}
</style>
<g id="_x32_">
	<path class="st0" d="M44.36,25.93c-0.12-2.81-0.35-5.3-0.29-7.79c0.09-3.28,1.04-6.43,2.12-9.51c0.8-2.28,1.94-4.44,2.83-6.7
		c0.89-2.26,2.51-2.78,4.02-0.29c1.02,1.68,1.9,3.45,2.76,5.22c0.87,1.78,1.43,3.66,1.78,5.62c0.34,1.94,0.83,3.85,1.29,5.76
		c0.84,3.5,1.14,7.01,0.59,10.6c-0.36,2.38-0.59,4.79-0.88,7.25c1.42,0.57,2.94,1.06,4.34,1.77c1.34,0.68,2.57,1.58,3.99,2.47
		c0.12-0.32,0.27-0.63,0.34-0.95c0.55-2.62,1.64-5.05,2.61-7.51c1-2.54,2.17-5.01,3.26-7.5c0.18-0.42,0.43-0.82,0.54-1.25
		c0.73-2.84,2.2-5.33,3.77-7.74c1.86-2.86,3.62-5.79,5.99-8.29c0.89-0.94,1.78-1.87,2.7-2.77c1.35-1.32,3.06-2.08,4.84-2.39
		c2.3-0.4,4.69-0.58,6.98,0.2c2.84,0.97,5.35,2.47,7.15,4.96c0.09,0.12,0.19,0.24,0.3,0.35c3.09,3.15,4.41,7.21,5.66,11.27
		c1.07,3.48,1.65,7.07,1.85,10.72c0.14,2.6-0.19,5.16-0.51,7.71c-0.41,3.3-0.95,6.59-1.21,9.91c-0.19,2.48-0.84,4.91-1.67,7.28
		c-1.46,4.21-3.85,7.87-6.4,11.46c-1.45,2.04-2.99,4-4.72,5.83c-2.39,2.52-5.14,4.47-8.38,5.73c-0.69,0.27-1.49,0.38-1.97,1.17
		c1.84,2.31,2.94,5.07,4.33,7.67c1.26,2.33,2.75,4.53,4.13,6.8c0.79,1.29,1.57,2.59,2.35,3.89c0.14,0.24,0.32,0.46,0.43,0.63
		c0.57-0.03,0.56-0.38,0.61-0.66c0.12-0.67,0.26-1.35,0.28-2.03c0.1-2.45,0.87-4.75,1.45-7.1c1.01-4.11,3.24-7.66,4.97-11.44
		c0.19-0.41,0.43-0.8,0.69-1.17c1.13-1.61,2.33-3.18,3.41-4.83c2.32-3.54,5.44-6.31,8.58-9.06c2.05-1.8,4.26-3.41,6.46-5.02
		c2.6-1.91,5.6-2.99,8.66-3.92c2.27-0.69,4.58-1.02,6.96-0.94c1.85,0.06,3.65,0.41,5.28,1.24c1.05,0.54,1.98,1.39,2.85,2.22
		c2.54,2.4,4.8,5.07,6.83,7.92c0.35,0.49,0.69,1,1.08,1.47c0.79,0.97,1.27,2.01,1.27,3.32c0,0.89,0.22,1.82,0.52,2.67
		c0.96,2.73,1.4,5.58,2.05,8.38c0.66,2.83,0.55,5.73,0.58,8.61c0.02,2.58,0.15,5.17-0.04,7.73c-0.24,3.24-0.62,6.49-1.47,9.65
		c-0.49,1.83-0.98,3.66-1.39,5.51c-1.2,5.38-3.18,10.43-6.34,14.98c-0.86,1.25-1.56,2.61-2.48,3.81c-1.1,1.44-2.35,2.77-3.55,4.14
		c-3.16,3.61-6.6,6.9-10.67,9.49c-1.98,1.26-4,2.48-6.03,3.66c-0.71,0.42-1.52,0.68-2.29,0.99c-0.7,0.28-1.41,0.53-2.02,0.76
		c-0.32,1.04-0.51,2.02-0.91,2.9c-0.45,0.99-0.27,1.82,0.43,2.49c0.43,0.41,0.44,0.83,0.59,1.32c0.53,1.73,1.21,3.42,1.93,5.09
		c0.63,1.46,1.34,2.89,2.09,4.29c0.38,0.72,0.91,1.36,1.41,2.09c2.5-0.19,4.65,0.77,6.82,1.67c2.93,1.22,5.32,3.16,7.35,5.58
		c0.34,0.41,0.66,0.83,0.97,1.25c1.14,1.52,2.28,3.02,2.91,4.85c0.28,0.83,0.64,1.68,1.27,2.53c1.03-0.82,1.52-1.86,2.17-2.74
		c3.37-4.54,7.2-8.62,11.72-12.01c2.92-2.19,6.08-3.96,9.65-4.98c2.19-0.62,4.36-0.7,6.53-0.39c5.81,0.84,11.41,2.45,16.62,5.2
		c3.08,1.63,6.03,3.47,8.76,5.68c2.61,2.12,5,4.4,7.02,7.09c0.41,0.55,0.82,1.1,1.31,1.57c3,2.89,4.99,6.45,6.88,10.1
		c1.09,2.11,1.92,4.28,2.47,6.58c0.34,1.4,0.83,2.76,1.19,4.15c0.41,1.54,0.76,3.09,1.12,4.63c0.19,0.81,0.34,1.63,0.5,2.44
		c0.18,0.97,0.36,1.94,0.51,2.91c0.15,0.97,0.26,1.95,0.4,2.92c0.36,2.51,0.27,4.99-0.42,7.44c-0.45,1.6-0.79,3.24-1.29,4.83
		c-0.41,1.29-0.88,2.59-1.49,3.8c-1.23,2.44-2.54,4.83-3.88,7.21c-0.52,0.92-1.11,1.83-1.83,2.59c-2.02,2.15-4.07,4.29-6.22,6.32
		c-3.97,3.75-8.01,7.43-12.45,10.62c-2.4,1.72-4.98,3.18-7.43,4.84c-3.9,2.63-8.33,3.94-12.78,5.23c-2.33,0.67-4.62,1.48-6.95,2.16
		c-1.51,0.44-3.06,0.78-4.66,1.18c-0.34,0.75-0.29,1.53-0.11,2.37c0.92,4.3,1.8,8.6,2.67,12.91c0.55,2.75,1.02,5.51,1.56,8.26
		c0.13,0.65,0.22,1.3,0.73,1.86c0.53,0.58,0.16,1.09-0.45,1.46c-0.66-0.32-1.32-0.62-1.97-0.95c-0.44-0.22-0.54-0.7-0.22-1.15
		c0.17-0.24,0.49-0.41,0.59-0.67c0.12-0.31,0.08-0.69,0.11-1.1c-0.42,0-0.71,0.01-1.01,0c-0.28-0.01-0.57-0.05-0.9-0.08
		c-0.01-1.05,1.08-1.05,1.44-1.84c-0.4-0.15-0.82-0.25-1.18-0.45c-0.22-0.13-0.45-0.39-0.5-0.63c-0.07-0.33,0.2-0.54,0.54-0.57
		c0.15-0.01,0.39,0.06,0.44-0.01c0.18-0.26,0.3-0.56,0.56-1.07c-0.8-0.05-1.36-0.08-1.89-0.11c-0.34-0.42-0.23-0.74,0.12-1
		c0.18-0.14,0.38-0.26,0.58-0.36c0.75-0.39,0.59-0.95,0.29-1.53c-0.15-0.04-0.29-0.11-0.43-0.11c-0.4-0.01-0.93,0.44-1.15-0.23
		c-0.18-0.54,0.33-0.77,0.67-1.05c0.22-0.18,0.42-0.38,0.68-0.62c-0.4-0.75-1.23-0.26-1.62-0.74c-0.29-0.67,0.24-0.93,0.66-1.23
		c0.37-0.25,0.5-0.62,0.3-0.97c-0.12-0.21-0.48-0.35-0.74-0.38c-0.46-0.04-0.92,0.02-1.16-0.69c0.39-0.25,0.84-0.5,1.24-0.81
		c0.15-0.12,0.29-0.39,0.26-0.57c-0.03-0.18-0.25-0.41-0.42-0.45c-0.48-0.13-0.98-0.17-1.44-0.24c-0.09-1.05,1.83-1.03,0.97-2.32
		c-0.62-0.22-1.53,0.51-1.99-0.66c0.46-0.3,0.96-0.6,1.43-0.94c0.37-0.27,0.33-0.71,0.15-1.03c-0.1-0.19-0.46-0.27-0.72-0.32
		c-0.21-0.04-0.53,0.15-0.65,0.05c-0.19-0.15-0.4-0.54-0.32-0.69c0.18-0.37,0.53-0.65,0.87-1.04c-1.13-0.46-2.01,0.25-3.12,0.06
		c0.37,2.13,0.55,4.08,1.05,5.95c1.14,4.25,1.75,8.6,2.44,12.93c0.39,2.46,0.79,4.93,1.23,7.38c0.11,0.62,0.04,1.03-0.8,1.19
		c-0.51-0.93-0.27-2.02-0.52-3.01c-0.25-0.95-0.35-1.94-0.51-2.91c-0.18-1.05-0.37-2.09-0.54-3.14c-0.17-1.05-0.31-2.1-0.46-3.15
		c-0.14-0.98-0.24-1.96-0.41-2.93c-0.19-1.04-0.44-2.07-0.67-3.11c-0.23-1.04-0.47-2.07-0.69-3.11c-0.21-0.96-0.42-1.92-0.6-2.89
		c-0.19-1.04-0.41-2.07-0.85-2.96c-0.36-0.09-0.57-0.2-0.79-0.2c-3.86-0.02-7.48-1.13-11.06-2.4c-0.57-0.2-1.14-0.41-1.72-0.59
		c-3.7-1.12-6.95-3.13-9.74-5.71c-4.08-3.77-6.95-8.31-7.88-13.98c-0.49-2.96-0.78-5.84-0.04-8.76c0.01-0.06-0.04-0.13-0.08-0.26
		c-1.78-0.28-3.61-0.26-5.41-0.07c-2.35,0.24-4.69,0.21-7.04,0.06c-2.34-0.14-4.69-0.28-7.03-0.47c-0.75-0.06-1.5-0.23-2.23-0.44
		c-4.22-1.24-8.46-2.39-12.41-4.4c-4.46-2.26-8.32-5.3-11.55-9.08c-2.16-2.53-4.33-5.08-6.03-7.97c-1.68-2.86-2.78-5.87-2.72-9.25
		c0.05-2.88,0.01-5.77,0.46-8.62c0.69-4.35,1.75-8.58,3.86-12.54c1.8-3.36,3.85-6.55,6.26-9.47c2.41-2.93,5.18-5.54,8.5-7.47
		c1.57-0.91,3.14-1.84,4.77-2.65c2.51-1.24,5.06-2.38,7.94-2.59c2.18-0.15,4.32-0.79,6.53-0.81c2.51-0.02,5-0.04,7.4,0.91
		c0.63,0.25,1.32,0.35,1.99,0.45c0.43,0.07,0.89,0.01,1.38,0.01c0.32-0.83,0.07-1.54-0.25-2.21c-0.83-1.78-1.68-3.56-2.55-5.33
		c-0.33-0.67-0.71-1.32-1.13-2.09c-0.4,0.15-0.8,0.19-1.05,0.4c-1.22,1.07-2.66,1.74-4.11,2.39c-2.84,1.26-5.63,2.64-8.53,3.74
		c-4.77,1.81-9.7,2.94-14.83,3.15c-3.1,0.13-6.2,0.57-9.3,0.61c-2.18,0.02-4.39-0.25-6.53-0.68c-2.52-0.5-4.98-1.33-7.48-1.98
		c-1.32-0.35-2.64-0.73-3.98-0.95c-3.5-0.58-6.64-2.08-9.76-3.65c-3.47-1.74-6.76-3.76-9.73-6.28c-1.41-1.19-2.5-2.62-3.53-4.13
		c-2.06-3.03-2.95-6.46-3.61-9.98c-0.27-1.41-0.58-2.83-0.7-4.26c-0.1-1.2-0.11-2.44,0.12-3.62c0.54-2.82,1.15-5.64,1.88-8.42
		c1.02-3.85,2.78-7.38,5.12-10.59c1.65-2.27,3.6-4.3,5.85-6.02c0.84-0.65,1.64-1.35,2.47-2.01c2.75-2.18,5.71-4,8.97-5.31
		c0.99-0.39,1.96-0.82,2.94-1.22c3.2-1.29,6.56-1.83,9.97-2.16c1.66-0.16,3.32-0.32,4.98-0.47c1.75-0.16,3.47-0.07,5.2,0.33
		c2.21,0.51,4.45,0.6,6.86,0.46c-0.61-1.91-1.36-3.63-2.32-5.25c-0.66-1.11-1.22-2.27-1.88-3.37c-1.1-1.81-2.19-3.64-3.4-5.38
		c-0.75-1.07-1.76-1.81-3.23-1.77c-1.2,0.04-2.42-0.21-3.62-0.21c-3.76,0-6.51-1.71-8.41-4.89c-0.12-0.19-0.23-0.39-0.35-0.58
		c-0.04-0.06-0.12-0.1-0.29-0.24c-0.2,0.28-0.42,0.54-0.59,0.83c-1.94,3.28-4.1,6.37-7.17,8.73c-0.96,0.74-1.74,1.69-2.68,2.46
		c-2.17,1.76-4.39,3.47-6.6,5.18c-2.53,1.96-5.43,3.29-8.16,4.92c-2.69,1.6-5.64,2.2-8.7,2.34c-2.65,0.13-5.31,0.1-7.96,0.14
		c-1.92,0.03-3.77-0.33-5.56-1.03c-1.83-0.72-3.7-1.35-5.51-2.11c-1.11-0.47-2.18-1.07-3.2-1.71c-1.98-1.27-3.92-2.59-5.86-3.93
		c-1.47-1.01-2.5-2.4-3.35-3.95c-2.02-3.66-3.13-7.55-3.13-11.74c0-2.2-0.04-4.4-0.01-6.6c0.04-2.36,0.35-4.69,1.01-6.96
		c0.9-3.13,1.79-6.26,2.76-9.37c0.64-2.04,1.76-3.86,3.02-5.57c1.02-1.38,1.71-2.85,1.43-4.6c-0.31-1.92,0.23-3.59,1.33-5.13
		c0.79-1.11,1.49-2.32,2.45-3.26c3.72-3.65,7.9-6.62,13.02-8c2.66-0.72,5.37-0.96,8.12-0.48c2.39,0.42,4.79,0.79,7.17,1.21
		c0.82,0.15,1.61,0.43,2.42,0.61C43.24,25.82,43.75,25.85,44.36,25.93z M56.48,43.21c0.15,0.25,0.27,0.53,0.46,0.76
		c1.2,1.47,2.48,2.88,3.6,4.4c1.85,2.5,3.68,5.01,5.99,7.12c0.44,0.4,0.77,0.93,1.16,1.4c0.49,0.58,0.96,1.18,1.49,1.71
		c0.15,0.15,0.49,0.1,0.98,0.18c-0.25-0.73-0.42-1.21-0.55-1.6c-0.45-0.14-0.8-0.25-1.17-0.37c0.09-0.33,0.17-0.54,0.19-0.76
		c0.04-0.35,0.18-0.76,0.05-1.04c-0.2-0.42-0.64-0.22-1.01-0.14c-0.12,0.02-0.27-0.09-0.4-0.15c-0.05-0.14-0.16-0.27-0.15-0.41
		c0.04-1.37,0.05-1.36-1.34-1.59c-0.11-0.02-0.19-0.2-0.32-0.34c-0.04-0.43,0.45-1.04-0.19-1.38c-0.43-0.22-0.95-0.25-1.42-0.37
		c-0.05-0.46-0.01-0.94-0.16-1.33c-0.25-0.64-0.87-0.37-1.36-0.45c-0.53-0.09-0.68-0.5-0.51-1.04c0.08-0.25-0.01-0.55-0.02-0.82
		c-0.59-0.21-1.08-0.38-1.53-0.55c-0.1-0.51-0.19-0.95-0.29-1.43c-0.91-0.11-1.6-0.37-1.48-1.54c0.05-0.44-0.49-0.76-1.02-0.64
		c-0.36,0.08-0.69,0.28-1.03,0.42c0.13-0.63,0.26-1.26,0.42-2.03c-0.65,0-1.12,0-1.59,0c-0.02-0.46-0.04-0.8-0.06-1.15
		c-0.98,0.15-0.98,0.15-1.33,1.09C54.72,41.82,55.6,42.51,56.48,43.21z M188.42,218.48c1.98-0.8,3.98-1.54,5.91-2.4
		c4.27-1.91,8.77-2.31,13.36-2.02c0.89,0.06,1.77,0.37,2.62,0.66c0.29,0.1,0.71,0.35,0.33,0.99c-0.29-0.07-0.63-0.19-0.98-0.24
		c-1.27-0.18-2.55-0.48-3.82-0.48c-4.13-0.01-8.15,0.62-11.93,2.42c-0.89,0.42-1.82,0.75-2.72,1.15c-0.31,0.14-0.57,0.38-1.07,0.72
		c1.08,0.44,1.91,0.79,2.74,1.13c1.06,0.42,2.14,0.78,3.17,1.25c2.49,1.12,4.98,2.23,7.42,3.45c2.98,1.5,5.92,3.08,8.49,5.25
		c0.3,0.25,0.6,0.48,0.17,0.92c-1.22-0.43-2.33-1.04-3.35-1.84c-0.47-0.38-0.94-0.79-1.47-1.06c-5.05-2.59-10-5.37-15.41-7.18
		c-1.99-0.67-3.83-1.81-5.74-2.72c-0.47-0.22-0.95-0.44-1.44-0.61c-0.71-0.25-1.44-0.45-2.16-0.68c-1.28-0.41-2.56-0.83-3.99-1.3
		c-0.13,0.55-0.35,0.99-0.29,1.38c0.18,1.27,0.29,2.6,0.73,3.79c1.27,3.41,2.84,6.72,4.77,9.8c2.09,3.34,4.41,6.54,6.7,9.74
		c0.88,1.22,1.81,2.44,3.12,3.29c0.13,0.09,0.17,0.32,0.31,0.6c-0.95,0.05-1.62-0.3-2.15-0.84c-0.69-0.7-1.36-1.43-1.95-2.21
		c-0.88-1.14-1.64-2.37-2.54-3.5c-3.5-4.42-6.23-9.31-8.51-14.44c-0.73-1.64-1.13-3.45-1.52-5.22c-0.19-0.85-0.03-1.78-0.03-2.76
		c-0.45-0.15-0.86-0.32-1.29-0.42c-0.66-0.15-1.34-0.25-2.01-0.38c-2.88-0.57-5.69-1.44-8.65-1.76c-2.73-0.29-5.43-0.34-8.14-0.16
		c-0.41,0.03-0.81,0.26-1.28,0.42c0.31,1.15,0.5,2.2,0.87,3.18c0.83,2.21,1.32,4.51,1.95,6.77c1.28,4.53,2.97,8.91,5.4,12.98
		c0.47,0.78,0.97,1.54,1.42,2.33c1.5,2.63,2.93,5.31,4.48,7.91c1.2,2.02,2.57,3.92,4.35,5.51c2.15,1.92,4.21,3.93,6.3,5.91
		c0.33,0.31,0.64,0.65,0.88,1.03c0.19,0.28,0.14,0.58-0.36,0.66c-1.27-1.1-2.55-2.25-3.88-3.36c-4.48-3.75-8.03-8.23-10.74-13.41
		c-1.26-2.42-2.7-4.75-4.03-7.13c-2.43-4.32-4.23-8.89-5.43-13.71c-0.66-2.64-1.48-5.25-2.26-7.86c-0.08-0.27-0.32-0.49-0.5-0.76
		c-1.64,0.27-3.17,0.67-4.57,1.45c-1.17,0.65-2.09,1.48-1.93,3.03c0.2,2-0.9,3.52-2.16,4.83c-1.78,1.85-3.71,3.58-5.85,5.02
		c-3.52,2.39-5.92,5.71-7.4,9.59c-1.3,3.39-2.03,6.92-1.21,10.68c0.57,2.6,1,5.18,2.36,7.52c2,3.45,4.43,6.52,7.76,8.76
		c2.46,1.65,5.07,3.04,7.93,3.91c1.23,0.37,2.46,0.77,3.67,1.21c2.16,0.78,4.38,1.18,6.68,1.21c4.72,0.06,9.4-0.15,13.91-1.77
		c1.71-0.61,3.44-1.17,5.18-1.72c2.67-0.85,5.37-1.63,8.02-2.51c0.92-0.31,1.81-0.78,2.64-1.29c2.33-1.42,4.6-2.94,6.93-4.35
		c3.39-2.06,6.49-4.48,9.3-7.27c0.64-0.64,1.37-1.19,2.06-1.79c1.25-1.1,2.5-2.2,3.74-3.32c0.84-0.76,1.65-1.56,2.48-2.33
		c2.05-1.93,4.04-3.91,5.38-6.43c1.46-2.74,2.89-5.51,4.31-8.27c0.24-0.47,0.42-0.98,0.57-1.49c0.44-1.53,0.89-3.06,1.25-4.61
		c0.5-2.21,1.21-4.39,0.81-6.72c-0.62-3.59-1.08-7.2-1.8-10.76c-0.48-2.37-1.34-4.65-1.93-7c-0.56-2.21-1.29-4.34-2.31-6.4
		c-1.83-3.69-3.84-7.23-6.8-10.17c-0.8-0.8-1.45-1.76-2.21-2.6c-1.28-1.4-2.49-2.88-3.91-4.12c-2.45-2.15-5.08-4.07-7.9-5.74
		c-5.68-3.37-11.76-5.62-18.27-6.64c-2.62-0.41-5.28-0.5-7.87,0.47c-2.43,0.91-4.72,2.09-6.86,3.54c-5.01,3.41-9.11,7.78-12.72,12.6
		c-2.41,3.22-4.63,6.58-5.8,10.49c-0.41,1.37-0.66,2.8-1,4.19c-0.7,2.84-0.39,5.74-0.46,8.61c-0.01,0.3,0.1,0.6,0.14,0.9
		c0.14,1.05,0.29,2.09,0.39,3.14c0.15,1.51,0.22,3.03,0.4,4.53c0.06,0.47,0.35,0.9,0.69,1.73c0.33-0.85,0.53-1.31,0.68-1.79
		c1.1-3.48,2.46-6.86,4.4-9.96c1.28-2.05,2.6-4.09,4.06-6.02c1.92-2.54,4.05-4.93,6.67-6.79c1.48-1.05,3.08-1.94,4.54-3.02
		c1.7-1.26,3.79-1.9,5.26-3.5c0.15-0.16,0.52-0.11,0.83-0.17c-0.12,0.9-0.59,1.37-1.19,1.74c-1.16,0.71-2.37,1.35-3.51,2.11
		c-1.89,1.26-3.74,2.58-5.6,3.88c-0.25,0.17-0.51,0.33-0.72,0.54c-2.58,2.47-4.91,5.13-6.99,8.05c-3.17,4.44-5.41,9.28-6.99,14.46
		c-0.03,0.11,0.09,0.27,0.14,0.4c0.14,0.01,0.29,0.08,0.41,0.04c3.86-1.29,7.84-1.7,11.89-1.65c1.13,0.01,2.26,0,3.25,0
		c1.31-1.9,2.47-3.68,3.72-5.4c1.52-2.09,3.23-3.99,5.52-5.3c1.05-0.6,2.02-1.34,3.03-2.01c2.78-1.84,5.51-3.76,8.52-5.22
		c2.45-1.19,4.84-2.48,7.57-3c1.41-0.27,2.77-0.79,4.16-1.16c0.83-0.22,1.66-0.19,2.42,0.28c0.15,0.09,0.22,0.33,0.53,0.85
		c-2.42-0.38-4.37,0.45-6.41,0.91c-2.99,0.68-5.78,1.83-8.4,3.4c-3.18,1.91-6.37,3.82-9.47,5.87c-1.69,1.12-3.47,2.16-4.86,3.72
		c-1.68,1.88-3,3.99-4.31,6.11c-0.21,0.34-0.21,0.81-0.32,1.28C174.2,213.65,181.59,215.03,188.42,218.48z M107.82,118.78
		c-0.95,0.66-1.36,1.25-1.65,1.95c-0.43,1.05-0.89,2.09-1.32,3.14c-1.01,2.46-1.75,5-2.05,7.66c-0.22,1.91-0.22,3.86,0.35,5.64
		c0.71,2.24,1.95,4.28,3.75,5.89c0.85,0.76,1.72,1.49,2.6,2.21c1.57,1.29,3.42,1.92,5.41,2.19c2.82,0.38,5.62,0.07,8.37-0.49
		c1.92-0.39,3.84-0.86,5.61-1.78c7.51-3.92,13.86-9.21,19.2-15.78c1.59-1.95,2.91-4.07,4.25-6.18c1.71-2.7,3.21-5.51,4.07-8.61
		c0.91-3.28,1.75-6.59,2.68-9.87c0.96-3.38,1.27-6.87,1.49-10.34c0.21-3.25,0.08-6.52,0.02-9.78c-0.09-4.66-1.2-9.15-2.41-13.62
		c-0.26-0.94-0.42-1.92-0.57-2.88c-0.19-1.21-0.43-2.38-1.18-3.39c-2.45-3.29-4.94-6.53-7.91-9.38c-1.1-1.06-2.26-2.01-3.8-2.39
		c-2.46-0.61-4.91-0.88-7.43-0.36c-3.61,0.74-6.9,2.27-10.13,3.96c-0.67,0.35-1.3,0.78-1.89,1.25c-2.01,1.61-3.97,3.28-5.99,4.88
		c-2.93,2.33-5.42,5.08-7.59,8.11c-1.41,1.97-2.89,3.91-4.09,6c-1.28,2.22-2.29,4.61-3.4,6.93c-0.26,0.55-0.49,1.11-0.67,1.69
		c-1.29,4.21-2.25,8.49-2.43,12.92c-0.06,1.5,0.22,2.83,0.91,4.14c0.45,0.86,0.85,1.77,1.09,2.71c0.25,0.96,0.33,1.94,1.32,2.52
		c0.2,0.12,0.24,0.52,0.33,0.8c0.14,0.43,0.17,0.92,0.4,1.28c0.52,0.83,1.29,1.53,1.66,2.41c0.41,0.98,0.75,1.98,1.36,2.85
		c0.12,0.18,0.33,0.3,0.49,0.44c1.55-0.27,2.84-1.01,4.1-1.88c-0.13-2.07-0.82-3.91-1.35-5.8c-0.64-2.26-1.28-4.5-1.17-6.9
		c0.13-2.94,0.19-5.88,0.46-8.82c0.27-2.93,1.3-5.59,2.09-8.34c0.05-0.16,0.33-0.25,0.5-0.37c0.09,0.18,0.21,0.32,0.21,0.45
		c-0.03,0.37-0.06,0.76-0.18,1.11c-0.32,1.01-0.73,2-1.01,3.02c-0.28,1.02-0.56,2.05-0.65,3.1c-0.18,2.11-0.25,4.22-0.35,6.34
		c-0.15,3.03-0.17,6.05,0.76,9c0.65,2.07,1.09,4.22,2.12,6.32c2.83-1.65,5.21-3.78,7.82-5.57c1.42-0.98,2.67-2.21,3.94-3.28
		c-0.13-1.92-0.2-3.66-0.39-5.39c-0.31-2.95-0.4-5.9,0.03-8.85c0.18-1.2,0.35-2.4,0.36-3.61c0.05-3.65,1.11-7,2.87-10.16
		c0.14-0.25,0.27-0.56,0.76-0.22c-0.15,1.15-0.48,2.28-0.97,3.39c-0.42,0.97-0.67,2.01-1.05,2.99c-0.5,1.31-0.33,2.69-0.53,4.03
		c-0.6,4.14-0.72,8.3-0.37,12.46c0.11,1.26,0.3,2.52,0.46,3.86c0.36-0.12,0.6-0.13,0.77-0.26c1.89-1.41,3.47-3.16,5.01-4.92
		c1.94-2.22,3.64-4.65,5.38-7.03c0.98-1.34,1.86-2.77,2.77-4.16c0.4-0.6,0.27-1.13-0.24-1.61c-0.07-0.07-0.01-0.28-0.01-0.44
		c0.41-0.09,0.82-0.17,1.07-0.23c0.79-1.57,1.52-2.98,2.22-4.41c0.91-1.83,1.78-3.68,2.7-5.51c0.1-0.2,0.37-0.32,0.8-0.67
		c-0.06,0.68,0,1.08-0.13,1.4c-0.4,0.98-0.8,1.97-1.33,2.88c-1.53,2.63-2.9,5.32-3.93,8.19c-0.4,1.12-1.09,2.16-1.75,3.17
		c-0.9,1.38-1.91,2.68-2.84,4.05c-0.27,0.4-0.42,0.88-0.7,1.48c0.51,0,0.82,0.05,1.1-0.01c3.27-0.67,6.46-1.58,9.49-3.01
		c0.82-0.39,1.68-0.7,2.53-1c0.24-0.08,0.54,0.01,0.86,0.02c-0.11,0.27-0.12,0.48-0.22,0.52c-1.29,0.63-2.57,1.29-3.89,1.85
		c-2.44,1.03-4.91,2.01-7.56,2.4c-0.97,0.14-1.92,0.45-2.88,0.66c-0.78,0.18-1.36,0.62-1.85,1.23c-2.72,3.39-6.01,6.21-9.25,9.06
		c-1.13,1-2.43,1.81-3.63,2.73c-0.65,0.5-1.26,1.04-1.92,1.6c0.24,0.39,0.36,0.66,0.55,0.89c2.11,2.57,4.95,3.98,8.08,4.76
		c3.18,0.8,6.44,0.98,9.72,0.95c1.15-0.01,2.28,0.03,3.33,0.55c0.24,0.12,0.41,0.38,0.65,0.61c-0.27,0.09-0.41,0.18-0.55,0.17
		c-2.65-0.12-5.3-0.14-7.93-0.41c-2.4-0.24-4.89-0.43-7.14-1.21c-2.92-1.02-5.69-2.54-7.55-5.23c-0.07-0.1-0.26-0.11-0.52-0.21
		c-2.88,2.2-5.95,4.26-9.42,5.54c0,1.52-0.05,2.96,0.02,4.39c0.03,0.67,0.21,1.36,0.49,1.97c0.57,1.24,1.15,2.49,1.91,3.62
		c1.28,1.91,2.95,3.52,4.99,4.57c1.81,0.93,3.68,1.79,5.73,2.15c1.27,0.22,2.52,0.53,3.79,0.76c0.73,0.13,1.4,0.36,2.38,1.01
		c-0.86,0.04-1.29,0.09-1.71,0.07c-3.46-0.16-6.72-1.1-9.88-2.47c-1.33-0.58-2.48-1.43-3.61-2.35c-1.88-1.54-3.06-3.53-4.09-5.67
		c-0.74-1.53-1.31-3.07-1.01-4.81C107.95,119.75,107.86,119.45,107.82,118.78z M75.36,109.46c1.34-0.12,1.35-0.13,1.89,0.19
		c1.37,0.81,2.69,1.7,4.08,2.47c2.65,1.45,5.19,3.05,7.61,4.89c1.94,1.48,3.76,3.06,5.54,4.7c2.16,2.01,4.09,4.23,5.68,6.73
		c0.2,0.32,0.43,0.62,0.68,0.91c0.24,0.28,0.48,0.61,1.03,0.34c0.62-3.39,2.13-6.54,3.44-9.68c-1.21-4.37-3.18-8.26-5.93-11.76
		c-0.37-0.47-0.68-1-0.98-1.53c-1.57-2.77-3.14-5.54-4.7-8.31c-0.19-0.33-0.29-0.74-0.55-0.99c-0.36-0.35-0.8-0.71-1.27-0.85
		c-0.57-0.16-1.21-0.16-1.81-0.1c-2,0.18-3.95-0.18-5.87-0.6c-1.74-0.38-3.46-0.35-5.2-0.19c-1.43,0.14-2.86,0.35-4.3,0.47
		c-5.61,0.47-10.8,2.26-15.71,4.96c-2.2,1.21-4.26,2.61-6.19,4.23c-1.56,1.32-3.28,2.44-4.65,3.99c-1.71,1.93-3.5,3.83-4.69,6.13
		c-2.61,5.03-3.98,10.44-4.73,16.04c-0.27,2.01,0.15,3.92,0.45,5.86c0.74,4.71,2.2,9.13,5.31,12.87c0.39,0.46,0.78,0.93,1.23,1.33
		c4.15,3.65,8.93,6.26,14.02,8.31c1.19,0.48,2.42,0.91,3.66,1.23c4.25,1.11,8.53,2.12,12.78,3.24c2.82,0.75,5.67,0.97,8.56,0.77
		c3.56-0.25,7.11-0.56,10.66-0.86c0.45-0.04,0.9-0.1,1.35-0.18c5.12-0.88,9.98-2.52,14.63-4.83c1.15-0.57,2.32-1.14,3.52-1.59
		c2.48-0.93,4.53-2.45,6.28-4.39c1.01-1.12,1.99-2.3,2.46-3.79c0.1-0.32,0.11-0.66,0.2-1.2c-1.25,0.13-2.3,0.17-3.33,0.36
		c-2.52,0.46-4.99,0.23-7.45-0.32c-1.89-0.42-3.54-1.31-4.98-2.6c-0.39-0.35-0.8-0.7-1.2-1.05c-3.31-2.85-5.37-6.33-5.36-10.83
		c0-0.61,0.02-1.21,0.01-1.82c-0.01-0.21-0.1-0.41-0.17-0.69c-0.65-0.05-1.21,0.02-1.55,0.61c0.04,0.32,0.08,0.6,0.13,0.96
		c-0.44,0.2-0.91,0.42-1.24,0.57c-0.78,2.27-1.49,4.42-2.27,6.55c-1.02,2.78-2.37,5.39-4.01,7.88c-2.31,3.51-5.52,6.01-8.84,8.43
		c-0.55,0.4-0.82,0.19-1.06-0.7c0.63-0.42,1.26-0.8,1.85-1.23c0.74-0.53,1.43-1.13,2.17-1.66c1.56-1.12,2.82-2.5,3.98-4.03
		c2.94-3.86,4.76-8.25,6.25-12.81c0.14-0.43,0.24-0.88,0.31-1.33c0.05-0.34,0.01-0.69,0.01-1.23c-2.21,0.96-4.28,1.65-6.45,2.03
		c-1.93,0.34-3.83,0.94-5.78,1.15c-2.48,0.26-4.98,0.25-7.48,0.35c-1.28,0.05-2.56,0.08-3.79,0.12c-1.14,3.38-1.21,3.26-3.27,4.85
		c-0.3,0.23-0.59,0.48-0.85,0.75c-3.01,3.1-6.83,4.71-10.87,5.91c-1.2,0.35-2.02,0.2-3.52-0.61c2.84,0.05,5.23-0.8,7.58-1.86
		c3.25-1.46,5.73-3.93,8.3-6.28c0.38-0.35,0.66-0.83,0.89-1.3c0.23-0.47,0.39-1-0.11-1.58c-0.35-0.07-0.79-0.2-1.23-0.25
		c-1.42-0.15-2.85-0.22-4.26-0.42c-6.03-0.84-11.41-3.47-16.78-6.12c-0.39-0.19-0.76-0.52-1-0.88c-0.24-0.35-0.36-0.84,0.09-1.02
		c1.08,0.62,2.02,1.23,3.01,1.73c1.22,0.61,2.48,1.14,3.73,1.69c4.59,2.05,9.32,3.5,14.39,3.88c4.32,0.33,8.62,0.23,12.94,0.06
		c0.12,0,0.23-0.15,0.35-0.23c0.02-0.07,0.07-0.15,0.05-0.21c-0.06-0.22-0.11-0.45-0.23-0.64c-1.55-2.53-3.24-4.95-5.46-6.95
		c-0.73-0.66-1.59-1.17-2.32-1.83c-3.95-3.62-8.36-6.52-13.23-8.72c-0.41-0.19-0.86-0.3-1.26-0.52c-0.51-0.28-0.99-0.62-1.94-1.23
		c0.95,0,1.4-0.13,1.74,0.02c2.99,1.29,5.95,2.66,8.75,4.36c3.19,1.93,5.69,4.74,8.7,6.91c0.55,0.4,1.01,0.92,1.5,1.4
		c0.32,0.32,0.66,0.64,0.93,1c1.08,1.47,2.13,2.94,3.19,4.43c0.52,0.73,1.01,1.48,1.44,2.12c5.46-0.9,10.74-1.78,15.26-5.19
		c-1.67-2.77-3.46-5.29-5.8-7.38c-1.3-1.16-2.58-2.35-3.92-3.46c-2.27-1.89-4.58-3.73-7.15-5.23c-2.1-1.22-4.21-2.42-6.3-3.65
		C76.43,110.27,75.97,109.89,75.36,109.46z M128.31,205.53c-1.64-1.23-3.16-2.48-4.78-3.57c-3.64-2.46-7.33-4.83-11-7.25
		c-1.97-1.3-4.05-2.37-6.26-3.18c-3.06-1.12-6.12-2.23-9.17-3.36c-0.59-0.22-1.24-0.42-1.64-1.02c0.63-0.44,1.13-0.07,1.61,0.05
		c1.47,0.38,2.93,0.79,4.36,1.28c4.52,1.55,9.02,3.14,12.91,6.05c0.6,0.45,1.3,0.92,2.35,1.07c-0.49-1.74-0.89-3.27-1.34-4.78
		c-0.23-0.8-0.5-1.59-0.81-2.36c-1.47-3.59-3.34-6.96-5.51-10.18c-0.67-0.99-1.39-1.96-1.95-3.3c0.47,0.05,0.82-0.03,0.96,0.11
		c0.37,0.37,0.67,0.82,0.95,1.27c1.03,1.67,1.97,3.41,3.09,5.03c1.52,2.2,2.6,4.62,3.59,7.07c1.1,2.73,1.86,5.58,2.49,8.35
		c1.26,0.89,2.44,1.7,3.6,2.55c1.65,1.21,3.2,2.59,4.95,3.63c1.85,1.1,3.46,2.45,5.09,3.8c0.7,0.58,1.37,1.21,2.11,1.74
		c0.32,0.23,0.77,0.26,1.23,0.4c0.42-1.48,0.72-2.82,0.63-4.19c-0.16-2.27-0.4-4.53-0.68-6.79c-0.16-1.27-0.3-2.58-0.71-3.79
		c-1.86-5.53-3.23-11.2-5.35-16.65c-1.1-2.82-1.97-5.74-2.77-8.65c-0.37-1.36-1.2-1.95-2.41-1.95c-0.95,0-1.79-0.25-2.64-0.53
		c-3.39-1.12-6.83-1.24-10.32-0.55c-0.82,0.16-1.64,0.33-2.47,0.38c-2.77,0.18-5.37,0.91-7.81,2.21c-0.6,0.32-1.21,0.63-1.82,0.93
		c-4.65,2.25-8.63,5.37-11.83,9.41c-2.35,2.97-4.52,6.07-6.21,9.49c-1.33,2.68-2.2,5.46-2.85,8.36c-0.73,3.27-0.88,6.6-1.09,9.93
		c-0.16,2.6,0.04,5.18,1.12,7.57c0.74,1.65,1.55,3.32,2.62,4.77c2.52,3.41,5.07,6.82,8.32,9.6c2.66,2.28,5.51,4.24,8.71,5.73
		c2.84,1.32,5.87,2.02,8.78,3.11c2.65,0.99,5.42,1.41,8.25,1.39c0.53,0,1.06,0.05,1.59,0.08c1.51,0.09,3.03,0.28,4.53,0.24
		c2.8-0.08,5.6-0.3,8.39-0.47c0.51-0.03,1.02-0.14,1.49-0.21c0.42-0.94,0.76-1.78,1.16-2.59c0.37-0.75,0.79-1.47,1.21-2.19
		c0.46-0.78,0.9-1.58,1.43-2.32c0.48-0.68,1.08-1.27,1.61-1.92c0.54-0.66,1.41-1.04,1.82-2.17c-3.72,1.06-7.2,2.1-10.85,2.27
		c-3.69,0.18-7.38,0.35-11.28,0c0.31-0.33,0.47-0.66,0.69-0.7c0.67-0.13,1.35-0.18,2.03-0.19c2.65-0.07,5.31,0.01,7.95-0.21
		c2.25-0.18,4.5-0.59,6.7-1.08c3.96-0.87,7.46-2.82,10.94-4.94c-0.18-1.87-0.91-3.49-2.22-4.84c-2.64-2.72-5.29-5.42-8.26-7.79
		c-1.3-1.03-2.59-2.06-3.82-3.04c-1.02,0.5-1.87,0.99-2.78,1.36c-1.96,0.8-3.9,1.56-5.71,2.73c-1.31,0.85-2.89,1.29-4.35,1.91
		c-1.96,0.84-4.04,1.29-6.1,1.78c-2.36,0.55-4.7,1.17-7.08,1.59c-3.19,0.57-6.35,0.16-9.44-0.72c-0.48-0.14-1.07-0.22-1.16-1.05
		c0.28-0.01,0.55-0.08,0.8-0.03c1.11,0.23,2.21,0.54,3.32,0.74c3.91,0.69,7.69-0.2,11.45-1.11c1.32-0.32,2.6-0.86,3.93-1.12
		c3.1-0.61,5.86-2.05,8.65-3.4c1.09-0.53,2.18-1.05,3.27-1.58C125.77,207.11,127.1,206.58,128.31,205.53z M82.11,35.77
		c1.12-0.66,1.54-1.48,2.05-2.21c0.66-0.92,1.31-1.86,2.02-2.75c2.51-3.15,5.51-5.84,8.41-8.62c1.86-1.78,3.93-3.32,6.18-4.61
		c0.31-0.18,0.62-0.08,0.75,0.23c0.07,0.17,0.01,0.45-0.09,0.63c-0.1,0.18-0.31,0.33-0.51,0.43c-3.12,1.66-5.64,4.07-8.11,6.53
		c-0.86,0.86-1.68,1.75-2.56,2.59c-1.66,1.57-3.14,3.29-4.49,5.13c-1.25,1.71-2.47,3.46-3.71,5.18c-1.96,2.7-3.82,5.46-5.38,8.42
		c-0.18,0.35-0.6,0.73-0.27,1.1c2.89-0.86,5.71-1.74,8.55-2.53c3.7-1.02,7.47-1.17,11.27-0.74c0.31,0.04,0.79-0.04,0.86,0.67
		c-0.66,0.04-1.31,0.11-1.96,0.09c-0.76-0.01-1.52-0.22-2.26-0.14c-2.86,0.32-5.74,0.52-8.51,1.33c-0.73,0.21-1.42,0.55-2.16,0.68
		c-1.59,0.28-3.05,0.9-4.46,1.63c-1.84,0.95-3.43,2.2-4.18,4.26c-0.23,0.64-0.59,1.23-0.94,1.82c-0.71,1.2-1.21,2.42-1.11,3.87
		c0.03,0.48-0.14,1.1-0.45,1.46c-1.15,1.3-1.87,2.74-1.88,4.5c0,0.22-0.07,0.45-0.15,0.66c-0.58,1.63-0.56,3.32-0.18,4.95
		c1.06,4.53,3.56,7.69,8.6,7.89c0.3,0.01,0.61-0.01,0.91,0.05c3.49,0.74,6.66-0.19,9.93-1.45c4.09-1.59,7.45-3.98,10.3-7.23
		c2.55-2.92,4.69-6.12,6.76-9.39c3-4.74,4.55-9.87,4.84-15.44c0.06-1.06,0.21-2.11,0.34-3.16c0.33-2.63,0.75-5.26,1-7.9
		c0.5-5.45-0.44-10.73-2.1-15.9c-1.12-3.48-2.57-6.77-5.01-9.6c-1.42-1.64-3-3.01-4.88-4.02c-3.21-1.73-6.56-1.53-9.93-0.54
		c-1.82,0.54-3.07,1.91-4.34,3.2c-3.17,3.2-5.57,6.97-7.93,10.78c-0.52,0.83-0.98,1.72-1.33,2.63c-0.95,2.48-2.04,4.89-3.1,7.32
		c-1.42,3.26-2.6,6.62-3.89,9.94c-0.39,1-0.59,2.02-0.64,3.1c-0.05,1.36-0.29,2.72-0.31,4.08c-0.02,1.43-0.04,2.9,0.24,4.28
		c0.47,2.29,1.14,4.55,2.58,6.61c1.03-2.04,2.06-4.02,3.05-6.03c1.85-3.74,3.98-7.31,6.48-10.66c0.35-0.47,0.7-0.97,0.64-1.65
		c-0.22-2.54,0.57-4.95,1.07-7.4c0.86-4.25,2.96-7.91,5.43-11.4c0.57-0.81,1.13-1.21,2.2-1.54C85.42,22.5,82.64,28.53,82.11,35.77z
		 M8.33,45.59c-1.4,1.43-2.29,2.91-2.9,4.54c-0.74,1.99-1.39,4.01-2.06,6.02c-1.13,3.39-2.05,6.83-2.2,10.42
		C1.1,68.23,1.1,69.9,1.13,71.56c0.04,1.97,0.06,3.94,0.28,5.9c0.28,2.51,1.2,4.87,2.4,7.06c1.29,2.35,3.07,4.31,5.5,5.59
		c0.53,0.28,1.03,0.64,1.52,1.01c3.74,2.87,8.06,4.51,12.56,5.65c1.9,0.48,3.87,0.73,5.87,0.58c2.04-0.15,4.09-0.23,6.13-0.35
		c1.83-0.11,3.67-0.38,5.29-1.22c2.89-1.5,5.69-3.17,8.49-4.84c1.3-0.78,2.58-1.62,3.74-2.59c2.79-2.33,5.51-4.75,8.24-7.15
		c0.68-0.6,1.34-1.25,1.91-1.95c0.96-1.17,1.92-2.35,2.74-3.62c1.34-2.07,2.2-4.29,1.7-6.86c-0.13-0.65-0.09-1.38,0.06-2.03
		c0.5-2.04,0.54-4.2,1.61-5.98c-2.21-3.85-3.69-5.18-8.52-4.72c-0.21,0.28-0.48,0.56-0.64,0.9c-0.4,0.81-0.79,1.64-1.13,2.48
		c-0.95,2.39-1.94,4.75-3.27,6.98c-1.39,2.34-2.53,4.82-3.8,7.23c-0.63,1.2-1.23,2.44-1.99,3.56c-1.27,1.88-2.65,3.69-4.01,5.52
		c-0.21,0.29-0.54,0.56-0.87,0.67c-0.56,0.2-1.05,0.07-1.13-0.64c0.59-0.48,1.23-0.88,1.72-1.41c2.28-2.47,4.07-5.26,5.49-8.32
		c1.12-2.4,2.3-4.79,3.61-7.08c1.29-2.25,2.39-4.56,3.27-6.99c0.23-0.64,0.52-1.26,0.76-1.9c0.12-0.32,0.17-0.65,0.3-1.16
		c-2.08,0.08-3.99-0.02-5.85,0.25c-4.19,0.61-8.36,1.38-12.52,2.16c-0.87,0.16-1.8,0.47-2.49,1c-1.57,1.19-2.87,2.7-3.88,4.39
		c-1.25,2.08-2.57,4.09-4.23,5.87c-0.36,0.38-0.66,0.83-0.97,1.25c-1.85,2.5-3.64,5.04-5.56,7.47c-1.07,1.36-2.12,2.77-3.63,3.72
		c-0.47,0.29-0.84,0.31-1.07-0.18c0.68-0.62,1.4-1.16,1.97-1.83c1.47-1.73,2.92-3.48,4.29-5.29c2-2.66,3.93-5.37,5.89-8.07
		c1.02-1.41,2.05-2.82,3.06-4.24c0.44-0.61,0.86-1.24,1.26-1.88c0.14-0.22,0.22-0.48,0.44-0.98c-3.31,0.57-6.38,1.09-9.23,2.32
		c-3.4,1.48-6.89,2.74-10.05,4.76c-2.67,1.71-5.47,3.22-7.7,5.54c-0.39,0.41-0.86,0.66-1.41,0.59c-0.25-0.03-0.49-0.25-0.82-0.43
		c0.26-0.35,0.39-0.64,0.61-0.81c1.99-1.5,4-2.98,6.01-4.47c0.24-0.18,0.46-0.45,0.74-0.52c2.1-0.5,3.82-1.79,5.72-2.7
		c3.35-1.59,6.69-3.24,10.34-4.09c2.21-0.52,4.45-0.92,6.66-1.45c3.61-0.85,7.22-1.72,10.89-2.26c0.26-0.04,0.63-0.03,0.6-0.54
		c-2.93-1.88-6.27-2.86-9.58-4.04c-2.06,1.19-4.35,1.81-6.67,2.07c-1.97,0.22-3.91,0.52-5.81,1.03c-3.86,1.05-7.4,0.15-10.67-1.81
		C12.46,51.05,10.09,48.81,8.33,45.59z M45.09,28.13c-1.29-0.49-2.32-0.97-3.41-1.29c-1.16-0.34-2.36-0.54-3.55-0.77
		c-1.56-0.3-3.13-0.57-4.69-0.83c-4.08-0.69-8.01-0.12-11.72,1.68c-2.38,1.16-4.58,2.61-6.66,4.3c-2.05,1.66-3.53,3.72-4.95,5.86
		c-0.56,0.84-0.8,1.74-0.68,2.79c0.12,1.04,0.07,2.12-0.02,3.17c-0.13,1.44,0.25,2.76,1.13,3.83c1.64,1.99,3.4,3.89,5.75,5.07
		c3.13,1.58,6.36,2.33,9.87,1.35c1.81-0.51,3.68-0.82,5.56-1.05c2.16-0.27,4.31-0.8,6.22-2c1.47-0.92,2.97-1.86,4.55-2.55
		c4.12-1.79,7.42-4.57,10.31-8.04c-0.38-0.6-1.02-0.86-1.57-1.24c-0.8-0.56-1.68-1.1-2.26-1.86c-1.42-1.87-2.49-3.96-3.16-6.23
		C45.62,29.6,45.35,28.9,45.09,28.13z M50.73,1.3c-0.2,0.27-0.47,0.54-0.63,0.86c-0.8,1.63-1.55,3.28-2.34,4.91
		c-1.3,2.68-1.81,5.6-2.55,8.46c-0.11,0.43-0.1,0.9-0.13,1.36c-0.23,4.11-0.08,8.18,1.45,12.07c0.72,1.83,1.46,3.66,2.31,5.42
		c0.74,1.54,2.01,2.65,3.48,3.49c2.02,1.15,3.92,0.48,4.74-1.67c0.13-0.35,0.23-0.72,0.33-1.08c0.69-2.57,0.91-5.2,1.24-7.83
		c0.33-2.61-0.09-5.14-0.53-7.67c-0.31-1.78-0.84-3.52-1.21-5.3c-0.52-2.52-1.08-5.03-2.25-7.35c-0.71-1.42-1.39-2.86-2.17-4.24
		C52.12,2.11,51.69,1.44,50.73,1.3z M149.53,183.6c-1.08-2.73-2.11-5.29-3.79-7.6c-2.92-4.02-6.66-6.77-11.4-8.2
		c-0.87-0.26-1.74-0.44-2.72-0.02c0.15,0.47,0.27,0.9,0.42,1.32c0.31,0.93,0.64,1.86,0.95,2.78c1.4,4.16,2.78,8.32,4.2,12.47
		c0.51,1.5,1.2,2.95,1.68,4.46c1.62,5.12,3.46,10.15,5.31,15.18c0.13,0.35,0.26,0.73,0.48,1.03c0.24,0.33,0.08,0.95,0.81,1
		C144.13,198.04,145.41,190.52,149.53,183.6z M121.6,155.07c0.58,1.16,1.15,2.31,1.72,3.45c0.44,0.88,0.98,1.73,1.3,2.65
		c1.6,4.65,3.13,9.33,4.69,13.99c0.26,0.79,0.53,1.58,0.79,2.37c0.97,2.95,1.89,5.92,2.91,8.85c1.05,3,1.7,6.12,2.99,9.05
		c1.13,2.56,2.17,5.17,3.18,7.78c0.62,1.62,1.07,3.31,1.65,4.95c0.52,1.5,1.17,2.96,1.65,4.47c0.46,1.44,0.76,2.93,1.17,4.39
		c0.18,0.66,0.44,1.29,0.68,1.93c0.25,0.67,0.35,1.42,0.93,2.16c0.83-1.11,1.65-1.98,1.4-3.24c-0.48-0.26-0.85-0.46-1.17-0.63
		c0.07-1.1,1.89-1.59,0.67-2.91c-0.52,0-1.08,0-1.63,0c-0.05-0.82,0.54-0.98,0.92-1.33c0.36-0.34,0.55-0.74,0.05-1.12
		c-0.36,0.13-0.71,0.31-1.07,0.37c-0.38,0.06-0.76-0.01-0.78-0.65c0.5-0.44,1.05-0.93,1.65-1.46c-0.17-0.32-0.31-0.57-0.48-0.89
		c-0.34,0.08-0.62,0.18-0.91,0.21c-0.27,0.02-0.55-0.04-1.06-0.08c0.55-0.84,0.97-1.49,1.55-2.39c-0.58,0.04-0.85,0.07-1.12,0.09
		c-0.35,0.03-0.7,0.05-1.03,0.08c-0.4-1.23,0.98-1.32,1.14-2.06c-0.53-0.79-1.63,0.4-1.96-0.72c0.24-0.69,1.3-1.05,0.82-2.15
		c-0.57-0.08-1.2-0.18-2.06-0.3c0.47-0.51,0.79-0.8,1.04-1.14c0.31-0.43,0.12-0.94-0.41-1.01c-0.44-0.06-0.93,0.09-1.12-0.5
		c0.36-0.42,0.72-0.83,1.06-1.23c-0.6-0.83-1.66,0.45-2-0.6c0.08-0.82,1.29-0.96,0.94-2.08c-0.61,0.09-1.23,0.19-1.94,0.3
		c0.03-0.39-0.03-0.66,0.07-0.8c0.27-0.35,0.62-0.64,0.94-0.96c0.29-0.3,0.36-0.65,0.19-1.04c-0.18-0.4-0.49-0.51-0.92-0.46
		c-0.26,0.03-0.53-0.06-0.85-0.11c0.91-1.8,0.91-1.8,0.55-2.51c-0.46-0.03-1.04,0.1-1.26-0.12c-0.48-0.47-0.16-0.96,0.32-1.32
		c0.06-0.04,0.1-0.11,0.14-0.18c0.3-0.48,0.16-0.91-0.34-1.06c-0.14-0.04-0.32,0.02-0.45-0.04c-0.32-0.16-0.77-0.29-0.89-0.57
		c-0.21-0.44,0.3-0.57,0.6-0.77c0.52-0.35,0.38-0.74-0.01-1.1c-0.48-0.24-0.98,0.57-1.49-0.12c-0.06-0.61,0.39-1.01,0.73-1.51
		c0.42-0.61,0.16-1.1-0.61-1.28c-0.28-0.06-0.56-0.11-0.96-0.18c0.3-0.65,0.55-1.19,0.77-1.73c0.04-0.11-0.06-0.28-0.09-0.42
		c-0.4-0.18-0.8-0.36-1.13-0.51c-0.03-0.19-0.05-0.26-0.04-0.33c0.02-0.15,0.04-0.3,0.1-0.44c0.42-1.01,0.42-1.01-0.66-1.66
		c-0.45-0.27-0.6-0.66-0.35-1.15c0.13-0.25,0.45-0.45,0.23-0.8c-0.14-0.05-0.26-0.11-0.4-0.14c-1.18-0.27-1.28-0.5-0.6-1.4
		c0.14-0.18,0.31-0.34,0.41-0.53c0.06-0.11,0.01-0.28,0.01-0.52c-0.46-0.14-0.94-0.29-1.57-0.48c0.31-0.66,0.58-1.22,0.88-1.87
		c-0.63-0.1-1.17-0.19-1.81-0.29c0.24-0.77,0.43-1.38,0.6-1.92c-0.19-0.15-0.24-0.22-0.31-0.24c-1.2-0.43-1.2-0.42-0.79-1.47
		c0.07-0.18,0.05-0.4,0.07-0.62c-0.59-0.22-1.12-0.43-1.52-0.58c-0.33-0.81,0.74-1.09,0.4-1.69c-0.5-0.36-1.19,0.12-1.55-0.67
		c0.22-0.35,0.48-0.76,0.83-1.31c-0.7-0.11-1.23-0.19-1.9-0.29c0.29-0.85,0.52-1.52,0.77-2.25c-0.58-0.21-1.04-0.38-1.43-0.52
		c-0.31-0.86,0.9-1.45,0.02-2.31c-0.33-0.24-1.16,0.48-1.42-0.56c0.15-0.26,0.32-0.59,0.53-0.9c0.2-0.29,0.26-0.58-0.08-0.74
		c-0.13-0.07-0.45,0.04-0.57,0.18C122.49,153.89,122.09,154.44,121.6,155.07z M40.19,50.29c0.79,0.42,1.16,0.65,1.56,0.84
		c1.92,0.88,3.85,1.73,5.76,2.63c0.89,0.41,1.73,0.93,2.63,1.33c0.4,0.18,0.89,0.3,1.31,0.23c2.47-0.44,4.97-0.3,7.45-0.49
		c1.29-0.1,2.55-0.19,3.83,0.05c0.33,0.06,0.76,0.15,0.98-0.28c-0.03-0.16,0-0.34-0.08-0.44c-2.08-2.69-4.13-5.4-6.27-8.04
		c-1.28-1.58-2.74-3-4.38-4.11c-0.86,0.05-1.33,0.51-1.74,1.09c-0.3,0.42-0.64,0.85-1.04,1.17c-2.35,1.92-4.88,3.56-7.67,4.79
		C41.86,49.36,41.22,49.75,40.19,50.29z M94.62,95.34c0.37-0.79,0.63-1.23,0.77-1.71c0.06-0.21-0.17-0.5-0.25-0.71
		c-0.7,0.06-1.17,0.79-1.79,0.21c-0.01-0.07-0.07-0.17-0.04-0.22c0.17-0.32,0.4-0.62,0.52-0.96c0.09-0.25,0.12-0.57,0.05-0.83
		c-0.1-0.38-0.46-0.26-0.76-0.28c-0.2-0.01-0.39-0.14-0.57-0.2c0.27-1.89,0.27-1.89-1.44-2.72c0.06-0.47,0.13-0.95,0.19-1.4
		c-0.57-0.26-1.02-0.47-1.45-0.67c0.15-0.55,0.27-0.97,0.41-1.49c-0.53-0.17-0.99-0.32-1.53-0.49c0.19-0.59,0.34-1.06,0.52-1.6
		c-0.47-0.22-0.87-0.39-1.28-0.58c0-0.23,0.01-0.45,0-0.66c-0.05-1.11-0.09-1.17-1.3-1.05c-0.47,0.05-0.65-0.15-0.92-0.45
		c-0.52-0.59-0.9-0.32-1.17,0.34c1.82,2.51,3.34,5.2,4.9,7.89c1.83,3.16,3.26,6.5,4.93,9.73c1.81,3.5,3.65,6.99,5.93,10.22
		c1.89,2.66,3.62,5.41,4.83,8.46c0.29,0.73,0.55,1.53,1.14,2.09c0.89-0.53,1.02-1.2,0.84-2.02c-0.13-0.58-0.65-0.53-1.02-0.74
		c-0.12-0.07-0.19-0.21-0.33-0.37c0.04-0.18,0.1-0.39,0.15-0.6c0.05-0.21,0.11-0.42,0.18-0.69c-0.33-0.31-0.76-0.55-0.96-0.92
		c-0.19-0.35-0.16-0.83-0.22-1.21c-0.57-0.17-1.04-0.31-1.5-0.44c0.13-0.63,0.24-1.11,0.34-1.6c-0.63-0.2-1.11-0.36-1.72-0.56
		c0.18-0.34,0.33-0.58,0.43-0.83c0.31-0.78,0.08-1.24-0.68-1.22c-0.46,0.01-0.9,0.17-1.28-0.4c0.32-0.42,0.66-0.87,0.89-1.17
		c-0.08-1.58-1.51-0.38-1.95-1.3c0.22-0.45,0.46-0.97,0.69-1.45c-0.16-0.15-0.21-0.22-0.27-0.24c-0.22-0.05-0.44-0.08-0.66-0.12
		c-0.89-0.18-1.07-0.46-0.76-1.18c0.09-0.2,0.28-0.36,0.37-0.57c0.27-0.64,0.06-0.92-0.82-1.2c-0.13-0.04-0.25-0.12-0.37-0.18
		c0-0.14-0.03-0.3,0.01-0.43c0.04-0.14,0.19-0.25,0.23-0.39c0.28-0.9,0.02-1.15-0.94-0.99c-0.32,0.05-0.67-0.04-1.15-0.09
		c0.27-0.5,0.41-0.85,0.62-1.15c0.24-0.33,0.44-0.69,0.08-0.99c-0.16-0.13-0.53,0-0.81,0.03C95.47,95.24,95.26,95.27,94.62,95.34z
		 M67.38,51.4c-0.24-1.75-0.49-2.93-0.55-4.12c-0.06-1.28,0.03-2.56,0.13-3.84c0.06-0.84-0.28-1.37-0.88-1.94
		c-1.78-1.72-3.95-2.76-6.21-3.62c-0.66-0.25-1.46-0.16-2.1-0.22c-0.5,0.59-0.88,1.04-1.35,1.61C60.06,43.11,63.21,47.33,67.38,51.4
		z M136.83,200.9c-0.04,3.09,0.36,6.19-0.68,9.1c1.79,1.83,3.47,3.55,5.17,5.25c0.16,0.16,0.4,0.47,0.79,0.1
		c-0.06-0.32-0.07-0.7-0.19-1.05c-0.72-2.06-1.45-4.12-2.2-6.18c-0.43-1.19-0.45-1.18-1.54-2.03c0.11-0.58,0.41-1.2,0.27-1.7
		C138.12,203.19,137.79,201.95,136.83,200.9z"/>
	<path class="st0" d="M172.62,178.59c-0.02-0.62,0.34-1.01,0.86-0.97c0.21,0.02,0.55,0.29,0.58,0.49c0.1,0.55-0.42,1.22-0.8,1.08
		C172.98,179.07,172.77,178.73,172.62,178.59z"/>
	<path class="st0" d="M191.12,254c0.44,0.79,0.27,1.36-0.1,1.91c-0.06,0.09-0.27,0.12-0.39,0.09c-0.12-0.02-0.29-0.15-0.3-0.25
		C190.25,255.07,190.51,254.53,191.12,254z"/>
	<path class="st0" d="M151.45,249.92c-0.29,0.3-0.48,0.59-0.75,0.73c-0.08,0.04-0.38-0.32-0.57-0.49c0.26-0.23,0.5-0.48,0.79-0.67
		C150.96,249.45,151.19,249.7,151.45,249.92z"/>
	<path class="st0" d="M153.46,239.53c-0.05,1.41-0.17,1.62-0.77,1.67c-0.12,0.01-0.3-0.08-0.38-0.18c-0.07-0.1-0.11-0.33-0.05-0.4
		C152.55,240.32,152.89,240.05,153.46,239.53z"/>
	<path class="st0" d="M151.44,257.88c-0.12,0.24-0.17,0.48-0.32,0.59c-0.2,0.15-0.47,0.22-0.72,0.27c-0.07,0.01-0.25-0.17-0.27-0.28
		c-0.07-0.47,0.3-0.6,0.65-0.67C150.97,257.76,151.19,257.84,151.44,257.88z"/>
	<path class="st0" d="M179.7,205.97c0.26,0.2,0.49,0.29,0.57,0.46c0.16,0.32-0.23,0.73-0.64,0.64c-0.17-0.04-0.45-0.32-0.42-0.4
		C179.3,206.43,179.51,206.23,179.7,205.97z"/>
	<path class="st0" d="M143.71,234.82c0.27,0.37,0.49,0.56,0.53,0.78c0.03,0.13-0.24,0.47-0.33,0.45c-0.23-0.04-0.57-0.19-0.61-0.36
		C143.26,235.51,143.5,235.25,143.71,234.82z"/>
	<path class="st0" d="M143.56,242.9c0.36-0.18,0.65-0.34,0.95-0.44c0.04-0.01,0.28,0.32,0.28,0.49c-0.01,0.37-0.47,0.69-0.75,0.53
		C143.87,243.39,143.77,243.17,143.56,242.9z"/>
	<path class="st0" d="M171.53,223.39c0.1-0.62,0.36-0.88,0.89-0.62c0.16,0.08,0.32,0.33,0.31,0.49c-0.01,0.13-0.27,0.35-0.42,0.35
		C172.04,223.61,171.78,223.47,171.53,223.39z"/>
	<path class="st0" d="M172.44,207.59c0.38-0.31,0.58-0.61,0.75-0.59c0.22,0.02,0.4,0.3,0.61,0.47c-0.14,0.15-0.27,0.43-0.42,0.44
		C173.15,207.93,172.91,207.76,172.44,207.59z"/>
	<path class="st0" d="M173.06,235.6c0.3-0.28,0.45-0.53,0.58-0.52c0.24,0.02,0.47,0.19,0.7,0.3c-0.12,0.16-0.23,0.43-0.37,0.45
		C173.73,235.85,173.48,235.72,173.06,235.6z"/>
	<path class="st0" d="M190.43,229.39c0.15,0.32,0.32,0.56,0.34,0.8c0.01,0.13-0.25,0.37-0.42,0.39c-0.37,0.05-0.69-0.42-0.51-0.74
		C189.93,229.69,190.15,229.6,190.43,229.39z"/>
	<path class="st0" d="M192.31,176.6c0.28-0.26,0.42-0.45,0.6-0.52c0.33-0.13,0.61,0.03,0.66,0.37c0.03,0.17-0.13,0.38-0.2,0.57
		C193.05,176.89,192.74,176.77,192.31,176.6z"/>
	<path class="st0" d="M197.53,235.49c-0.24,0.12-0.47,0.32-0.58,0.27c-0.21-0.11-0.48-0.35-0.49-0.54c0-0.18,0.31-0.37,0.48-0.55
		C197.09,234.87,197.23,235.08,197.53,235.49z"/>
	<path class="st0" d="M199.31,179.66c0.16,0.28,0.34,0.49,0.38,0.73c0.01,0.08-0.38,0.35-0.45,0.31c-0.2-0.12-0.34-0.36-0.5-0.55
		C198.89,180.01,199.05,179.88,199.31,179.66z"/>
	<path class="st0" d="M201.97,205.22c0.06,0.18,0.22,0.44,0.16,0.49c-0.18,0.18-0.43,0.32-0.67,0.42c-0.08,0.03-0.33-0.12-0.33-0.19
		c0-0.18,0.04-0.41,0.16-0.51C201.44,205.3,201.69,205.3,201.97,205.22z"/>
	<path class="st0" d="M201.79,192.38c0.39-0.23,0.65-0.42,0.94-0.52c0.06-0.02,0.36,0.38,0.33,0.42c-0.16,0.21-0.37,0.43-0.61,0.53
		C202.35,192.85,202.13,192.61,201.79,192.38z"/>
	<path class="st0" d="M213.54,220.89c-0.21,0.27-0.31,0.5-0.47,0.57c-0.35,0.17-0.83-0.15-0.77-0.51c0.03-0.17,0.28-0.42,0.41-0.41
		C212.97,220.56,213.21,220.74,213.54,220.89z"/>
	<path class="st0" d="M221.48,208.59c-0.29,0.21-0.52,0.44-0.58,0.4c-0.21-0.14-0.43-0.35-0.52-0.58c-0.05-0.11,0.16-0.33,0.25-0.51
		C220.89,208.11,221.13,208.31,221.48,208.59z"/>
	<path class="st0" d="M165.07,221.95c0.14,0.38,0.28,0.62,0.3,0.87c0.01,0.08-0.31,0.27-0.46,0.25c-0.33-0.04-0.52-0.3-0.4-0.63
		C164.57,222.29,164.79,222.19,165.07,221.95z"/>
	<path class="st0" d="M150.6,222.18c0.29-0.15,0.51-0.34,0.74-0.36c0.1-0.01,0.38,0.39,0.34,0.45c-0.15,0.22-0.39,0.37-0.59,0.55
		C150.95,222.65,150.83,222.48,150.6,222.18z"/>
	<path class="st0" d="M164.44,199.36c0.16,0.35,0.31,0.53,0.31,0.72c0.01,0.18-0.1,0.41-0.23,0.53c-0.2,0.18-0.58-0.1-0.54-0.42
		C164.01,200.02,164.16,199.86,164.44,199.36z"/>
	<path class="st0" d="M150.07,197.86c0.12-0.27,0.17-0.39,0.23-0.52c0.23,0.13,0.47,0.25,0.69,0.39c0.01,0.01-0.12,0.3-0.16,0.3
		C150.58,198.01,150.34,197.93,150.07,197.86z"/>
	<path class="st0" d="M156.5,240.67c-0.27,0.11-0.47,0.26-0.61,0.22c-0.16-0.04-0.27-0.25-0.41-0.39c0.15-0.11,0.33-0.32,0.46-0.29
		C156.11,240.24,156.25,240.45,156.5,240.67z"/>
	<path class="st0" d="M202.21,244.9c0.33-0.19,0.52-0.38,0.64-0.34c0.22,0.06,0.39,0.26,0.59,0.4c-0.14,0.13-0.3,0.39-0.42,0.37
		C202.79,245.3,202.58,245.11,202.21,244.9z"/>
	<path class="st0" d="M155.11,229.67c0.16,0.21,0.38,0.37,0.37,0.53c-0.01,0.16-0.24,0.3-0.38,0.46c-0.14-0.15-0.39-0.3-0.4-0.46
		C154.69,230.05,154.94,229.88,155.11,229.67z"/>
	<path class="st0" d="M211.08,200.43c0.28,0.3,0.55,0.51,0.52,0.58c-0.1,0.22-0.31,0.4-0.47,0.59c-0.1-0.1-0.29-0.2-0.28-0.28
		C210.86,201.08,210.97,200.84,211.08,200.43z"/>
	<path class="st0" d="M171.91,177.71c-0.32-0.24-0.59-0.35-0.59-0.46c0-0.24,0.15-0.47,0.23-0.7c0.17,0.1,0.46,0.17,0.5,0.31
		C172.1,177.06,171.98,177.32,171.91,177.71z"/>
	<path class="st0" d="M165.89,179.61c-0.28,0.18-0.5,0.42-0.64,0.38c-0.22-0.06-0.39-0.31-0.58-0.49c0.17-0.12,0.34-0.34,0.52-0.34
		C165.35,179.16,165.53,179.37,165.89,179.61z"/>
	<path class="st0" d="M162.69,174.39c0.16,0.26,0.34,0.43,0.32,0.58c-0.02,0.12-0.29,0.3-0.42,0.29c-0.13-0.01-0.33-0.26-0.32-0.39
		C162.28,174.73,162.49,174.6,162.69,174.39z"/>
	<path class="st0" d="M161.75,245.87c0.3-0.08,0.55-0.23,0.64-0.16c0.12,0.09,0.14,0.35,0.16,0.54c0,0.03-0.27,0.15-0.34,0.11
		C162.05,246.27,161.95,246.1,161.75,245.87z"/>
	<path class="st0" d="M157.63,257.04c0.21-0.22,0.33-0.39,0.49-0.48c0.07-0.04,0.34,0.11,0.34,0.17c0,0.18-0.09,0.36-0.14,0.54
		C158.12,257.21,157.93,257.14,157.63,257.04z"/>
	<path class="st0" d="M157.19,206.69c0.12-0.15,0.23-0.35,0.27-0.33c0.17,0.06,0.33,0.18,0.49,0.28c-0.11,0.14-0.22,0.27-0.33,0.41
		C157.47,206.92,157.33,206.81,157.19,206.69z"/>
	<path class="st0" d="M154.78,183.6c-0.1,0.07-0.2,0.14-0.3,0.21c-0.09-0.15-0.17-0.31-0.26-0.46c0.13-0.04,0.29-0.14,0.38-0.1
		C154.69,183.29,154.72,183.47,154.78,183.6z"/>
	<path class="st0" d="M148.65,227.82c-0.25,0.13-0.45,0.31-0.57,0.27c-0.15-0.04-0.24-0.28-0.35-0.43c0.16-0.12,0.31-0.33,0.47-0.32
		C148.32,227.34,148.45,227.59,148.65,227.82z"/>
	<path class="st0" d="M191.72,208.64c0.19,0.46,0.31,0.65,0.35,0.85c0.02,0.1-0.1,0.32-0.15,0.31c-0.19-0.01-0.37-0.09-0.56-0.15
		C191.42,209.48,191.49,209.29,191.72,208.64z"/>
	<path class="st0" d="M137.98,238.95c-0.21,0.03-0.39,0.09-0.57,0.06c-0.07-0.01-0.11-0.21-0.16-0.33c0.18-0.06,0.35-0.15,0.54-0.16
		C137.83,238.52,137.9,238.76,137.98,238.95z"/>
	<path class="st0" d="M184.07,214.54c-0.35-0.72-0.52-0.92-0.48-1.03c0.06-0.15,0.28-0.24,0.43-0.36c0.11,0.14,0.3,0.28,0.31,0.43
		C184.36,213.79,184.24,214.01,184.07,214.54z"/>
	<path class="st0" d="M155.49,191.36c0.15,0.2,0.35,0.36,0.34,0.51c-0.01,0.16-0.19,0.37-0.35,0.44c-0.26,0.12-0.59-0.23-0.47-0.49
		C155.09,191.65,155.29,191.55,155.49,191.36z"/>
	<path class="st0" d="M179.01,244.29c0.21,0.18,0.44,0.29,0.47,0.43c0.02,0.13-0.17,0.31-0.27,0.46c-0.17-0.11-0.4-0.19-0.48-0.34
		C178.69,244.75,178.88,244.53,179.01,244.29z"/>
	<path class="st0" d="M176.94,194.28c0.07,0.24,0.15,0.47,0.19,0.7c0.01,0.04-0.3,0.17-0.31,0.15c-0.15-0.2-0.27-0.43-0.39-0.64
		C176.55,194.43,176.67,194.39,176.94,194.28z"/>
	<path class="st0" d="M134.45,245.32c0.14,0.29,0.32,0.53,0.27,0.59c-0.12,0.15-0.34,0.23-0.53,0.28c-0.03,0.01-0.23-0.26-0.19-0.35
		C134.06,245.69,134.23,245.57,134.45,245.32z"/>
	<path class="st0" d="M186.51,200.39c0.07,0.19,0.23,0.41,0.18,0.55c-0.05,0.13-0.33,0.17-0.5,0.25c-0.04-0.2-0.12-0.4-0.11-0.59
		C186.08,200.53,186.31,200.47,186.51,200.39z"/>
	<path class="st0" d="M184.46,177c-0.3,0.14-0.51,0.31-0.65,0.27c-0.13-0.04-0.2-0.31-0.24-0.49c-0.01-0.04,0.25-0.22,0.34-0.19
		C184.08,176.65,184.22,176.81,184.46,177z"/>
	<path class="st0" d="M141.81,252.69c0.12,0.15,0.29,0.31,0.27,0.34c-0.12,0.16-0.28,0.29-0.43,0.43c-0.12-0.15-0.23-0.3-0.35-0.44
		C141.47,252.9,141.64,252.79,141.81,252.69z"/>
	<path class="st0" d="M176.95,210.55c0.11,0.15,0.26,0.32,0.23,0.35c-0.1,0.13-0.25,0.25-0.4,0.32c-0.04,0.02-0.24-0.2-0.23-0.21
		C176.67,210.85,176.81,210.71,176.95,210.55z"/>
	<path class="st0" d="M172.39,170.43c-0.29,0.16-0.43,0.28-0.59,0.31c-0.1,0.01-0.22-0.13-0.33-0.2c0.11-0.15,0.2-0.37,0.35-0.43
		C171.91,170.06,172.11,170.26,172.39,170.43z"/>
	<path class="st0" d="M183.33,206.86c0.09,0.09,0.18,0.19,0.27,0.28c-0.14,0.12-0.28,0.24-0.41,0.36c-0.06-0.13-0.18-0.27-0.16-0.39
		C183.04,207.01,183.22,206.94,183.33,206.86z"/>
	<path class="st0" d="M161.87,186.9c-0.1,0.06-0.21,0.12-0.31,0.18c-0.07-0.14-0.15-0.27-0.22-0.41c0.11-0.04,0.26-0.13,0.33-0.09
		C161.77,186.63,161.81,186.78,161.87,186.9z"/>
	<path class="st0" d="M171,258.54c0.11,0.12,0.23,0.25,0.35,0.38c-0.11,0.07-0.24,0.23-0.31,0.2c-0.15-0.06-0.27-0.21-0.41-0.32
		C170.74,258.73,170.85,258.65,171,258.54z"/>
	<path class="st0" d="M179.25,172.35c0.02,0.13,0.03,0.26,0.05,0.4c-0.11-0.03-0.23-0.03-0.33-0.08c-0.04-0.02-0.07-0.18-0.06-0.19
		C179.02,172.42,179.14,172.39,179.25,172.35z"/>
	<path class="st0" d="M211.3,187.69c0.06,0.2,0.13,0.38,0.15,0.55c0,0.03-0.23,0.08-0.36,0.12c-0.04-0.13-0.13-0.27-0.11-0.39
		C211,187.88,211.15,187.82,211.3,187.69z"/>
	<path class="st0" d="M158.45,261.39c0.12,0.06,0.24,0.12,0.36,0.18c-0.12,0.1-0.23,0.25-0.36,0.29c-0.07,0.02-0.2-0.15-0.3-0.23
		C158.25,261.55,158.35,261.47,158.45,261.39z"/>
	<path class="st0" d="M184.56,184.01c0.05,0.08,0.11,0.17,0.16,0.25c-0.12,0.02-0.25,0.05-0.37,0.05c-0.05,0-0.09-0.09-0.14-0.14
		C184.33,184.11,184.44,184.06,184.56,184.01z"/>
	<path class="st0" d="M169.43,192.13c0.11,0.08,0.22,0.16,0.33,0.24c-0.18,0.09-0.36,0.18-0.54,0.26c-0.04-0.12-0.15-0.26-0.11-0.34
		C169.15,192.21,169.32,192.19,169.43,192.13z"/>
	<path class="st0" d="M142.11,245.06c0.06,0.09,0.12,0.18,0.17,0.27c-0.13,0.03-0.25,0.08-0.38,0.08c-0.04,0-0.09-0.11-0.13-0.17
		C141.88,245.18,141.99,245.12,142.11,245.06z"/>
	<path class="st0" d="M109.83,111.32c0.24,0.41,0.46,0.63,0.49,0.88c0.06,0.46-0.45,0.78-0.95,0.64c-0.35-0.1-0.51-0.4-0.36-0.69
		C109.15,111.87,109.45,111.68,109.83,111.32z"/>
	<path class="st0" d="M139.62,110.36c-0.51,0.17-0.89,0.32-1.28,0.41c-0.19,0.04-0.4-0.04-0.63-0.07
		C138.31,109.78,138.51,109.73,139.62,110.36z"/>
	<path class="st0" d="M128.51,97.79c0.23,0.34,0.4,0.54,0.48,0.77c0.02,0.05-0.31,0.32-0.42,0.29c-0.17-0.04-0.37-0.25-0.42-0.42
		C128.12,98.31,128.31,98.12,128.51,97.79z"/>
	<path class="st0" d="M129.4,67.41c0.39-0.23,0.62-0.44,0.71-0.39c0.21,0.12,0.36,0.36,0.53,0.55c-0.12,0.08-0.26,0.23-0.36,0.21
		C130.04,67.73,129.82,67.6,129.4,67.41z"/>
	<path class="st0" d="M143.99,103.25c0.16,0.34,0.33,0.57,0.35,0.82c0.01,0.09-0.32,0.3-0.49,0.3c-0.37,0-0.52-0.29-0.41-0.61
		C143.49,103.6,143.71,103.49,143.99,103.25z"/>
	<path class="st0" d="M131.19,92.66c0.38-0.19,0.59-0.38,0.69-0.33c0.21,0.1,0.36,0.32,0.53,0.5c-0.11,0.07-0.24,0.23-0.33,0.2
		C131.84,92.98,131.61,92.85,131.19,92.66z"/>
	<path class="st0" d="M128.51,124.94c0.07,0.27,0.2,0.49,0.14,0.62c-0.13,0.28-0.41,0.4-0.66,0.14c-0.1-0.1-0.13-0.38-0.06-0.49
		C128.03,125.08,128.26,125.05,128.51,124.94z"/>
	<path class="st0" d="M150.51,76.42c0.36,0.39,0.5,0.54,0.64,0.69c-0.16,0.14-0.32,0.37-0.48,0.38c-0.15,0-0.42-0.22-0.44-0.38
		C150.2,76.93,150.38,76.71,150.51,76.42z"/>
	<path class="st0" d="M150.1,86.47c0.27,0.14,0.48,0.18,0.5,0.27c0.09,0.34-0.11,0.55-0.44,0.58c-0.12,0.01-0.36-0.16-0.36-0.18
		C149.87,86.91,149.99,86.69,150.1,86.47z"/>
	<path class="st0" d="M123.25,96.87c-0.27,0.23-0.5,0.49-0.55,0.46c-0.21-0.13-0.37-0.35-0.55-0.54c0.14-0.13,0.32-0.4,0.42-0.37
		C122.79,96.46,122.97,96.67,123.25,96.87z"/>
	<path class="st0" d="M149.16,111.66c-0.2,0.32-0.33,0.63-0.39,0.62c-0.23-0.05-0.47-0.18-0.63-0.35c-0.05-0.05,0.14-0.46,0.23-0.47
		C148.59,111.44,148.82,111.57,149.16,111.66z"/>
	<path class="st0" d="M122.78,138.15c-0.41,0.15-0.69,0.31-0.73,0.26c-0.17-0.19-0.26-0.45-0.38-0.69c0.13-0.06,0.3-0.2,0.37-0.16
		C122.25,137.68,122.42,137.86,122.78,138.15z"/>
	<path class="st0" d="M120.72,71.66c-0.2-0.15-0.46-0.27-0.46-0.38c0-0.23,0.15-0.45,0.24-0.67c0.19,0.17,0.43,0.3,0.56,0.51
		C121.1,71.19,120.87,71.43,120.72,71.66z"/>
	<path class="st0" d="M144.89,106.37c-0.16,0.22-0.24,0.33-0.32,0.44c-0.19-0.18-0.39-0.34-0.54-0.55
		c-0.02-0.03,0.23-0.25,0.35-0.39C144.55,106.04,144.73,106.21,144.89,106.37z"/>
	<path class="st0" d="M140.84,62.32c0.16,0.19,0.32,0.4,0.49,0.6c-0.16,0.1-0.32,0.3-0.48,0.3c-0.34,0-0.51-0.26-0.44-0.59
		C140.43,62.53,140.62,62.48,140.84,62.32z"/>
	<path class="st0" d="M114.9,96.04c-0.25,0.18-0.4,0.37-0.56,0.38c-0.34,0.02-0.57-0.22-0.51-0.55c0.02-0.12,0.35-0.26,0.53-0.25
		C114.52,95.64,114.66,95.85,114.9,96.04z"/>
	<path class="st0" d="M115.19,120.98c-0.27,0.08-0.47,0.21-0.66,0.18c-0.17-0.03-0.35-0.2-0.46-0.35c-0.04-0.06,0.06-0.33,0.14-0.35
		c0.18-0.05,0.43-0.08,0.58,0C114.94,120.54,115.03,120.76,115.19,120.98z"/>
	<path class="st0" d="M120.88,103c-0.18,0.21-0.3,0.36-0.43,0.51c-0.16-0.14-0.4-0.26-0.44-0.43c-0.03-0.12,0.19-0.42,0.34-0.44
		C120.49,102.62,120.66,102.84,120.88,103z"/>
	<path class="st0" d="M137.44,56.44c-0.24,0.19-0.39,0.32-0.55,0.44c-0.12-0.15-0.35-0.32-0.32-0.44c0.04-0.17,0.24-0.37,0.41-0.41
		C137.08,56.01,137.25,56.26,137.44,56.44z"/>
	<path class="st0" d="M135.18,77.98c0.27-0.27,0.43-0.5,0.65-0.6c0.14-0.06,0.43,0.02,0.56,0.14c0.18,0.17-0.14,0.66-0.52,0.72
		C135.7,78.26,135.51,78.11,135.18,77.98z"/>
	<path class="st0" d="M135.82,103.24c-0.58-0.06-0.91-0.05-1.19-0.14c-0.09-0.03-0.16-0.4-0.09-0.53c0.07-0.12,0.4-0.21,0.51-0.14
		C135.28,102.57,135.43,102.82,135.82,103.24z"/>
	<path class="st0" d="M133.23,83.88c0.2,0.18,0.36,0.31,0.52,0.45c-0.17,0.19-0.35,0.39-0.52,0.58c-0.15-0.16-0.4-0.32-0.41-0.49
		C132.81,84.27,133.06,84.09,133.23,83.88z"/>
	<path class="st0" d="M144.4,89.18c0.17,0.13,0.33,0.2,0.36,0.3c0.08,0.25-0.35,0.6-0.56,0.47c-0.1-0.06-0.21-0.28-0.17-0.36
		C144.11,89.43,144.28,89.31,144.4,89.18z"/>
	<path class="st0" d="M104.74,102.33c0.16,0.27,0.35,0.46,0.32,0.59c-0.04,0.14-0.28,0.23-0.44,0.35c-0.11-0.15-0.3-0.3-0.3-0.45
		C104.32,102.68,104.54,102.55,104.74,102.33z"/>
	<path class="st0" d="M122.29,90.13c0.14,0.29,0.22,0.48,0.3,0.66c-0.19,0.06-0.37,0.15-0.56,0.15c-0.07,0-0.23-0.26-0.2-0.32
		C121.91,90.45,122.08,90.34,122.29,90.13z"/>
	<path class="st0" d="M106.17,91.27c-0.27,0.2-0.43,0.31-0.58,0.43c-0.11-0.16-0.24-0.3-0.3-0.47c-0.02-0.05,0.19-0.26,0.27-0.25
		C105.73,91,105.89,91.12,106.17,91.27z"/>
	<path class="st0" d="M106.71,133.81c-0.21-0.19-0.37-0.3-0.46-0.46c-0.03-0.06,0.11-0.32,0.17-0.32c0.2,0,0.4,0.08,0.6,0.13
		C106.92,133.34,106.84,133.53,106.71,133.81z"/>
	<path class="st0" d="M107.11,108.44c-0.14,0.17-0.23,0.26-0.31,0.36c-0.14-0.13-0.3-0.25-0.42-0.4c-0.01-0.02,0.2-0.29,0.25-0.27
		C106.8,108.2,106.94,108.33,107.11,108.44z"/>
	<path class="st0" d="M107.62,100.86c-0.22,0.21-0.34,0.42-0.49,0.44c-0.13,0.01-0.29-0.19-0.44-0.3c0.11-0.13,0.21-0.35,0.34-0.38
		C107.18,100.6,107.36,100.75,107.62,100.86z"/>
	<path class="st0" d="M107.87,95.02c0.11,0.18,0.31,0.36,0.28,0.48c-0.05,0.17-0.26,0.29-0.4,0.44c-0.16-0.2-0.32-0.41-0.48-0.61
		C107.45,95.24,107.63,95.14,107.87,95.02z"/>
	<path class="st0" d="M108.41,105.89c0.15,0.3,0.24,0.47,0.32,0.63c-0.18,0.09-0.35,0.2-0.55,0.25c-0.03,0.01-0.21-0.26-0.18-0.36
		C108.04,106.26,108.21,106.14,108.41,105.89z"/>
	<path class="st0" d="M109.3,80.47c0.29-0.14,0.46-0.23,0.63-0.31c0.09,0.18,0.2,0.36,0.25,0.55c0.01,0.05-0.24,0.24-0.31,0.21
		C109.7,80.84,109.56,80.68,109.3,80.47z"/>
	<path class="st0" d="M114.96,104.44c0.09-0.19,0.16-0.42,0.21-0.42c0.16,0.01,0.34,0.09,0.47,0.19c0.03,0.03-0.08,0.35-0.13,0.35
		C115.34,104.56,115.16,104.49,114.96,104.44z"/>
	<path class="st0" d="M115.42,76.32c0.11,0.25,0.27,0.43,0.23,0.55c-0.05,0.15-0.27,0.23-0.41,0.35c-0.1-0.15-0.31-0.31-0.29-0.44
		C114.98,76.64,115.2,76.53,115.42,76.32z"/>
	<path class="st0" d="M116.5,69.26c0.19,0.1,0.3,0.17,0.41,0.23c-0.1,0.15-0.18,0.31-0.32,0.42c-0.04,0.03-0.32-0.13-0.31-0.16
		C116.33,69.58,116.42,69.43,116.5,69.26z"/>
	<path class="st0" d="M117.63,96.58c-0.25,0.12-0.43,0.3-0.55,0.26c-0.15-0.05-0.23-0.27-0.34-0.42c0.14-0.11,0.3-0.32,0.43-0.3
		C117.31,96.14,117.43,96.37,117.63,96.58z"/>
	<path class="st0" d="M120.1,127.44c-0.55,0.28-0.74,0.45-0.87,0.42c-0.14-0.04-0.31-0.28-0.31-0.43c0-0.11,0.26-0.3,0.41-0.3
		C119.52,127.12,119.71,127.27,120.1,127.44z"/>
	<path class="st0" d="M119.69,105.77c0.12,0.18,0.23,0.36,0.35,0.54c-0.13,0.07-0.31,0.23-0.38,0.19c-0.15-0.09-0.24-0.27-0.36-0.42
		C119.41,105.99,119.53,105.9,119.69,105.77z"/>
	<path class="st0" d="M120.63,84.81c-0.12,0.04-0.29,0.16-0.35,0.11c-0.1-0.07-0.12-0.24-0.17-0.37c0.13-0.05,0.25-0.1,0.38-0.15
		C120.53,84.54,120.58,84.67,120.63,84.81z"/>
	<path class="st0" d="M120.25,117.96c0.3-0.14,0.54-0.33,0.62-0.28c0.15,0.09,0.21,0.33,0.28,0.52c0.01,0.02-0.24,0.2-0.33,0.17
		C120.65,118.31,120.52,118.16,120.25,117.96z"/>
	<path class="st0" d="M143.4,75.22c0.11-0.16,0.19-0.27,0.27-0.39c0.19,0.17,0.37,0.34,0.56,0.51c-0.16,0.1-0.34,0.3-0.49,0.28
		C143.61,75.61,143.5,75.36,143.4,75.22z"/>
	<path class="st0" d="M153.07,115.6c0.08,0.17,0.19,0.33,0.22,0.51c0.01,0.04-0.31,0.21-0.34,0.19c-0.14-0.14-0.23-0.32-0.33-0.48
		C152.74,115.76,152.86,115.7,153.07,115.6z"/>
	<path class="st0" d="M151.78,103.68c-0.21-0.19-0.37-0.3-0.46-0.45c-0.04-0.06,0.1-0.32,0.15-0.32c0.19,0.01,0.39,0.08,0.58,0.14
		C151.97,103.22,151.9,103.39,151.78,103.68z"/>
	<path class="st0" d="M125.05,71.17c0.41-0.18,0.61-0.36,0.75-0.31c0.16,0.05,0.29,0.28,0.35,0.46c0.03,0.07-0.19,0.33-0.23,0.31
		C125.69,71.55,125.47,71.41,125.05,71.17z"/>
	<path class="st0" d="M137.14,87.32c-0.22,0.2-0.35,0.42-0.5,0.43c-0.14,0.01-0.4-0.19-0.42-0.32c-0.02-0.14,0.17-0.41,0.3-0.43
		C136.68,86.98,136.87,87.17,137.14,87.32z"/>
	<path class="st0" d="M134.75,91.03c0.1,0.15,0.3,0.31,0.28,0.45c-0.01,0.12-0.26,0.21-0.41,0.32c-0.09-0.17-0.19-0.34-0.25-0.53
		C134.37,91.23,134.58,91.13,134.75,91.03z"/>
	<path class="st0" d="M135.18,131.39c-0.21,0.04-0.4,0.11-0.58,0.1c-0.05,0-0.15-0.33-0.13-0.34c0.15-0.09,0.33-0.17,0.5-0.18
		C135.03,130.96,135.09,131.2,135.18,131.39z"/>
	<path class="st0" d="M147.22,85.37c-0.2-0.21-0.33-0.35-0.47-0.5c0.15-0.13,0.29-0.35,0.46-0.37c0.12-0.01,0.37,0.23,0.38,0.37
		C147.6,85,147.38,85.16,147.22,85.37z"/>
	<path class="st0" d="M134.91,62.97c-0.33,0.11-0.5,0.2-0.67,0.2c-0.06,0-0.19-0.2-0.18-0.31c0.01-0.1,0.18-0.29,0.22-0.28
		C134.46,62.65,134.61,62.77,134.91,62.97z"/>
	<path class="st0" d="M132.53,112.32c-0.2,0.03-0.38,0.09-0.55,0.06c-0.07-0.01-0.1-0.22-0.16-0.34c0.17-0.06,0.35-0.15,0.52-0.17
		C132.38,111.86,132.45,112.1,132.53,112.32z"/>
	<path class="st0" d="M129.73,140.5c-0.08-0.1-0.17-0.2-0.25-0.31c0.15-0.09,0.3-0.19,0.45-0.28c0.05,0.12,0.17,0.28,0.14,0.37
		C130.03,140.38,129.85,140.43,129.73,140.5z"/>
	<path class="st0" d="M129.38,89.77c-0.19-0.36-0.3-0.57-0.41-0.78c0.17-0.08,0.36-0.24,0.51-0.21c0.14,0.03,0.31,0.26,0.32,0.41
		C129.82,89.32,129.62,89.47,129.38,89.77z"/>
	<path class="st0" d="M126.98,110.28c-0.19,0.04-0.38,0.13-0.54,0.1c-0.07-0.01-0.11-0.24-0.17-0.37c0.17-0.06,0.33-0.15,0.51-0.16
		C126.83,109.85,126.89,110.08,126.98,110.28z"/>
	<path class="st0" d="M124.56,61.9c0.2,0.12,0.32,0.18,0.44,0.25c-0.1,0.15-0.2,0.31-0.31,0.46c-0.11-0.07-0.3-0.15-0.3-0.22
		C124.39,62.24,124.49,62.08,124.56,61.9z"/>
	<path class="st0" d="M134.76,125.66c0.09,0.08,0.18,0.16,0.27,0.23c-0.15,0.1-0.29,0.2-0.44,0.3c-0.05-0.12-0.14-0.25-0.12-0.36
		C134.49,125.76,134.66,125.72,134.76,125.66z"/>
	<path class="st0" d="M116.52,108.41c-0.15,0.14-0.28,0.31-0.32,0.29c-0.16-0.08-0.3-0.2-0.41-0.34c-0.02-0.03,0.19-0.3,0.2-0.29
		C116.17,108.15,116.33,108.27,116.52,108.41z"/>
	<path class="st0" d="M105.17,95.9c-0.1,0.08-0.2,0.15-0.3,0.23c-0.1-0.15-0.2-0.31-0.3-0.46c0.14-0.05,0.29-0.15,0.4-0.12
		C105.07,95.58,105.11,95.78,105.17,95.9z"/>
	<path class="st0" d="M107.29,125.38c-0.2-0.09-0.32-0.15-0.44-0.21c0.1-0.15,0.18-0.32,0.32-0.42c0.06-0.04,0.23,0.09,0.35,0.14
		C107.44,125.05,107.37,125.21,107.29,125.38z"/>
	<path class="st0" d="M111.93,137.68c0.2,0.25,0.32,0.39,0.43,0.53c-0.11,0.07-0.21,0.19-0.32,0.2c-0.12,0.01-0.25-0.08-0.37-0.13
		C111.73,138.13,111.8,137.97,111.93,137.68z"/>
	<path class="st0" d="M123.86,78.44c0.03,0.2,0.08,0.37,0.08,0.54c0,0.02-0.27,0.1-0.34,0.05c-0.08-0.07-0.13-0.25-0.1-0.36
		C123.52,78.59,123.69,78.54,123.86,78.44z"/>
	<path class="st0" d="M117.1,86.96c0.03,0.2,0.11,0.38,0.08,0.54c-0.02,0.09-0.22,0.14-0.34,0.21c-0.06-0.17-0.16-0.35-0.17-0.52
		C116.66,87.14,116.88,87.07,117.1,86.96z"/>
	<path class="st0" d="M118.08,142.58c0.09-0.08,0.25-0.24,0.26-0.23c0.14,0.12,0.26,0.27,0.38,0.41c-0.13,0.04-0.27,0.13-0.39,0.11
		C118.25,142.85,118.18,142.7,118.08,142.58z"/>
	<path class="st0" d="M120.55,79.28c-0.15,0.15-0.29,0.33-0.33,0.31c-0.16-0.08-0.31-0.2-0.42-0.34c-0.02-0.03,0.19-0.31,0.22-0.3
		C120.2,79.02,120.36,79.15,120.55,79.28z"/>
	<path class="st0" d="M141.71,98.69c0.09,0.1,0.18,0.19,0.27,0.29c-0.15,0.08-0.3,0.15-0.46,0.23c-0.05-0.12-0.17-0.26-0.14-0.36
		C141.4,98.77,141.59,98.74,141.71,98.69z"/>
	<path class="st0" d="M154.1,95.46c0.08-0.09,0.16-0.17,0.24-0.26c0.08,0.09,0.16,0.18,0.22,0.28c0.01,0.02-0.11,0.15-0.14,0.14
		C154.31,95.6,154.21,95.52,154.1,95.46z"/>
	<path class="st0" d="M143.76,125.29c0.14,0.17,0.28,0.32,0.39,0.49c0.01,0.02-0.21,0.24-0.24,0.23c-0.16-0.09-0.31-0.22-0.43-0.36
		C143.47,125.62,143.63,125.45,143.76,125.29z"/>
	<path class="st0" d="M123.13,102.83c0.09,0.17,0.21,0.32,0.25,0.49c0.01,0.06-0.16,0.17-0.25,0.26c-0.14-0.15-0.28-0.3-0.42-0.46
		C122.83,103.04,122.94,102.97,123.13,102.83z"/>
	<path class="st0" d="M135.95,68.66c0.21,0.11,0.34,0.18,0.47,0.24c-0.12,0.16-0.22,0.33-0.36,0.46c-0.02,0.02-0.3-0.14-0.3-0.2
		C135.77,68.99,135.88,68.83,135.95,68.66z"/>
	<path class="st0" d="M146.85,65.36c0.09,0.16,0.18,0.32,0.27,0.48c-0.12,0.06-0.29,0.19-0.34,0.16c-0.15-0.1-0.25-0.27-0.37-0.42
		C146.53,65.52,146.66,65.46,146.85,65.36z"/>
	<path class="st0" d="M129.95,105.38c0.12-0.07,0.24-0.2,0.36-0.2c0.12,0,0.23,0.14,0.34,0.23c-0.12,0.07-0.24,0.2-0.35,0.2
		C130.18,105.6,130.06,105.46,129.95,105.38z"/>
	<path class="st0" d="M140.75,72.83c0.04,0.09,0.08,0.18,0.12,0.27c-0.12,0.01-0.23,0.03-0.35,0.02c-0.03,0-0.05-0.1-0.08-0.16
		C140.54,72.92,140.64,72.87,140.75,72.83z"/>
	<path class="st0" d="M68.28,141.14c-0.56-0.04-0.87,0.03-1.06-0.1c-0.29-0.19-0.5-0.5-0.71-0.79c-0.05-0.07,0.03-0.33,0.12-0.38
		c0.17-0.1,0.5-0.22,0.56-0.14C67.53,140.09,67.8,140.5,68.28,141.14z"/>
	<path class="st0" d="M106.77,156.87c0.16,0.37,0.27,0.55,0.32,0.75c0.12,0.45-0.17,0.7-0.54,0.73c-0.19,0.01-0.41-0.27-0.61-0.42
		C106.13,157.67,106.33,157.42,106.77,156.87z"/>
	<path class="st0" d="M89.52,108.45c0.04,0.47,0.11,0.83,0.07,1.16c-0.02,0.15-0.29,0.36-0.45,0.37c-0.13,0.01-0.36-0.25-0.38-0.41
		C88.7,109.1,88.88,108.72,89.52,108.45z"/>
	<path class="st0" d="M118.37,152.35c0.27-0.23,0.44-0.45,0.66-0.53c0.1-0.03,0.44,0.29,0.42,0.34c-0.11,0.23-0.28,0.45-0.48,0.6
		C118.93,152.8,118.67,152.56,118.37,152.35z"/>
	<path class="st0" d="M51.16,113.32c-0.22-0.54-0.43-0.82-0.38-1.03c0.06-0.22,0.37-0.37,0.57-0.54c0.14,0.15,0.41,0.34,0.38,0.46
		C51.66,112.5,51.45,112.77,51.16,113.32z"/>
	<path class="st0" d="M72.96,157.53c0.25,0.3,0.46,0.5,0.61,0.74c0.06,0.1,0.06,0.38,0.02,0.39c-0.18,0.07-0.46,0.16-0.58,0.08
		c-0.22-0.16-0.39-0.42-0.48-0.67C72.49,157.96,72.75,157.77,72.96,157.53z"/>
	<path class="st0" d="M61.14,121.97c0.14,0.02,0.3,0.02,0.43,0.08c0.11,0.06,0.23,0.19,0.23,0.3c0.01,0.12-0.09,0.33-0.18,0.35
		c-0.26,0.08-0.56,0.16-0.82,0.11c-0.14-0.02-0.27-0.29-0.33-0.47c-0.02-0.07,0.14-0.24,0.25-0.29
		C60.83,121.99,60.99,121.99,61.14,121.97z"/>
	<path class="st0" d="M100.08,150.65c0.12,0.29,0.24,0.49,0.26,0.69c0.03,0.34-0.17,0.58-0.51,0.51c-0.16-0.03-0.38-0.29-0.37-0.43
		C99.47,151.26,99.7,151.1,100.08,150.65z"/>
	<path class="st0" d="M100.63,122.35c0.15,0.29,0.36,0.51,0.31,0.66c-0.08,0.23-0.29,0.54-0.5,0.58c-0.16,0.03-0.39-0.28-0.59-0.45
		C100.04,122.95,100.23,122.76,100.63,122.35z"/>
	<path class="st0" d="M103.39,146.45c0.13,0.35,0.29,0.65,0.24,0.69c-0.19,0.16-0.45,0.28-0.69,0.32c-0.06,0.01-0.3-0.41-0.25-0.48
		C102.84,146.79,103.09,146.67,103.39,146.45z"/>
	<path class="st0" d="M60.66,139.64c-0.27,0.21-0.46,0.42-0.69,0.49c-0.08,0.03-0.36-0.26-0.39-0.43c-0.05-0.31,0.12-0.61,0.48-0.57
		C60.23,139.15,60.37,139.39,60.66,139.64z"/>
	<path class="st0" d="M67.91,150.37c-0.31,0.18-0.56,0.4-0.64,0.35c-0.21-0.12-0.34-0.37-0.5-0.56c0.16-0.12,0.37-0.38,0.47-0.34
		C67.47,149.9,67.64,150.13,67.91,150.37z"/>
	<path class="st0" d="M77.91,120.31c0.35-0.24,0.6-0.44,0.88-0.56c0.05-0.02,0.34,0.27,0.34,0.42c0.02,0.41-0.22,0.68-0.65,0.6
		C78.32,120.75,78.18,120.54,77.91,120.31z"/>
	<path class="st0" d="M83.99,138.86c0.23,0.32,0.5,0.56,0.46,0.64c-0.12,0.22-0.37,0.38-0.57,0.56c-0.13-0.16-0.38-0.34-0.36-0.46
		C83.57,139.37,83.78,139.17,83.99,138.86z"/>
	<path class="st0" d="M89.54,160.7c0.27,0.23,0.54,0.36,0.54,0.48c0,0.25-0.1,0.54-0.26,0.73c-0.16,0.18-0.6-0.09-0.57-0.4
		C89.26,161.27,89.4,161.05,89.54,160.7z"/>
	<path class="st0" d="M101.95,125.98c-0.27,0.24-0.44,0.48-0.66,0.55c-0.13,0.05-0.43-0.12-0.52-0.27
		c-0.19-0.32,0.17-0.82,0.54-0.75C101.5,125.55,101.65,125.75,101.95,125.98z"/>
	<path class="st0" d="M97.14,155.23c0.18,0.31,0.37,0.48,0.36,0.65c-0.01,0.28-0.09,0.63-0.5,0.52c-0.16-0.05-0.41-0.33-0.38-0.43
		C96.69,155.73,96.91,155.54,97.14,155.23z"/>
	<path class="st0" d="M45.84,120.61c0.33-0.21,0.47-0.38,0.63-0.4c0.32-0.04,0.57,0.14,0.53,0.48c-0.02,0.14-0.28,0.37-0.39,0.35
		C46.39,121.01,46.19,120.82,45.84,120.61z"/>
	<path class="st0" d="M48.21,139.89c0.05-0.23,0.04-0.43,0.13-0.49c0.21-0.15,0.47-0.25,0.7-0.36c0.01,0.27,0.06,0.54,0.02,0.8
		c-0.01,0.1-0.22,0.24-0.34,0.24C48.55,140.07,48.38,139.96,48.21,139.89z"/>
	<path class="st0" d="M52.09,148.17c-0.21,0.23-0.36,0.46-0.58,0.57c-0.08,0.04-0.39-0.16-0.45-0.31c-0.13-0.3,0.25-0.79,0.56-0.74
		C51.77,147.72,51.88,147.95,52.09,148.17z"/>
	<path class="st0" d="M53.22,139.66c0.16-0.21,0.27-0.37,0.39-0.52c0.18,0.17,0.37,0.34,0.55,0.52c-0.14,0.13-0.28,0.36-0.43,0.37
		C53.59,140.03,53.43,139.82,53.22,139.66z"/>
	<path class="st0" d="M59.23,128.22c-0.17,0.22-0.27,0.47-0.41,0.5c-0.15,0.03-0.42-0.12-0.5-0.26c-0.17-0.29,0.07-0.69,0.34-0.63
		C58.85,127.88,59,128.06,59.23,128.22z"/>
	<path class="st0" d="M62.32,108.93c-0.49,0.26-0.7,0.46-0.86,0.43c-0.24-0.04-0.46-0.24-0.69-0.38c0.13-0.16,0.26-0.44,0.4-0.45
		C61.4,108.53,61.64,108.69,62.32,108.93z"/>
	<path class="st0" d="M69.88,147.66c0.15,0.33,0.34,0.6,0.29,0.65c-0.17,0.16-0.4,0.26-0.63,0.35c-0.02,0.01-0.22-0.25-0.19-0.31
		C69.46,148.13,69.64,147.95,69.88,147.66z"/>
	<path class="st0" d="M74.43,141.35c0.26-0.14,0.43-0.27,0.62-0.33c0.28-0.1,0.59,0.2,0.48,0.47c-0.07,0.16-0.29,0.33-0.44,0.34
		C74.94,141.84,74.78,141.63,74.43,141.35z"/>
	<path class="st0" d="M77.09,147.87c-0.22,0.13-0.43,0.26-0.66,0.35c-0.03,0.01-0.21-0.21-0.22-0.32c-0.02-0.36,0.24-0.51,0.56-0.48
		C76.86,147.42,76.93,147.63,77.09,147.87z"/>
	<path class="st0" d="M77.12,142.15c-0.18,0.24-0.27,0.44-0.43,0.53c-0.25,0.14-0.69-0.14-0.61-0.37c0.06-0.17,0.26-0.35,0.43-0.4
		C76.67,141.88,76.86,142.04,77.12,142.15z"/>
	<path class="st0" d="M79.23,159.77c-0.45-0.06-0.76-0.1-1.08-0.14c0.06-0.19,0.07-0.49,0.18-0.54
		C78.8,158.88,78.99,159.21,79.23,159.77z"/>
	<path class="st0" d="M79.03,133.04c0.19,0.32,0.32,0.54,0.45,0.76c-0.17,0.1-0.36,0.3-0.49,0.26c-0.18-0.05-0.39-0.27-0.42-0.44
		C78.54,133.49,78.79,133.32,79.03,133.04z"/>
	<path class="st0" d="M83.52,148.52c0.12,0.27,0.3,0.48,0.25,0.6c-0.06,0.15-0.31,0.22-0.48,0.32c-0.09-0.16-0.27-0.35-0.24-0.49
		C83.08,148.8,83.31,148.7,83.52,148.52z"/>
	<path class="st0" d="M84.69,121.02c0.18,0.29,0.37,0.45,0.36,0.6c-0.02,0.35-0.31,0.46-0.6,0.38c-0.15-0.04-0.37-0.33-0.35-0.37
		C84.23,121.43,84.43,121.27,84.69,121.02z"/>
	<path class="st0" d="M84.49,144.2c0.17-0.21,0.26-0.42,0.42-0.5c0.26-0.14,0.72,0.15,0.63,0.38c-0.06,0.17-0.27,0.37-0.44,0.4
		C84.94,144.51,84.75,144.33,84.49,144.2z"/>
	<path class="st0" d="M85.22,130.24c-0.14-0.5,0.21-0.59,0.45-0.67c0.14-0.04,0.34,0.11,0.51,0.18c-0.15,0.21-0.27,0.48-0.48,0.62
		C85.61,130.44,85.36,130.28,85.22,130.24z"/>
	<path class="st0" d="M88.21,147.49c0.11,0.25,0.28,0.45,0.24,0.57c-0.05,0.14-0.3,0.32-0.44,0.3c-0.12-0.01-0.32-0.3-0.3-0.42
		C87.74,147.79,87.98,147.69,88.21,147.49z"/>
	<path class="st0" d="M87.93,125.66c0.38-0.07,0.64-0.18,0.86-0.15c0.12,0.02,0.2,0.29,0.3,0.45c-0.23,0.1-0.46,0.26-0.7,0.27
		C88.28,126.25,88.16,125.97,87.93,125.66z"/>
	<path class="st0" d="M89.87,115.59c0.2,0.19,0.39,0.3,0.47,0.46c0.13,0.27-0.16,0.66-0.42,0.57c-0.17-0.06-0.38-0.28-0.39-0.44
		C89.51,116.02,89.72,115.84,89.87,115.59z"/>
	<path class="st0" d="M90.43,154.95c0.33-0.2,0.55-0.32,0.76-0.45c0.09,0.17,0.29,0.37,0.26,0.51c-0.04,0.16-0.27,0.35-0.44,0.38
		C90.88,155.41,90.72,155.18,90.43,154.95z"/>
	<path class="st0" d="M91.81,142.91c0.34,0.48,0.55,0.67,0.61,0.9c0.04,0.13-0.15,0.44-0.27,0.45c-0.15,0.02-0.45-0.14-0.48-0.26
		C91.61,143.76,91.72,143.5,91.81,142.91z"/>
	<path class="st0" d="M92.83,126.18c-0.24,0.16-0.42,0.36-0.55,0.34c-0.14-0.02-0.35-0.28-0.34-0.42c0.01-0.14,0.26-0.36,0.4-0.36
		C92.49,125.75,92.63,125.98,92.83,126.18z"/>
	<path class="st0" d="M96,116.67c0.21,0.26,0.46,0.48,0.42,0.56c-0.1,0.23-0.33,0.4-0.5,0.6c-0.17-0.19-0.47-0.38-0.47-0.58
		C95.45,117.08,95.77,116.9,96,116.67z"/>
	<path class="st0" d="M97.14,119.58c0.51-0.37,0.71-0.55,0.94-0.65c0.04-0.02,0.34,0.34,0.3,0.4c-0.13,0.22-0.31,0.44-0.53,0.54
		C97.73,119.92,97.49,119.74,97.14,119.58z"/>
	<path class="st0" d="M70.63,100.7c0.16,0.24,0.37,0.43,0.34,0.56c-0.04,0.15-0.29,0.33-0.44,0.33c-0.12,0-0.33-0.27-0.32-0.41
		C70.21,101.02,70.44,100.89,70.63,100.7z"/>
	<path class="st0" d="M112.07,150.51c-0.41,0.07-0.65,0.16-0.89,0.13c-0.07-0.01-0.21-0.38-0.15-0.45c0.11-0.13,0.35-0.25,0.51-0.22
		C111.69,150,111.8,150.22,112.07,150.51z"/>
	<path class="st0" d="M114.16,154.59c0.34-0.25,0.53-0.44,0.75-0.54c0.05-0.02,0.34,0.3,0.33,0.44c-0.02,0.17-0.23,0.39-0.4,0.44
		C114.71,154.97,114.52,154.78,114.16,154.59z"/>
	<path class="st0" d="M61.22,153.6c0.07,0.38,0.19,0.62,0.12,0.74c-0.09,0.15-0.36,0.3-0.51,0.27c-0.14-0.03-0.36-0.4-0.32-0.44
		C60.66,153.97,60.89,153.84,61.22,153.6z"/>
	<path class="st0" d="M63.28,141.32c0.22-0.16,0.37-0.35,0.55-0.38c0.4-0.07,0.48,0.25,0.4,0.53c-0.04,0.13-0.32,0.3-0.46,0.28
		C63.6,141.72,63.47,141.5,63.28,141.32z"/>
	<path class="st0" d="M66.06,137.68c-0.26,0.13-0.45,0.31-0.59,0.27c-0.13-0.03-0.31-0.29-0.29-0.43c0.02-0.13,0.28-0.34,0.4-0.32
		C65.74,137.24,65.86,137.46,66.06,137.68z"/>
	<path class="st0" d="M65.91,100.59c0.31-0.14,0.54-0.32,0.62-0.27c0.15,0.1,0.21,0.34,0.31,0.51c-0.13,0.06-0.28,0.21-0.38,0.18
		C66.3,100.96,66.18,100.8,65.91,100.59z"/>
	<path class="st0" d="M68.46,125.11c0.15,0.22,0.34,0.37,0.35,0.53c0.03,0.4-0.29,0.49-0.58,0.41c-0.13-0.04-0.29-0.34-0.26-0.49
		C68,125.41,68.24,125.3,68.46,125.11z"/>
	<path class="st0" d="M68.82,111.94c0.21,0.22,0.38,0.33,0.45,0.49c0.04,0.08-0.11,0.35-0.15,0.34c-0.2-0.02-0.39-0.1-0.59-0.16
		C68.61,112.42,68.69,112.24,68.82,111.94z"/>
	<path class="st0" d="M71.82,132.05c0.08,0.28,0.13,0.47,0.19,0.66c-0.19,0.04-0.39,0.11-0.58,0.11c-0.05,0-0.16-0.27-0.13-0.32
		C71.42,132.35,71.6,132.24,71.82,132.05z"/>
	<path class="st0" d="M75.49,133.06c0.19,0.09,0.41,0.18,0.41,0.21c-0.05,0.18-0.15,0.35-0.24,0.52c-0.16-0.08-0.31-0.16-0.47-0.24
		C75.3,133.38,75.4,133.22,75.49,133.06z"/>
	<path class="st0" d="M75.31,129.88c0.21-0.22,0.36-0.38,0.5-0.53c0.14,0.14,0.37,0.26,0.4,0.42c0.02,0.11-0.21,0.36-0.35,0.39
		C75.71,130.19,75.53,130.01,75.31,129.88z"/>
	<path class="st0" d="M75.21,115.76c0.31-0.14,0.51-0.3,0.66-0.26c0.13,0.04,0.2,0.29,0.3,0.45c-0.13,0.06-0.27,0.19-0.38,0.16
		C75.62,116.08,75.48,115.94,75.21,115.76z"/>
	<path class="st0" d="M80.2,139.78c0.15,0.28,0.24,0.45,0.33,0.62c-0.18,0.09-0.36,0.2-0.55,0.24c-0.04,0.01-0.22-0.24-0.2-0.32
		C79.85,140.16,80.01,140.03,80.2,139.78z"/>
	<path class="st0" d="M105.41,148.81c0.14,0.27,0.31,0.45,0.3,0.61c-0.01,0.12-0.31,0.32-0.41,0.29c-0.15-0.06-0.33-0.28-0.33-0.44
		C104.97,149.15,105.21,149.01,105.41,148.81z"/>
	<path class="st0" d="M87.67,143.55c0.29,0.31,0.55,0.55,0.53,0.58c-0.15,0.21-0.36,0.38-0.56,0.56c-0.09-0.1-0.27-0.21-0.26-0.3
		C87.42,144.16,87.53,143.93,87.67,143.55z"/>
	<path class="st0" d="M87.84,130.09c0.16,0.29,0.34,0.47,0.31,0.62c-0.02,0.13-0.27,0.23-0.41,0.34c-0.1-0.15-0.27-0.3-0.28-0.46
		C87.46,130.45,87.66,130.32,87.84,130.09z"/>
	<path class="st0" d="M88.46,139.9c0.2,0.15,0.45,0.24,0.49,0.38c0.1,0.38-0.22,0.49-0.5,0.47c-0.14-0.01-0.38-0.24-0.37-0.37
		C88.09,140.24,88.3,140.09,88.46,139.9z"/>
	<path class="st0" d="M90.66,131.87c-0.18,0.05-0.34,0.15-0.5,0.14c-0.07,0-0.14-0.2-0.2-0.32c0.16-0.1,0.33-0.2,0.49-0.29
		C90.51,131.52,90.56,131.65,90.66,131.87z"/>
	<path class="st0" d="M90.05,99.98c0.22,0.21,0.38,0.31,0.46,0.46c0.03,0.07-0.12,0.33-0.17,0.33c-0.18-0.02-0.42-0.07-0.49-0.19
		C89.8,100.48,89.95,100.26,90.05,99.98z"/>
	<path class="st0" d="M93.09,138.24c0.11,0.29,0.28,0.54,0.22,0.63c-0.1,0.14-0.34,0.2-0.53,0.22c-0.05,0.01-0.22-0.27-0.18-0.35
		C92.68,138.58,92.86,138.47,93.09,138.24z"/>
	<path class="st0" d="M93.57,111c0.38-0.16,0.58-0.3,0.76-0.29c0.15,0.01,0.39,0.2,0.4,0.32c0.01,0.14-0.17,0.4-0.3,0.43
		C94.3,111.48,94.12,111.3,93.57,111z"/>
	<path class="st0" d="M94.75,136.61c-0.16-0.29-0.36-0.48-0.33-0.63c0.02-0.14,0.28-0.24,0.43-0.36c0.11,0.15,0.31,0.31,0.31,0.46
		C95.16,136.23,94.94,136.37,94.75,136.61z"/>
	<path class="st0" d="M95.39,128.79c0.12,0.24,0.29,0.43,0.26,0.54c-0.04,0.14-0.27,0.31-0.41,0.3c-0.11,0-0.32-0.27-0.3-0.38
		C94.96,129.11,95.17,128.99,95.39,128.79z"/>
	<path class="st0" d="M96.68,144.71c-0.22,0.2-0.35,0.42-0.49,0.41c-0.15,0-0.31-0.19-0.46-0.3c0.12-0.14,0.21-0.38,0.35-0.4
		C96.23,144.39,96.41,144.56,96.68,144.71z"/>
	<path class="st0" d="M98.55,114.03c0.16,0.21,0.38,0.37,0.36,0.51c-0.02,0.15-0.26,0.39-0.38,0.38c-0.16-0.02-0.3-0.25-0.45-0.38
		C98.22,114.38,98.36,114.24,98.55,114.03z"/>
	<path class="st0" d="M98.83,160.26c0.14,0.32,0.33,0.56,0.27,0.65c-0.09,0.14-0.34,0.19-0.53,0.25c-0.02,0.01-0.18-0.25-0.15-0.35
		C98.48,160.65,98.63,160.52,98.83,160.26z"/>
	<path class="st0" d="M99.55,141.86c0.19,0.21,0.3,0.35,0.42,0.48c-0.15,0.11-0.29,0.25-0.46,0.31c-0.06,0.02-0.29-0.18-0.27-0.24
		C99.28,142.24,99.4,142.09,99.55,141.86z"/>
	<path class="st0" d="M100.15,145.83c0.09,0.18,0.19,0.35,0.23,0.52c0.01,0.04-0.3,0.21-0.33,0.18c-0.12-0.11-0.22-0.28-0.27-0.44
		C99.77,146.06,99.98,145.95,100.15,145.83z"/>
	<path class="st0" d="M99.34,137.08c0.39-0.17,0.57-0.32,0.74-0.3c0.16,0.02,0.3,0.22,0.45,0.34c-0.12,0.13-0.22,0.34-0.35,0.36
		C100.04,137.49,99.87,137.34,99.34,137.08z"/>
	<path class="st0" d="M101.27,115.58c0.09-0.19,0.15-0.42,0.2-0.42c0.18,0.01,0.36,0.1,0.54,0.16c-0.05,0.13-0.1,0.35-0.16,0.36
		C101.66,115.7,101.47,115.63,101.27,115.58z"/>
	<path class="st0" d="M103.49,120.44c-0.16,0.24-0.24,0.46-0.4,0.56c-0.24,0.15-0.64-0.16-0.57-0.43c0.04-0.16,0.23-0.37,0.39-0.39
		C103.06,120.16,103.25,120.33,103.49,120.44z"/>
	<path class="st0" d="M103.93,154.89c0.25,0.57,0.42,0.77,0.37,0.9c-0.05,0.15-0.29,0.24-0.45,0.36c-0.11-0.15-0.3-0.3-0.3-0.45
		C103.57,155.51,103.73,155.31,103.93,154.89z"/>
	<path class="st0" d="M107.79,153.11c0.21-0.12,0.36-0.22,0.52-0.32c0.09,0.17,0.26,0.37,0.23,0.52c-0.03,0.14-0.27,0.25-0.41,0.37
		C108.03,153.51,107.93,153.35,107.79,153.11z"/>
	<path class="st0" d="M43.42,127.11c0.16,0.25,0.28,0.39,0.32,0.55c0.02,0.08-0.17,0.29-0.22,0.28c-0.18-0.04-0.33-0.16-0.5-0.25
		C43.12,127.53,43.23,127.38,43.42,127.11z"/>
	<path class="st0" d="M53.01,118.72c-0.32,0.13-0.54,0.29-0.63,0.23c-0.14-0.09-0.2-0.32-0.29-0.49c0.12-0.06,0.27-0.2,0.37-0.17
		C52.61,118.35,52.74,118.5,53.01,118.72z"/>
	<path class="st0" d="M94.82,152.95c0.08,0.09,0.16,0.18,0.24,0.27c-0.16,0.09-0.32,0.17-0.48,0.26c-0.04-0.12-0.15-0.28-0.11-0.36
		C94.51,153.03,94.7,153,94.82,152.95z"/>
	<path class="st0" d="M95.34,149.46c-0.09-0.1-0.18-0.19-0.27-0.29c0.15-0.1,0.3-0.21,0.44-0.31c0.05,0.13,0.15,0.27,0.12,0.38
		C95.62,149.34,95.45,149.39,95.34,149.46z"/>
	<path class="st0" d="M81.67,102.83c0.1,0.09,0.2,0.17,0.31,0.25c-0.1,0.09-0.23,0.28-0.28,0.26c-0.15-0.06-0.26-0.21-0.38-0.32
		C81.43,102.96,81.55,102.89,81.67,102.83z"/>
	<path class="st0" d="M93.04,128.86c0.05,0.09,0.1,0.19,0.15,0.28c-0.13,0.02-0.26,0.06-0.38,0.05c-0.05,0-0.09-0.1-0.14-0.16
		C92.79,128.98,92.92,128.92,93.04,128.86z"/>
	<path class="st0" d="M84.87,106.69c0.1-0.08,0.24-0.24,0.3-0.22c0.13,0.05,0.23,0.2,0.34,0.31c-0.11,0.05-0.23,0.15-0.33,0.14
		C85.06,106.9,84.97,106.77,84.87,106.69z"/>
	<path class="st0" d="M110,155.61c0.08,0.09,0.17,0.19,0.25,0.28c-0.09,0.08-0.17,0.16-0.26,0.22c-0.02,0.01-0.15-0.09-0.15-0.12
		C109.87,155.86,109.94,155.74,110,155.61z"/>
	<path class="st0" d="M93.43,200.8c-0.08,0.47-0.13,0.96-0.26,1.42c-0.04,0.13-0.37,0.28-0.51,0.24c-0.15-0.05-0.36-0.36-0.31-0.48
		c0.16-0.45,0.41-0.87,0.63-1.3C93.12,200.72,93.27,200.76,93.43,200.8z"/>
	<path class="st0" d="M116.23,219.87c-0.09-0.1-0.27-0.24-0.25-0.3c0.12-0.33,0.28-0.65,0.47-0.95c0.05-0.07,0.25-0.04,0.39-0.06
		c-0.07,0.41-0.12,0.82-0.22,1.23C116.6,219.84,116.36,219.84,116.23,219.87z"/>
	<path class="st0" d="M130.83,200.15c0.31,0.4,0.61,0.6,0.6,0.8c-0.01,0.23-0.27,0.46-0.43,0.68c-0.2-0.18-0.52-0.33-0.57-0.54
		C130.39,200.89,130.62,200.62,130.83,200.15z"/>
	<path class="st0" d="M133.15,224.56c0.27,1.1,0.2,1.46-0.32,1.75c-0.09,0.05-0.29-0.02-0.4-0.1c-0.1-0.08-0.22-0.29-0.18-0.35
		C132.5,225.45,132.8,225.06,133.15,224.56z"/>
	<path class="st0" d="M106.28,229.16c0.38,0.03,0.68-0.01,0.9,0.1c0.14,0.07,0.19,0.37,0.21,0.58c0.01,0.11-0.17,0.33-0.24,0.32
		c-0.2-0.02-0.44-0.09-0.57-0.23C106.44,229.78,106.41,229.53,106.28,229.16z"/>
	<path class="st0" d="M141.26,220.7c0.31-0.3,0.47-0.56,0.71-0.66c0.32-0.13,0.65,0.28,0.64,0.71c-0.01,0.37-0.26,0.57-0.58,0.49
		C141.79,221.18,141.59,220.94,141.26,220.7z"/>
	<path class="st0" d="M131.71,232.06c-0.32,0.23-0.55,0.49-0.62,0.45c-0.24-0.13-0.47-0.34-0.6-0.57c-0.04-0.08,0.21-0.33,0.34-0.5
		C131.08,231.62,131.34,231.8,131.71,232.06z"/>
	<path class="st0" d="M93.54,217.51c0.31,0.37,0.47,0.57,0.64,0.77c-0.21,0.18-0.41,0.4-0.65,0.5c-0.09,0.03-0.44-0.26-0.43-0.38
		C93.12,218.16,93.32,217.94,93.54,217.51z"/>
	<path class="st0" d="M126.79,218.23c0.22,0.14,0.41,0.19,0.44,0.28c0.12,0.4-0.06,0.69-0.45,0.82c-0.09,0.03-0.34-0.16-0.34-0.19
		C126.53,218.84,126.66,218.55,126.79,218.23z"/>
	<path class="st0" d="M86.61,210.73c-0.52,0.11-0.81,0.27-0.99,0.18c-0.21-0.11-0.33-0.41-0.49-0.63c0.24-0.08,0.5-0.27,0.71-0.23
		C86.05,210.09,86.22,210.36,86.61,210.73z"/>
	<path class="st0" d="M121.65,211.74c0.2-0.16,0.39-0.38,0.63-0.47c0.17-0.07,0.41,0.01,0.6,0.08c0.05,0.02,0.08,0.34,0.02,0.38
		c-0.29,0.18-0.61,0.32-0.94,0.44C121.93,212.18,121.81,211.97,121.65,211.74z"/>
	<path class="st0" d="M123.27,191.13c-0.4,0.24-0.68,0.43-0.98,0.56c-0.09,0.04-0.36-0.06-0.37-0.13c-0.04-0.18-0.05-0.46,0.06-0.55
		c0.2-0.17,0.49-0.3,0.75-0.33C122.85,190.67,123.01,190.91,123.27,191.13z"/>
	<path class="st0" d="M122.22,216.22c0.2,0.04,0.28,0.04,0.34,0.07c0.44,0.19,0.68,0.69,0.5,1.09c-0.05,0.1-0.23,0.21-0.35,0.21
		c-0.49-0.01-0.59-0.38-0.63-0.77C122.08,216.68,122.15,216.53,122.22,216.22z"/>
	<path class="st0" d="M103.79,174.72c0.21,0.33,0.39,0.48,0.41,0.66c0.03,0.33-0.17,0.57-0.51,0.52c-0.15-0.02-0.4-0.3-0.38-0.42
		C103.37,175.25,103.57,175.05,103.79,174.72z"/>
	<path class="st0" d="M106.09,203.39c0.28-0.25,0.45-0.48,0.68-0.58c0.08-0.04,0.46,0.32,0.43,0.38c-0.1,0.23-0.28,0.45-0.49,0.58
		C106.64,203.82,106.4,203.58,106.09,203.39z"/>
	<path class="st0" d="M111.82,224.72c0.29,0.41,0.48,0.61,0.55,0.84c0.02,0.07-0.29,0.33-0.45,0.34c-0.18,0.01-0.38-0.17-0.57-0.26
		C111.47,225.41,111.59,225.17,111.82,224.72z"/>
	<path class="st0" d="M112.76,171.77c-0.55,0.28-0.77,0.46-1,0.49c-0.15,0.02-0.32-0.21-0.49-0.32c0.13-0.15,0.24-0.42,0.38-0.43
		C111.89,171.48,112.15,171.61,112.76,171.77z"/>
	<path class="st0" d="M116.8,233.91c0.22,0.25,0.4,0.43,0.52,0.64c0.02,0.04-0.31,0.37-0.37,0.34c-0.22-0.11-0.4-0.31-0.6-0.47
		C116.47,234.29,116.59,234.15,116.8,233.91z"/>
	<path class="st0" d="M118.07,177.41c-0.34,0.2-0.55,0.4-0.79,0.44c-0.12,0.02-0.28-0.27-0.43-0.42c0.21-0.17,0.39-0.39,0.63-0.49
		C117.58,176.91,117.79,177.17,118.07,177.41z"/>
	<path class="st0" d="M80.35,199.1c0.26-0.18,0.46-0.4,0.7-0.46c0.1-0.03,0.38,0.24,0.41,0.41c0.08,0.44-0.33,0.84-0.65,0.66
		C80.65,199.61,80.56,199.38,80.35,199.1z"/>
	<path class="st0" d="M121.59,230.9c0.18,0.31,0.4,0.6,0.36,0.64c-0.18,0.2-0.42,0.36-0.67,0.45c-0.05,0.02-0.37-0.38-0.32-0.46
		C121.07,231.31,121.32,231.15,121.59,230.9z"/>
	<path class="st0" d="M123.2,186.33c0.24,0.22,0.47,0.32,0.52,0.49c0.12,0.41-0.15,0.69-0.5,0.8c-0.12,0.04-0.48-0.24-0.46-0.3
		C122.85,187,123.02,186.71,123.2,186.33z"/>
	<path class="st0" d="M125.33,177.01c0.01,0.21,0.13,0.54,0.02,0.71c-0.12,0.17-0.47,0.17-0.72,0.24c-0.04-0.2-0.16-0.43-0.09-0.59
		C124.63,177.12,124.8,176.82,125.33,177.01z"/>
	<path class="st0" d="M129.55,209.9c0.55,0.77,0.22,1.09-0.13,1.39c-0.08,0.06-0.29,0.06-0.37-0.01c-0.1-0.08-0.2-0.29-0.16-0.37
		C129.05,210.6,129.27,210.32,129.55,209.9z"/>
	<path class="st0" d="M132.96,204.67c0.23,0.39,0.42,0.6,0.48,0.84c0.08,0.3-0.33,0.7-0.49,0.54c-0.18-0.18-0.31-0.45-0.36-0.71
		C132.57,205.21,132.76,205.03,132.96,204.67z"/>
	<path class="st0" d="M137.92,221.94c0.21,0.34,0.41,0.54,0.47,0.79c0.07,0.29-0.35,0.69-0.52,0.54c-0.19-0.17-0.33-0.46-0.38-0.71
		C137.46,222.42,137.69,222.24,137.92,221.94z"/>
	<path class="st0" d="M88.68,190.27c0.17,0.27,0.31,0.49,0.46,0.71c-0.17,0.1-0.35,0.3-0.52,0.29c-0.26-0.01-0.62-0.11-0.48-0.51
		C88.19,190.59,88.42,190.49,88.68,190.27z"/>
	<path class="st0" d="M131.12,215.02c0.12-0.18,0.23-0.34,0.34-0.51c0.18,0.17,0.37,0.35,0.55,0.52c-0.19,0.18-0.37,0.36-0.56,0.53
		C131.35,215.39,131.25,215.22,131.12,215.02z"/>
	<path class="st0" d="M127.5,190.74c-0.13-0.3-0.29-0.48-0.26-0.64c0.02-0.1,0.3-0.2,0.47-0.22c0.07-0.01,0.25,0.24,0.22,0.31
		C127.86,190.36,127.7,190.5,127.5,190.74z"/>
	<path class="st0" d="M127.52,233.85c0.23,0.22,0.39,0.37,0.54,0.52c-0.14,0.14-0.29,0.4-0.42,0.39c-0.17-0.02-0.38-0.22-0.44-0.4
		C127.16,234.25,127.37,234.06,127.52,233.85z"/>
	<path class="st0" d="M124.4,225.07c0.22-0.16,0.44-0.32,0.67-0.49c0.07,0.18,0.23,0.38,0.21,0.55c-0.04,0.33-0.28,0.53-0.63,0.4
		C124.55,225.49,124.51,225.29,124.4,225.07z"/>
	<path class="st0" d="M87.88,182.41c0.3,0.24,0.56,0.34,0.6,0.5c0.09,0.32-0.09,0.59-0.44,0.59c-0.17,0-0.49-0.2-0.48-0.3
		C87.57,182.96,87.73,182.74,87.88,182.41z"/>
	<path class="st0" d="M87.99,198.11c0.19-0.2,0.3-0.42,0.46-0.45c0.16-0.03,0.36,0.13,0.54,0.21c-0.15,0.21-0.27,0.44-0.45,0.6
		C88.49,198.5,88.22,198.27,87.99,198.11z"/>
	<path class="st0" d="M88.96,211.72c0.41-0.15,0.63-0.29,0.86-0.3c0.07,0,0.27,0.37,0.22,0.49c-0.06,0.14-0.32,0.27-0.5,0.28
		C89.41,212.18,89.27,211.98,88.96,211.72z"/>
	<path class="st0" d="M121.63,193.85c0.31,0.23,0.46,0.34,0.62,0.46c-0.18,0.19-0.34,0.39-0.54,0.54c-0.04,0.03-0.34-0.14-0.33-0.19
		C121.42,194.42,121.52,194.19,121.63,193.85z"/>
	<path class="st0" d="M103.04,224.82c-0.29,0.26-0.48,0.52-0.57,0.49c-0.24-0.08-0.45-0.29-0.67-0.45c0.12-0.14,0.26-0.42,0.36-0.4
		C102.41,224.48,102.65,224.65,103.04,224.82z"/>
	<path class="st0" d="M102.38,195.69c0.27,0.26,0.54,0.42,0.52,0.51c-0.06,0.24-0.25,0.45-0.38,0.67c-0.15-0.11-0.43-0.22-0.43-0.33
		C102.09,196.31,102.24,196.07,102.38,195.69z"/>
	<path class="st0" d="M106.36,220.66c0.07,0.01,0.16,0.01,0.22,0.05c0.3,0.16,0.46,0.42,0.27,0.72c-0.08,0.13-0.36,0.14-0.55,0.2
		c-0.05-0.2-0.15-0.4-0.15-0.6C106.15,220.9,106.29,220.78,106.36,220.66z"/>
	<path class="st0" d="M114.7,203.25c0.3,0.48,0.5,0.68,0.53,0.9c0.02,0.11-0.26,0.34-0.42,0.37c-0.14,0.02-0.43-0.18-0.44-0.29
		C114.36,204,114.51,203.78,114.7,203.25z"/>
	<path class="st0" d="M115.66,207.18c0.22-0.18,0.36-0.39,0.53-0.42c0.35-0.05,0.57,0.19,0.55,0.53c-0.02,0.39-0.35,0.46-0.65,0.37
		C115.93,207.62,115.83,207.39,115.66,207.18z"/>
	<path class="st0" d="M139,216.46c0.21,0.32,0.39,0.52,0.46,0.74c0.02,0.08-0.23,0.33-0.37,0.35c-0.33,0.05-0.53-0.19-0.5-0.51
		C138.6,216.89,138.78,216.76,139,216.46z"/>
	<path class="st0" d="M118.17,184.44c0.21,0.27,0.46,0.48,0.42,0.58c-0.08,0.22-0.31,0.39-0.48,0.59c-0.15-0.14-0.44-0.32-0.41-0.42
		C117.75,184.95,117.96,184.75,118.17,184.44z"/>
	<path class="st0" d="M124.33,181.72c0.17,0.32,0.25,0.5,0.34,0.67c-0.13,0.06-0.27,0.17-0.4,0.17c-0.11,0-0.32-0.17-0.3-0.21
		C124.03,182.18,124.15,182.03,124.33,181.72z"/>
	<path class="st0" d="M89.04,223.75c0.1,0.17,0.21,0.32,0.27,0.48c0.01,0.04-0.23,0.22-0.25,0.21c-0.13-0.11-0.25-0.24-0.34-0.39
		C88.71,224.02,88.89,223.89,89.04,223.75z"/>
	<path class="st0" d="M96.24,174.96c0.14,0.38,0.28,0.57,0.25,0.73c-0.02,0.16-0.19,0.37-0.33,0.42c-0.1,0.03-0.37-0.17-0.39-0.3
		C95.75,175.67,95.93,175.5,96.24,174.96z"/>
	<path class="st0" d="M98.14,231.8c0.23,0.19,0.44,0.3,0.5,0.46c0.03,0.1-0.18,0.4-0.29,0.4c-0.17,0-0.43-0.14-0.48-0.28
		C97.83,232.26,98.02,232.05,98.14,231.8z"/>
	<path class="st0" d="M97.42,225.04c0.33-0.15,0.55-0.34,0.66-0.29c0.15,0.07,0.21,0.33,0.31,0.5c-0.13,0.06-0.27,0.19-0.37,0.16
		C97.84,225.37,97.7,225.22,97.42,225.04z"/>
	<path class="st0" d="M98.03,206.84c0.08,0.19,0.22,0.38,0.18,0.43c-0.13,0.15-0.32,0.26-0.49,0.38c-0.05-0.12-0.18-0.29-0.14-0.36
		C97.68,207.12,97.86,207,98.03,206.84z"/>
	<path class="st0" d="M99.76,180.01c0.18,0.1,0.39,0.18,0.39,0.22c-0.04,0.19-0.13,0.36-0.21,0.54c-0.17-0.09-0.34-0.18-0.5-0.27
		C99.55,180.34,99.66,180.18,99.76,180.01z"/>
	<path class="st0" d="M105.35,183.21c-0.22,0.12-0.4,0.29-0.52,0.25c-0.14-0.04-0.33-0.3-0.3-0.4c0.04-0.15,0.26-0.32,0.42-0.33
		C105.06,182.73,105.17,182.99,105.35,183.21z"/>
	<path class="st0" d="M105.24,210.84c0.22-0.2,0.34-0.4,0.49-0.43c0.12-0.02,0.39,0.19,0.38,0.27c-0.02,0.16-0.16,0.38-0.31,0.43
		C105.69,211.16,105.5,210.98,105.24,210.84z"/>
	<path class="st0" d="M107.42,186.16c0.38-0.12,0.62-0.23,0.85-0.23c0.06,0,0.22,0.39,0.16,0.53c-0.06,0.14-0.34,0.26-0.51,0.24
		C107.78,186.68,107.67,186.45,107.42,186.16z"/>
	<path class="st0" d="M121.13,169.84c0.18-0.18,0.31-0.4,0.44-0.4c0.16,0,0.39,0.14,0.47,0.29c0.14,0.24-0.17,0.6-0.43,0.51
		C121.45,170.19,121.33,170.02,121.13,169.84z"/>
	<path class="st0" d="M112.58,233.55c0.15,0.21,0.35,0.36,0.34,0.5c-0.01,0.15-0.21,0.29-0.33,0.43c-0.17-0.18-0.34-0.35-0.51-0.53
		C112.23,233.83,112.38,233.71,112.58,233.55z"/>
	<path class="st0" d="M112.64,217.67c0.17-0.11,0.33-0.23,0.5-0.3c0.03-0.01,0.23,0.25,0.21,0.28c-0.11,0.14-0.26,0.26-0.41,0.36
		C112.91,218.02,112.77,217.83,112.64,217.67z"/>
	<path class="st0" d="M120.76,221.71c0.18,0.5,0.28,0.68,0.3,0.87c0.01,0.11-0.11,0.34-0.16,0.34c-0.17-0.02-0.43-0.06-0.49-0.18
		C120.36,222.63,120.51,222.41,120.76,221.71z"/>
	<path class="st0" d="M135.42,221.01c0.05,0.18,0.13,0.35,0.14,0.52c0,0.03-0.32,0.15-0.34,0.12c-0.11-0.13-0.15-0.31-0.22-0.48
		C135.12,221.12,135.24,221.07,135.42,221.01z"/>
	<path class="st0" d="M132.97,231.51c-0.29-0.68-0.43-0.86-0.4-1c0.02-0.1,0.28-0.19,0.44-0.19c0.09,0,0.25,0.2,0.24,0.3
		C133.24,230.82,133.13,231.01,132.97,231.51z"/>
	<path class="st0" d="M131.51,222.84c-0.38,0.15-0.58,0.3-0.78,0.29c-0.15-0.01-0.4-0.21-0.41-0.33c0-0.16,0.17-0.43,0.31-0.46
		C130.77,222.3,130.96,222.51,131.51,222.84z"/>
	<path class="st0" d="M130.37,195.76c-0.13-0.26-0.32-0.45-0.29-0.6c0.03-0.12,0.32-0.27,0.48-0.26c0.11,0.01,0.3,0.3,0.27,0.42
		C130.8,195.47,130.58,195.58,130.37,195.76z"/>
	<path class="st0" d="M126.68,230.8c0.11,0.21,0.23,0.42,0.32,0.63c0.01,0.03-0.28,0.22-0.3,0.19c-0.19-0.17-0.34-0.37-0.5-0.56
		C126.3,231,126.42,230.94,126.68,230.8z"/>
	<path class="st0" d="M125.06,197.43c0.48-0.09,0.71-0.15,0.95-0.16c0.04,0,0.16,0.29,0.12,0.35c-0.12,0.15-0.3,0.34-0.47,0.35
		C125.54,197.99,125.39,197.75,125.06,197.43z"/>
	<path class="st0" d="M81.83,215.29c0.5-0.25,0.69-0.4,0.74-0.36c0.14,0.11,0.21,0.29,0.32,0.44c-0.11,0.07-0.23,0.2-0.33,0.19
		C82.35,215.53,82.16,215.42,81.83,215.29z"/>
	<path class="st0" d="M127.25,213.95c0.05-0.11,0.09-0.3,0.17-0.32c0.11-0.03,0.25,0.06,0.38,0.09c-0.06,0.11-0.11,0.28-0.2,0.32
		C127.51,214.08,127.37,213.98,127.25,213.95z"/>
	<path class="st0" d="M120.9,234.84c-0.11,0.09-0.21,0.18-0.31,0.26c-0.08-0.16-0.16-0.31-0.24-0.47c0.12-0.05,0.27-0.16,0.36-0.13
		C120.79,234.54,120.83,234.72,120.9,234.84z"/>
	<path class="st0" d="M126.41,237.36c0.08,0.09,0.16,0.18,0.25,0.27c-0.13,0.11-0.25,0.23-0.38,0.34c-0.05-0.13-0.16-0.26-0.14-0.38
		C126.14,237.5,126.31,237.43,126.41,237.36z"/>
	<path class="st0" d="M134.48,215.52c0.12-0.05,0.24-0.14,0.35-0.12c0.08,0.01,0.13,0.17,0.2,0.26c-0.12,0.05-0.25,0.14-0.37,0.14
		C134.6,215.8,134.54,215.62,134.48,215.52z"/>
	<path class="st0" d="M97.76,14.66c0.08,0.19,0.23,0.39,0.23,0.6c0,0.45-0.06,0.95-0.64,1.02c-0.17,0.02-0.43-0.17-0.53-0.34
		c-0.3-0.52-0.14-0.91,0.47-1.27C97.39,14.61,97.57,14.66,97.76,14.66z"/>
	<path class="st0" d="M103.75,49.92c0.36,0.4,0.67,0.59,0.67,0.78c0,0.21-0.29,0.41-0.46,0.61c-0.16-0.13-0.42-0.25-0.45-0.4
		C103.48,50.69,103.62,50.43,103.75,49.92z"/>
	<path class="st0" d="M87.15,39.33c0.3,0.34,0.61,0.55,0.6,0.74c-0.01,0.23-0.3,0.45-0.47,0.67c-0.21-0.17-0.56-0.32-0.59-0.52
		C86.65,40.01,86.92,39.75,87.15,39.33z"/>
	<path class="st0" d="M73.43,61.69c0.27,0.45,0.53,0.68,0.52,0.9c-0.01,0.21-0.31,0.4-0.49,0.6c-0.16-0.2-0.43-0.4-0.46-0.62
		C72.98,62.37,73.21,62.13,73.43,61.69z"/>
	<path class="st0" d="M96.02,38.46c0.42-0.24,0.65-0.44,0.9-0.48c0.13-0.02,0.45,0.3,0.43,0.37c-0.1,0.24-0.27,0.57-0.47,0.6
		C96.68,38.98,96.43,38.71,96.02,38.46z"/>
	<path class="st0" d="M105.9,43.11c0.33-0.28,0.52-0.45,0.71-0.62c0.12,0.24,0.31,0.47,0.34,0.71c0.02,0.13-0.29,0.45-0.34,0.43
		C106.39,43.55,106.21,43.36,105.9,43.11z"/>
	<path class="st0" d="M77.84,66.58c-0.2,0.29-0.29,0.56-0.45,0.61c-0.4,0.14-0.52-0.22-0.55-0.5c-0.02-0.17,0.17-0.36,0.26-0.54
		C77.33,66.28,77.55,66.41,77.84,66.58z"/>
	<path class="st0" d="M77.26,38.98c0.25,0.31,0.45,0.45,0.48,0.63c0.08,0.38-0.26,0.82-0.57,0.73c-0.17-0.05-0.44-0.31-0.41-0.42
		C76.84,39.63,77.04,39.37,77.26,38.98z"/>
	<path class="st0" d="M87.54,73.51c-0.21,0.27-0.3,0.49-0.45,0.56c-0.33,0.15-0.8-0.17-0.74-0.52c0.02-0.16,0.27-0.41,0.4-0.4
		C86.99,73.17,87.22,73.35,87.54,73.51z"/>
	<path class="st0" d="M86.42,27.42c0.22-0.25,0.32-0.48,0.49-0.53c0.33-0.11,0.57,0.08,0.69,0.4c0.11,0.29-0.16,0.7-0.42,0.62
		C86.92,27.83,86.71,27.62,86.42,27.42z"/>
	<path class="st0" d="M89.71,56.57c-0.14-0.33-0.29-0.54-0.29-0.74c0-0.19,0.11-0.44,0.25-0.55c0.21-0.16,0.67,0.16,0.61,0.44
		C90.25,55.91,90.06,56.07,89.71,56.57z"/>
	<path class="st0" d="M94.65,56.78c0.37-0.28,0.61-0.6,0.78-0.57c0.21,0.04,0.41,0.36,0.51,0.6c0.03,0.08-0.27,0.43-0.39,0.42
		C95.3,57.19,95.07,57,94.65,56.78z"/>
	<path class="st0" d="M73.21,37.37c-0.24,0.15-0.42,0.34-0.57,0.32c-0.14-0.02-0.25-0.25-0.37-0.39c0.15-0.13,0.3-0.36,0.44-0.36
		C72.85,36.94,73,37.17,73.21,37.37z"/>
	<path class="st0" d="M76.35,26.99c0.08,0.35,0.19,0.61,0.18,0.85c-0.01,0.09-0.34,0.26-0.48,0.22c-0.32-0.07-0.46-0.35-0.29-0.65
		C75.84,27.27,76.07,27.19,76.35,26.99z"/>
	<path class="st0" d="M85.59,51.12c0.22,0.47,0.39,0.7,0.42,0.94c0.01,0.08-0.34,0.29-0.52,0.28c-0.16-0.01-0.46-0.27-0.44-0.36
		C85.11,51.76,85.3,51.56,85.59,51.12z"/>
	<path class="st0" d="M85.08,12.25c0.19,0.25,0.38,0.4,0.42,0.58c0.07,0.3-0.35,0.69-0.53,0.54c-0.15-0.12-0.28-0.37-0.27-0.56
		C84.7,12.65,84.91,12.5,85.08,12.25z"/>
	<path class="st0" d="M91.06,39.74c0.35-0.2,0.56-0.39,0.8-0.43c0.09-0.02,0.36,0.33,0.33,0.45c-0.04,0.16-0.29,0.36-0.47,0.38
		C91.57,40.16,91.39,39.95,91.06,39.74z"/>
	<path class="st0" d="M92.33,19.48c0.04,0.25,0.09,0.49,0.09,0.73c0,0.02-0.33,0.11-0.35,0.08c-0.12-0.21-0.19-0.45-0.28-0.68
		C91.93,19.58,92.06,19.55,92.33,19.48z"/>
	<path class="st0" d="M107.89,31.65c-0.41,0.07-0.66,0.16-0.9,0.13c-0.08-0.01-0.23-0.39-0.17-0.47c0.11-0.14,0.37-0.26,0.52-0.22
		C107.51,31.12,107.62,31.36,107.89,31.65z"/>
	<path class="st0" d="M72.45,46.38c0.17,0.28,0.36,0.45,0.35,0.62c-0.01,0.12-0.3,0.33-0.42,0.3c-0.14-0.03-0.32-0.27-0.33-0.42
		C72.04,46.74,72.26,46.6,72.45,46.38z"/>
	<path class="st0" d="M74.21,54.41c0.21,0.23,0.44,0.37,0.44,0.51c0,0.16-0.2,0.32-0.32,0.48c-0.15-0.12-0.39-0.23-0.43-0.38
		C73.87,54.89,74.06,54.69,74.21,54.41z"/>
	<path class="st0" d="M76.44,53.4c-0.14-0.28-0.25-0.44-0.3-0.63c-0.08-0.29,0.21-0.57,0.5-0.46c0.15,0.06,0.31,0.28,0.31,0.43
		C76.95,52.89,76.74,53.03,76.44,53.4z"/>
	<path class="st0" d="M79.09,54.64c0.33,0.47,0.55,0.7,0.52,0.75c-0.14,0.2-0.36,0.34-0.55,0.5c-0.08-0.18-0.22-0.36-0.22-0.55
		C78.82,55.15,78.96,54.97,79.09,54.64z"/>
	<path class="st0" d="M85.63,65.91c-0.21,0.2-0.33,0.41-0.48,0.43c-0.12,0.02-0.38-0.19-0.38-0.29c0.01-0.15,0.16-0.39,0.3-0.42
		C85.19,65.59,85.38,65.77,85.63,65.91z"/>
	<path class="st0" d="M92.42,32.16c0.31-0.05,0.53-0.16,0.63-0.09c0.12,0.09,0.13,0.32,0.19,0.49c-0.13,0.04-0.29,0.14-0.37,0.09
		C92.73,32.57,92.64,32.4,92.42,32.16z"/>
	<path class="st0" d="M94.31,8c0.19,0.19,0.42,0.32,0.41,0.42c-0.03,0.16-0.19,0.37-0.34,0.42c-0.1,0.03-0.37-0.17-0.39-0.3
		C93.97,8.41,94.15,8.24,94.31,8z"/>
	<path class="st0" d="M94.75,64.63c0.15,0.29,0.34,0.49,0.32,0.66c-0.02,0.15-0.27,0.35-0.44,0.37c-0.13,0.01-0.37-0.22-0.39-0.37
		C94.22,65.16,94.45,65,94.75,64.63z"/>
	<path class="st0" d="M98.64,28.92c0.21,0.2,0.35,0.32,0.48,0.45c-0.13,0.13-0.24,0.28-0.39,0.37c-0.03,0.02-0.26-0.14-0.26-0.22
		C98.47,29.36,98.56,29.19,98.64,28.92z"/>
	<path class="st0" d="M84.36,60.07c0.05,0.09,0.11,0.18,0.16,0.28c-0.13,0.02-0.26,0.06-0.39,0.06c-0.05,0-0.09-0.11-0.14-0.16
		C84.12,60.18,84.24,60.12,84.36,60.07z"/>
	<path class="st0" d="M63.63,72.02c-0.64-0.63-1.03-0.96-1.36-1.34c-0.22-0.26-0.17-0.58,0.15-0.74c0.18-0.09,0.48-0.15,0.61-0.05
		C63.47,70.19,63.61,70.69,63.63,72.02z"/>
	<path class="st0" d="M33.92,82.18c0.03-0.19,0.01-0.38,0.09-0.46c0.18-0.2,0.4-0.36,0.63-0.49c0.04-0.02,0.27,0.14,0.29,0.25
		c0.09,0.4-0.05,0.75-0.44,0.88C34.33,82.41,34.11,82.24,33.92,82.18z"/>
	<path class="st0" d="M45.3,72.04c-0.14-0.34-0.3-0.57-0.32-0.82c-0.03-0.3,0.43-0.58,0.61-0.39c0.17,0.19,0.27,0.49,0.28,0.74
		C45.87,71.69,45.59,71.82,45.3,72.04z"/>
	<path class="st0" d="M10.36,78.43c0.3-0.25,0.51-0.52,0.59-0.48c0.22,0.09,0.38,0.32,0.57,0.49c-0.14,0.14-0.29,0.42-0.41,0.4
		C10.88,78.82,10.67,78.62,10.36,78.43z"/>
	<path class="st0" d="M20.77,57.57c0.09,0.17,0.28,0.37,0.25,0.53c-0.04,0.24-0.23,0.45-0.36,0.67c-0.19-0.17-0.52-0.33-0.54-0.52
		c-0.03-0.19,0.25-0.42,0.4-0.62C20.56,57.58,20.66,57.59,20.77,57.57z"/>
	<path class="st0" d="M25.41,66.28c-0.13,0.49-0.37,0.76-0.8,0.64c-0.13-0.04-0.32-0.4-0.28-0.44c0.18-0.2,0.4-0.39,0.65-0.49
		C25.08,65.95,25.28,66.18,25.41,66.28z"/>
	<path class="st0" d="M31.64,55.01c0.27,0.2,0.56,0.38,0.54,0.42c-0.1,0.23-0.25,0.45-0.44,0.6c-0.05,0.04-0.46-0.21-0.45-0.29
		C31.32,55.52,31.49,55.31,31.64,55.01z"/>
	<path class="st0" d="M33.32,73.42c-0.47,0.42-0.64,0.65-0.87,0.73c-0.1,0.04-0.4-0.18-0.45-0.33c-0.12-0.35,0.25-0.79,0.58-0.72
		C32.78,73.13,32.97,73.26,33.32,73.42z"/>
	<path class="st0" d="M36.93,68.8c-0.07,0.81-0.05,1.16-0.16,1.47c-0.04,0.12-0.4,0.24-0.54,0.18c-0.14-0.06-0.29-0.41-0.23-0.52
		C36.15,69.64,36.41,69.41,36.93,68.8z"/>
	<path class="st0" d="M39.91,64.7c0.18,0.26,0.37,0.46,0.42,0.68c0.02,0.09-0.39,0.38-0.46,0.34c-0.22-0.12-0.36-0.37-0.54-0.57
		C39.49,65.04,39.65,64.91,39.91,64.7z"/>
	<path class="st0" d="M40.91,62.36c-0.25-0.25-0.46-0.43-0.6-0.65c-0.03-0.04,0.3-0.42,0.39-0.39c0.24,0.07,0.44,0.28,0.66,0.43
		C41.24,61.91,41.12,62.07,40.91,62.36z"/>
	<path class="st0" d="M45.36,62.86c0.23,0.28,0.46,0.45,0.55,0.68c0.05,0.13-0.1,0.43-0.24,0.51c-0.31,0.17-0.8-0.19-0.75-0.56
		C44.94,63.32,45.14,63.16,45.36,62.86z"/>
	<path class="st0" d="M51.45,80.07c0.2,0.28,0.44,0.5,0.4,0.6c-0.1,0.23-0.33,0.41-0.5,0.61c-0.18-0.2-0.49-0.4-0.49-0.59
		C50.86,80.5,51.19,80.32,51.45,80.07z"/>
	<path class="st0" d="M53.19,59c0.19-0.31,0.3-0.48,0.42-0.66c0.21,0.16,0.48,0.29,0.61,0.51c0.05,0.09-0.21,0.52-0.28,0.51
		C53.7,59.31,53.48,59.15,53.19,59z"/>
	<path class="st0" d="M60.6,63.35c-0.26-0.33-0.49-0.51-0.56-0.74c-0.04-0.12,0.21-0.32,0.33-0.48c0.19,0.18,0.43,0.33,0.54,0.55
		C60.96,62.77,60.77,63,60.6,63.35z"/>
	<path class="st0" d="M61.69,65.21c-0.32,0.27-0.51,0.43-0.7,0.59c-0.13-0.15-0.36-0.31-0.35-0.45c0.01-0.17,0.2-0.41,0.36-0.47
		C61.12,64.84,61.33,65.03,61.69,65.21z"/>
	<path class="st0" d="M5.92,64c0.1,0.27,0.24,0.51,0.27,0.78c0.01,0.06-0.34,0.16-0.52,0.25c-0.07-0.27-0.16-0.53-0.2-0.8
		C5.47,64.18,5.69,64.11,5.92,64z"/>
	<path class="st0" d="M7,53.47c0.11-0.49,0.36-0.81,0.9-0.6c0.12,0.05,0.26,0.44,0.19,0.53C7.78,53.81,7.39,53.86,7,53.47z"/>
	<path class="st0" d="M12.69,62.2c0.2-0.25,0.32-0.4,0.45-0.55c0.15,0.14,0.33,0.26,0.44,0.42c0.03,0.04-0.15,0.31-0.24,0.32
		C13.17,62.4,12.98,62.29,12.69,62.2z"/>
	<path class="st0" d="M19.09,70.22c0.34-0.15,0.58-0.33,0.81-0.33c0.15,0,0.3,0.27,0.44,0.41c-0.22,0.14-0.42,0.35-0.66,0.4
		C19.56,70.71,19.38,70.45,19.09,70.22z"/>
	<path class="st0" d="M23.46,59.59c0.23,0.29,0.54,0.5,0.54,0.71c0,0.19-0.35,0.37-0.55,0.56c-0.15-0.23-0.36-0.44-0.42-0.69
		C23,60.04,23.25,59.85,23.46,59.59z"/>
	<path class="st0" d="M25.98,71.47c-0.24-0.16-0.48-0.24-0.55-0.4c-0.04-0.1,0.15-0.43,0.26-0.44c0.18-0.02,0.44,0.1,0.53,0.24
		C26.29,70.96,26.1,71.21,25.98,71.47z"/>
	<path class="st0" d="M38.45,55.24c0.24,0.29,0.4,0.48,0.55,0.67c-0.16,0.13-0.32,0.37-0.48,0.36c-0.16-0.01-0.39-0.22-0.45-0.39
		C38.04,55.76,38.25,55.56,38.45,55.24z"/>
	<path class="st0" d="M41.35,72.56c-0.36,0.2-0.58,0.43-0.7,0.38c-0.22-0.09-0.41-0.32-0.55-0.53c-0.03-0.04,0.26-0.41,0.35-0.39
		C40.69,72.08,40.88,72.26,41.35,72.56z"/>
	<path class="st0" d="M52.37,62.12c0.27-0.2,0.47-0.38,0.7-0.48c0.04-0.02,0.35,0.34,0.31,0.43c-0.09,0.21-0.29,0.4-0.49,0.52
		C52.84,62.62,52.62,62.35,52.37,62.12z"/>
	<path class="st0" d="M56.35,74.65c0.17,0.33,0.33,0.55,0.37,0.78c0.01,0.07-0.34,0.31-0.47,0.27c-0.16-0.04-0.36-0.29-0.36-0.45
		C55.89,75.1,56.12,74.94,56.35,74.65z"/>
	<path class="st0" d="M56.26,68.44c0.06-0.04,0.11-0.09,0.18-0.13c0.37-0.19,0.72-0.16,0.93,0.2c0.07,0.11-0.07,0.5-0.18,0.54
		c-0.37,0.12-0.71,0.01-0.87-0.4C56.29,68.58,56.28,68.51,56.26,68.44z"/>
	<path class="st0" d="M62.1,57.12c0.2,0.33,0.38,0.49,0.37,0.64c-0.01,0.33-0.26,0.53-0.58,0.44c-0.14-0.04-0.35-0.32-0.31-0.42
		C61.64,57.57,61.85,57.41,62.1,57.12z"/>
	<path class="st0" d="M64.99,61.26c0.21,0.34,0.34,0.55,0.47,0.77c-0.17,0.1-0.37,0.3-0.52,0.27c-0.16-0.03-0.36-0.27-0.39-0.44
		C64.53,61.73,64.76,61.56,64.99,61.26z"/>
	<path class="st0" d="M21.27,89.79c0.3-0.26,0.48-0.44,0.68-0.57c0.05-0.03,0.27,0.07,0.31,0.16c0.12,0.29,0.03,0.57-0.28,0.66
		C21.84,90.08,21.63,89.93,21.27,89.79z"/>
	<path class="st0" d="M30,63.7c0.15,0.28,0.23,0.45,0.31,0.61c-0.18,0.07-0.35,0.16-0.54,0.18c-0.04,0.01-0.19-0.23-0.17-0.3
		C29.67,64.05,29.82,63.93,30,63.7z"/>
	<path class="st0" d="M30.56,81.36c0.15,0.29,0.33,0.52,0.28,0.6c-0.09,0.14-0.31,0.21-0.49,0.27c-0.02,0.01-0.2-0.24-0.17-0.34
		C30.22,81.74,30.37,81.61,30.56,81.36z"/>
	<path class="st0" d="M31.32,62.31c0.2,0.12,0.38,0.17,0.43,0.27c0.11,0.22-0.35,0.62-0.58,0.5c-0.11-0.06-0.23-0.27-0.19-0.36
		C31.04,62.56,31.2,62.44,31.32,62.31z"/>
	<path class="st0" d="M32.88,93.35c0.13,0.28,0.31,0.5,0.26,0.6c-0.07,0.14-0.31,0.21-0.49,0.27c-0.03,0.01-0.21-0.23-0.19-0.31
		C32.53,93.74,32.68,93.61,32.88,93.35z"/>
	<path class="st0" d="M42.37,90.24c-0.3,0.12-0.48,0.19-0.66,0.27c-0.07-0.18-0.16-0.35-0.19-0.53c-0.01-0.04,0.25-0.19,0.33-0.16
		C42.01,89.88,42.14,90.04,42.37,90.24z"/>
	<path class="st0" d="M41.33,79.54c0.3-0.13,0.51-0.3,0.61-0.24c0.14,0.08,0.2,0.31,0.3,0.48c-0.12,0.07-0.27,0.21-0.35,0.18
		C41.72,79.9,41.59,79.74,41.33,79.54z"/>
	<path class="st0" d="M45.04,55.01c-0.57,0.27-0.77,0.45-0.89,0.41c-0.15-0.05-0.25-0.28-0.37-0.43c0.15-0.11,0.3-0.29,0.46-0.3
		C44.42,54.68,44.61,54.83,45.04,55.01z"/>
	<path class="st0" d="M58.82,76.38c0.14,0.28,0.31,0.48,0.27,0.61c-0.05,0.16-0.28,0.25-0.43,0.37c-0.1-0.15-0.29-0.31-0.27-0.45
		C58.41,76.75,58.61,76.62,58.82,76.38z"/>
	<path class="st0" d="M27.24,57.76c-0.19-0.21-0.35-0.32-0.42-0.47c-0.03-0.08,0.1-0.33,0.14-0.33c0.18,0.02,0.36,0.1,0.55,0.15
		C27.44,57.29,27.37,57.47,27.24,57.76z"/>
	<path class="st0" d="M34.16,56.65c0.11,0.16,0.24,0.31,0.32,0.48c0.01,0.02-0.25,0.24-0.29,0.21c-0.15-0.09-0.27-0.25-0.4-0.38
		C33.89,56.87,33.99,56.79,34.16,56.65z"/>
	<path class="st0" d="M49.14,69.73c0.07-0.22,0.11-0.35,0.15-0.49c0.17,0.08,0.36,0.13,0.49,0.25c0.04,0.03-0.08,0.36-0.14,0.37
		C49.48,69.87,49.31,69.79,49.14,69.73z"/>
	<path class="st0" d="M64.56,66.65c0.1-0.08,0.19-0.15,0.29-0.22c0.09,0.13,0.17,0.27,0.26,0.4c-0.11,0.05-0.25,0.15-0.34,0.12
		C64.67,66.92,64.62,66.75,64.56,66.65z"/>
	<path class="st0" d="M43.11,41.07c0.41-0.3,0.64-0.6,0.81-0.57c0.21,0.04,0.42,0.34,0.52,0.57c0.03,0.07-0.26,0.43-0.39,0.42
		C43.81,41.47,43.58,41.29,43.11,41.07z"/>
	<path class="st0" d="M16.39,37.68c0.19,0.32,0.43,0.58,0.38,0.65c-0.14,0.21-0.38,0.38-0.62,0.47c-0.06,0.02-0.4-0.36-0.36-0.44
		C15.9,38.12,16.13,37.95,16.39,37.68z"/>
	<path class="st0" d="M17.84,46.56c0.52-0.16,0.77-0.28,1.02-0.28c0.08,0,0.25,0.36,0.21,0.51c-0.04,0.16-0.32,0.41-0.42,0.38
		C18.43,47.11,18.25,46.89,17.84,46.56z"/>
	<path class="st0" d="M23.86,40.49c-0.2,0.26-0.36,0.46-0.52,0.67c-0.17-0.19-0.49-0.39-0.48-0.57c0.01-0.2,0.31-0.4,0.52-0.55
		C23.41,40.02,23.64,40.29,23.86,40.49z"/>
	<path class="st0" d="M23.4,28.48c0.18,0.45,0.34,0.68,0.35,0.92c0.01,0.32-0.23,0.58-0.55,0.44c-0.2-0.09-0.42-0.41-0.41-0.62
		C22.79,29.02,23.09,28.84,23.4,28.48z"/>
	<path class="st0" d="M24.53,34.53c0.15-0.61,0.13-1.09,0.32-1.19c0.33-0.17,0.71,0.01,0.85,0.57
		C25.42,34.06,25.12,34.21,24.53,34.53z"/>
	<path class="st0" d="M27.84,43.34c-0.29,0.28-0.48,0.53-0.55,0.5c-0.23-0.09-0.41-0.29-0.61-0.44c0.09-0.11,0.19-0.3,0.27-0.3
		C27.19,43.13,27.43,43.23,27.84,43.34z"/>
	<path class="st0" d="M41.21,35.27c-0.51,0.18-0.76,0.34-1,0.33c-0.16-0.01-0.42-0.23-0.45-0.39c-0.05-0.34,0.22-0.57,0.53-0.51
		C40.53,34.73,40.74,34.96,41.21,35.27z"/>
	<path class="st0" d="M34.2,45.86c0.14,0.28,0.33,0.53,0.28,0.61c-0.13,0.19-0.37,0.31-0.57,0.46c-0.05-0.19-0.17-0.4-0.13-0.58
		C33.81,46.2,34.01,46.08,34.2,45.86z"/>
	<path class="st0" d="M36.03,31.44c-0.36,0.2-0.56,0.38-0.8,0.41c-0.11,0.02-0.27-0.23-0.41-0.36c0.2-0.16,0.38-0.38,0.61-0.47
		C35.53,30.98,35.72,31.21,36.03,31.44z"/>
	<path class="st0" d="M52.94,30.14c0.48,0.63,0.67,0.87,0.86,1.12c-0.16,0.11-0.32,0.33-0.47,0.32c-0.34-0.03-0.73-0.12-0.67-0.61
		C52.68,30.76,52.79,30.55,52.94,30.14z"/>
	<path class="st0" d="M49.92,23.12c-0.16,0.18-0.28,0.41-0.42,0.43c-0.16,0.02-0.33-0.17-0.5-0.27c0.14-0.2,0.28-0.41,0.42-0.61
		C49.56,22.8,49.71,22.93,49.92,23.12z"/>
	<path class="st0" d="M51.34,13.07c0.21,0.37,0.38,0.54,0.4,0.73c0.02,0.15-0.15,0.32-0.23,0.48c-0.15-0.12-0.37-0.21-0.41-0.36
		C51.05,13.78,51.19,13.57,51.34,13.07z"/>
	<path class="st0" d="M53.77,24.77c0.06,0.13,0.17,0.31,0.2,0.5c0.01,0.06-0.25,0.23-0.34,0.21c-0.17-0.05-0.31-0.21-0.46-0.33
		C53.29,25.07,53.41,24.99,53.77,24.77z"/>
	<path class="st0" d="M141.46,193.78c0.24-0.57,0.58-0.72,1.05-0.48c0.24,0.12,0.24,0.59,0.01,0.74
		C142.04,194.36,141.77,194.03,141.46,193.78z"/>
	<path class="st0" d="M137.8,179.69c0.19,0.26,0.37,0.44,0.45,0.66c0.02,0.07-0.35,0.37-0.42,0.34c-0.22-0.11-0.38-0.33-0.56-0.51
		C137.41,180.05,137.56,179.92,137.8,179.69z"/>
	<path class="st0" d="M141.17,188.96c0.24,0.26,0.45,0.43,0.56,0.65c0.03,0.05-0.26,0.35-0.44,0.4c-0.35,0.11-0.57-0.13-0.57-0.45
		C140.73,189.41,140.95,189.25,141.17,188.96z"/>
	<path class="st0" d="M141.73,183.6c0.23,0.27,0.46,0.44,0.54,0.66c0.03,0.09-0.22,0.38-0.39,0.43c-0.33,0.1-0.59-0.11-0.59-0.45
		C141.3,184.07,141.52,183.91,141.73,183.6z"/>
	<path class="st0" d="M143.74,176.74c0.23,0.27,0.46,0.45,0.54,0.68c0.05,0.13-0.1,0.42-0.24,0.5c-0.31,0.18-0.76-0.16-0.71-0.55
		C143.35,177.19,143.54,177.03,143.74,176.74z"/>
	<path class="st0" d="M144.94,188.78c0.66,0.15,0.92,0.41,0.64,0.93c-0.05,0.09-0.27,0.16-0.37,0.12
		C144.52,189.58,145.06,189.17,144.94,188.78z"/>
	<path class="st0" d="M143.74,185.53c0.1,0.35,0.23,0.6,0.22,0.83c0,0.1-0.29,0.28-0.43,0.27c-0.33-0.04-0.49-0.3-0.35-0.61
		C143.25,185.85,143.46,185.76,143.74,185.53z"/>
	<path class="st0" d="M140.23,174.1c-0.15,0.21-0.23,0.45-0.39,0.51c-0.11,0.04-0.39-0.14-0.45-0.28c-0.12-0.27-0.08-0.61,0.31-0.62
		C139.86,173.7,140.03,173.94,140.23,174.1z"/>
	<path class="st0" d="M136.67,171.98c-0.19,0.2-0.3,0.43-0.44,0.44c-0.13,0.01-0.36-0.19-0.39-0.33c-0.03-0.12,0.16-0.41,0.26-0.41
		C136.26,171.66,136.43,171.83,136.67,171.98z"/>
	<path class="st0" d="M143.76,196.29c0.14,0.23,0.32,0.4,0.3,0.54c-0.02,0.15-0.23,0.28-0.35,0.42c-0.13-0.14-0.37-0.28-0.37-0.42
		C143.35,196.68,143.57,196.53,143.76,196.29z"/>
	<path class="st0" d="M57.16,51.21c0.21,0.26,0.42,0.4,0.45,0.58c0.1,0.5-0.21,1.01-0.61,1c-0.26,0-0.57-0.15-0.77-0.33
		c-0.09-0.09-0.05-0.47,0.07-0.61C56.52,51.61,56.84,51.45,57.16,51.21z"/>
	<path class="st0" d="M48.53,50.9c-0.24-0.62-0.31-1.08,0.2-1.31c0.57-0.25,0.99-0.01,1.22,0.66c-0.22,0.15-0.44,0.34-0.69,0.47
		C49.07,50.81,48.84,50.82,48.53,50.9z"/>
	<path class="st0" d="M54.53,48.18c-0.35,0.27-0.54,0.52-0.78,0.57c-0.41,0.07-0.72-0.15-0.79-0.6c-0.05-0.35,0.35-0.83,0.67-0.72
		C53.93,47.53,54.15,47.84,54.53,48.18z"/>
	<path class="st0" d="M52.48,52.33c0.32,0.46,0.56,0.71,0.64,1c0.02,0.09-0.42,0.44-0.63,0.42c-0.2-0.02-0.49-0.34-0.52-0.56
		C51.95,53,52.22,52.76,52.48,52.33z"/>
	<path class="st0" d="M52.58,44.84c0.23,0.16,0.45,0.24,0.54,0.39c0.16,0.26-0.11,0.66-0.4,0.59c-0.17-0.04-0.39-0.24-0.42-0.4
		C52.27,45.28,52.46,45.08,52.58,44.84z"/>
	<path class="st0" d="M54.22,51.15c-0.26,0.22-0.46,0.5-0.57,0.46c-0.24-0.07-0.55-0.25-0.62-0.46c-0.11-0.31,0.17-0.6,0.49-0.55
		C53.75,50.65,53.94,50.92,54.22,51.15z"/>
	<path class="st0" d="M46.2,49.43c-0.27,0.2-0.41,0.3-0.56,0.4c-0.11-0.15-0.24-0.3-0.32-0.47c-0.01-0.02,0.2-0.22,0.29-0.21
		C45.77,49.16,45.92,49.28,46.2,49.43z"/>
	<path class="st0" d="M62.42,41.66c0.13,0.32,0.24,0.53,0.28,0.76c0.01,0.05-0.26,0.23-0.31,0.2c-0.21-0.13-0.38-0.32-0.56-0.49
		C61.99,42,62.13,41.89,62.42,41.66z"/>
	<path class="st0" d="M64.71,44.76c-0.26,0.13-0.44,0.3-0.59,0.28c-0.13-0.02-0.32-0.3-0.29-0.41c0.05-0.15,0.28-0.33,0.42-0.33
		C64.39,44.31,64.51,44.55,64.71,44.76z"/>
	<path class="st0" d="M138.78,209.49c0.1,0.39,0.22,0.64,0.2,0.88c-0.01,0.13-0.3,0.34-0.43,0.32c-0.32-0.06-0.49-0.33-0.35-0.66
		C138.28,209.87,138.49,209.76,138.78,209.49z"/>
</g>
</svg>
