<?xml version="1.0" standalone="no"?>
<!DOCTYPE svg PUBLIC "-//W3C//DTD SVG 20010904//EN"
 "http://www.w3.org/TR/2001/REC-SVG-20010904/DTD/svg10.dtd">
<svg version="1.0" xmlns="http://www.w3.org/2000/svg"
 width="129.000000pt" height="129.000000pt" viewBox="0 0 129.000000 129.000000"
 preserveAspectRatio="xMidYMid meet">
<metadata>
Created by potrace 1.14, written by Peter Selinger 2001-2017
</metadata>
<g transform="translate(0.000000,129.000000) scale(0.100000,-0.100000)"
fill="#000000" stroke="none">
<path d="M505 1265 c-232 -50 -436 -254 -484 -483 -16 -75 -14 -227 4 -297 77
-301 355 -502 666 -482 154 10 291 72 404 182 74 73 125 154 161 260 23 69 27
96 27 195 0 97 -4 128 -27 197 -102 313 -427 499 -751 428z m451 -321 c36 -17
64 -58 64 -94 0 -62 -65 -158 -144 -215 -79 -55 -114 -73 -210 -106 l-79 -26
-21 -65 c-26 -80 -51 -118 -76 -118 -25 0 -25 12 0 35 23 20 54 109 46 130 -3
9 -18 15 -34 15 -40 0 -58 23 -44 55 16 34 46 34 38 0 -6 -22 -3 -25 23 -25
34 0 32 -4 60 127 29 134 72 206 105 173 7 -7 4 -15 -11 -25 -22 -16 -45 -73
-63 -160 -5 -27 -13 -61 -16 -74 -5 -22 -3 -23 29 -18 52 8 184 72 243 118 82
63 132 155 113 207 -32 85 -298 61 -501 -45 -39 -20 -88 -58 -117 -88 -46 -49
-51 -58 -51 -100 0 -55 -23 -59 -28 -5 -5 50 5 76 46 122 67 75 191 140 336
178 93 25 245 26 292 4z"/>
</g>
</svg>
