<?xml version="1.0" standalone="no"?>
<!DOCTYPE svg PUBLIC "-//W3C//DTD SVG 20010904//EN"
 "http://www.w3.org/TR/2001/REC-SVG-20010904/DTD/svg10.dtd">
<svg version="1.0" xmlns="http://www.w3.org/2000/svg"
 width="1250.000000pt" height="1250.000000pt" viewBox="0 0 1250.000000 1250.000000"
 preserveAspectRatio="xMidYMid meet">
<metadata>
Created by potrace 1.14, written by Peter Selinger 2001-2017
</metadata>
<g transform="translate(0.000000,1250.000000) scale(0.100000,-0.100000)"
fill="#000000" stroke="none">
<path d="M10099 11193 c-53 -41 -98 -102 -160 -218 -87 -160 -103 -220 -77
-291 9 -27 8 -36 -9 -65 -11 -19 -32 -54 -45 -79 -31 -55 -149 -264 -152 -267
-1 -1 -2 28 -3 63 -1 52 -8 78 -32 127 -33 66 -80 111 -104 101 -18 -7 -60
-98 -82 -179 -10 -34 -18 -112 -21 -180 -3 -103 -1 -128 17 -175 12 -30 21
-68 20 -83 0 -16 -33 -84 -77 -157 -42 -72 -77 -130 -78 -130 0 0 -2 28 -4 62
-3 70 -32 162 -65 213 -22 35 -40 42 -65 26 -15 -9 -58 -129 -73 -203 -32
-163 -40 -339 -19 -417 l11 -43 -132 -214 c-72 -118 -134 -213 -136 -210 -2 2
1 32 7 66 26 145 10 331 -37 425 -65 128 -111 125 -157 -12 -13 -37 -27 -88
-30 -113 -13 -88 -6 -243 14 -335 23 -104 19 -90 49 -180 l23 -71 -70 -109
c-39 -61 -94 -146 -122 -190 -87 -137 -240 -368 -240 -362 0 2 11 34 24 69 83
220 93 439 26 581 -29 61 -44 73 -74 59 -45 -20 -119 -150 -144 -252 -41 -168
-47 -331 -17 -436 15 -53 65 -131 90 -140 11 -5 -16 -51 -102 -178 -64 -94
-131 -190 -147 -213 -33 -46 -37 -51 -157 -223 -88 -126 -104 -146 -93 -115 4
11 10 25 14 30 4 6 21 53 38 105 49 154 57 194 56 310 0 89 -4 125 -23 175
-48 129 -108 179 -146 121 -26 -39 -64 -172 -90 -312 -13 -72 -29 -150 -34
-175 -23 -98 -2 -287 42 -384 23 -49 23 -51 6 -75 -122 -174 -591 -792 -596
-787 -1 2 13 41 32 86 31 72 67 172 81 221 44 158 47 180 48 310 1 116 -2 144
-22 200 -25 72 -92 170 -133 194 -25 15 -29 14 -48 -2 -25 -21 -55 -97 -86
-221 -35 -137 -40 -199 -40 -446 1 -198 3 -228 23 -298 12 -44 31 -97 41 -118
l19 -39 -110 -138 c-215 -267 -425 -514 -394 -464 17 28 76 276 92 385 6 42 6
195 -1 226 -22 114 -85 233 -127 245 -32 8 -50 -13 -101 -117 -60 -122 -103
-252 -122 -367 -3 -19 -8 -46 -10 -60 -10 -48 -7 -205 5 -269 13 -71 56 -176
85 -204 9 -10 24 -16 32 -13 8 3 -28 -42 -79 -101 -226 -259 -312 -349 -346
-369 -20 -11 -36 -26 -34 -33 1 -7 -4 -21 -11 -31 -30 -43 -269 -292 -562
-585 -263 -263 -370 -366 -584 -565 -424 -392 -968 -850 -1441 -1214 -91 -70
-172 -132 -180 -139 -49 -39 -90 -67 -90 -62 0 4 42 55 93 113 82 94 173 206
230 283 64 87 167 238 218 321 l60 97 66 21 c139 45 261 127 386 260 108 115
176 222 222 353 33 91 31 132 -5 133 -60 2 -231 -77 -321 -148 -47 -36 -53
-35 -33 4 9 17 42 97 74 176 32 80 59 139 62 132 3 -9 10 -11 24 -5 10 5 28 9
39 11 22 2 35 17 157 188 96 133 175 276 207 374 23 71 38 177 32 221 -2 16
-32 21 -54 9 -50 -26 -141 -104 -187 -159 -28 -33 -50 -58 -50 -55 0 3 7 35
16 73 9 37 18 76 20 85 2 10 6 28 9 40 4 13 15 73 25 133 11 61 23 123 26 138
l6 29 15 -22 c8 -12 19 -18 23 -13 13 12 70 207 90 303 21 101 23 264 4 309
-15 36 -38 48 -59 31 -12 -10 -16 -9 -19 1 -2 8 -12 37 -21 65 -17 57 -43 74
-68 45 -43 -47 -115 -228 -142 -351 -16 -75 -14 -256 3 -310 7 -20 28 -63 48
-95 l36 -60 -17 -70 c-28 -117 -96 -367 -110 -410 l-14 -40 -1 58 c0 79 -25
194 -58 269 -33 76 -63 128 -75 128 -5 0 -36 27 -69 60 -34 33 -64 60 -67 60
-51 -1 -60 -209 -15 -360 38 -130 189 -400 223 -400 11 0 -66 -225 -144 -420
-53 -133 -131 -310 -137 -310 -2 0 -2 53 -1 117 3 180 -30 306 -107 418 -17
25 -43 53 -57 62 -25 16 -26 16 -48 -10 -53 -60 -94 -234 -93 -387 2 -150 34
-266 108 -390 l39 -65 -31 -82 c-24 -64 -36 -83 -55 -87 -18 -5 -23 -13 -23
-37 0 -33 -61 -128 -209 -324 -83 -110 -258 -322 -331 -400 -211 -227 -384
-405 -394 -405 -5 0 -22 -6 -39 -14 -18 -8 -169 -72 -337 -141 -168 -70 -327
-137 -355 -149 -27 -13 -128 -56 -223 -97 -169 -72 -172 -74 -135 -81 21 -4
72 -15 113 -24 l75 -16 180 77 c99 42 189 80 200 85 11 5 37 16 58 25 20 8 54
22 75 31 20 9 33 12 27 6 -10 -10 -374 -250 -410 -270 -19 -11 -19 -11 5 -13
14 0 55 -3 91 -5 l66 -5 199 134 c188 126 347 236 369 254 78 66 186 123 381
204 120 49 244 100 274 113 30 13 136 56 235 96 99 39 194 78 210 85 28 12
408 163 755 300 171 67 585 226 684 262 68 24 69 25 150 9 44 -8 101 -18 125
-21 23 -4 53 -10 65 -14 11 -5 26 -9 31 -10 6 -1 28 -6 49 -12 195 -53 406
-62 526 -24 82 27 105 47 89 76 -15 28 -359 131 -515 155 -54 8 -49 15 31 42
33 12 145 50 248 86 142 50 193 64 206 56 77 -41 383 -60 547 -34 117 19 240
53 254 70 30 35 -15 72 -117 98 -72 19 -106 24 -160 28 -24 1 -43 5 -43 8 0 3
99 38 221 78 l220 72 27 -20 c26 -18 275 -106 329 -116 16 -3 48 -10 72 -15
145 -32 310 -29 403 8 97 38 135 76 108 108 -14 17 -158 88 -223 109 -75 25
-198 55 -234 58 -45 3 -32 11 72 42 50 15 154 47 232 72 103 32 148 42 160 35
20 -10 59 -17 153 -27 36 -3 92 -9 125 -13 66 -7 259 -6 315 2 109 17 222 51
240 72 46 55 -118 121 -310 125 l-65 1 152 52 c146 49 153 51 166 33 10 -14
29 -20 73 -22 32 -2 95 -6 139 -10 104 -8 266 -9 331 -1 62 7 174 43 192 62 8
7 16 29 19 49 4 31 1 37 -19 45 -53 20 -351 32 -381 15 -8 -5 -9 -4 -2 3 11
12 337 115 498 158 85 23 101 25 115 13 47 -39 288 -106 447 -124 115 -14 282
-6 338 15 29 11 36 41 14 59 -38 32 -143 59 -292 76 -16 2 -48 11 -70 20 -21
9 -69 19 -105 22 -36 4 -66 7 -67 8 -1 1 114 28 255 59 301 68 261 59 392 92
58 14 141 37 185 50 44 13 114 27 155 30 154 13 324 49 349 74 9 9 33 27 54
41 72 48 53 96 -33 85 -132 -17 -281 -52 -351 -81 -52 -21 -67 -23 -205 -19
-152 3 -184 -2 -184 -33 0 -42 37 -61 127 -64 23 -1 30 -4 20 -9 -19 -11 -192
-52 -382 -89 -88 -17 -169 -33 -180 -36 -49 -9 -73 -14 -110 -19 l-40 -5 53
29 c123 69 272 191 333 275 23 31 26 42 18 58 -15 27 -60 20 -192 -33 -107
-42 -198 -92 -257 -142 -42 -36 -90 -103 -90 -127 0 -10 -19 -30 -42 -45 -24
-15 -53 -37 -65 -48 -13 -11 -52 -26 -90 -33 -97 -19 -94 -18 -253 -59 -79
-21 -169 -46 -199 -56 -30 -11 -58 -19 -63 -19 -5 0 33 42 84 93 116 115 176
185 222 262 41 68 44 90 17 105 -15 8 -29 3 -68 -23 -83 -57 -117 -81 -158
-112 -157 -119 -285 -257 -285 -309 0 -37 -44 -95 -80 -105 -19 -5 -73 -23
-120 -41 -129 -48 -640 -217 -680 -225 -29 -6 -20 2 47 43 249 151 444 379
498 581 19 73 10 89 -45 81 -27 -4 -146 -78 -247 -154 -234 -175 -370 -360
-361 -490 1 -19 -1 -38 -5 -42 -4 -4 -1 -17 7 -29 14 -21 12 -22 -87 -52 -155
-46 -961 -299 -1207 -378 -297 -96 -312 -98 -227 -19 70 66 130 142 235 300
133 201 184 292 177 315 -9 26 -38 24 -74 -6 l-30 -26 -3 28 c-4 41 -42 41
-120 2 -221 -111 -402 -353 -407 -543 -2 -57 2 -77 15 -90 25 -25 44 -4 40 47
-11 147 144 384 328 502 67 42 77 45 82 21 2 -14 -29 -51 -104 -125 -59 -58
-120 -122 -135 -141 -74 -91 -125 -225 -112 -293 3 -15 1 -36 -5 -47 -8 -15
-8 -20 2 -20 33 0 -21 -23 -169 -70 -90 -29 -170 -50 -178 -46 -8 3 -23 -3
-32 -12 -10 -10 -76 -38 -148 -61 -71 -24 -159 -55 -195 -68 l-65 -24 70 73
c39 40 72 75 75 78 3 3 26 32 52 65 60 79 92 137 116 210 23 71 27 188 7 205
-11 9 -10 23 6 78 27 94 25 120 -8 128 -23 6 -33 0 -77 -47 -89 -94 -135 -151
-205 -254 -128 -188 -185 -313 -196 -425 -5 -54 -2 -68 19 -105 l25 -43 -47
-17 c-26 -9 -56 -20 -67 -25 -79 -34 -277 -100 -298 -100 -14 0 -30 -6 -34
-13 -4 -7 -109 -50 -233 -96 -124 -45 -234 -86 -245 -91 -11 -5 -148 -57 -305
-116 -157 -58 -298 -112 -315 -119 -16 -7 -124 -49 -240 -94 -115 -44 -280
-108 -365 -142 -85 -33 -162 -64 -170 -67 -8 -3 41 38 110 91 187 145 222 172
364 287 128 102 452 369 511 421 17 15 100 86 185 160 85 73 175 152 200 175
25 22 74 67 110 100 91 81 143 129 219 200 36 34 93 85 126 115 79 72 752 744
840 839 39 42 114 123 167 181 95 103 99 106 165 124 37 10 115 35 173 56 375
135 555 224 720 354 88 70 96 81 79 101 -11 13 -26 15 -84 10 -193 -17 -445
-88 -593 -167 l-73 -39 78 93 c43 50 80 94 84 97 9 9 232 283 294 362 61 78
75 90 75 63 0 -20 22 -19 100 5 36 11 90 23 120 25 30 3 82 8 114 11 83 8 253
66 339 115 132 77 236 178 287 279 57 113 48 130 -72 125 -203 -9 -392 -76
-593 -210 -55 -37 -91 -56 -79 -43 20 22 287 377 403 535 45 62 56 71 72 63
13 -7 32 -5 67 9 27 11 78 25 113 31 149 27 322 98 456 187 160 106 308 289
287 356 -6 18 -12 19 -88 14 -187 -12 -379 -92 -570 -236 -32 -24 -55 -38 -50
-30 46 77 478 678 489 681 7 2 56 44 107 94 103 100 227 196 321 248 73 41
188 86 236 93 l34 5 -23 -32 c-14 -20 -25 -28 -30 -21 -16 26 -51 19 -112 -24
-35 -24 -121 -83 -193 -131 -157 -106 -270 -188 -310 -226 -16 -15 -33 -28
-37 -28 -17 0 -29 -40 -18 -60 14 -27 41 -25 141 9 307 104 558 296 683 522
25 46 25 47 6 64 -16 15 -30 17 -84 11 -144 -15 -341 -104 -501 -228 -38 -29
-40 -32 153 232 166 227 217 289 224 268 10 -29 174 14 296 78 137 72 285 201
362 317 32 47 38 63 30 78 -13 24 -33 24 -105 -1 -92 -32 -191 -83 -317 -164
-65 -41 -118 -73 -118 -70 0 3 46 71 103 152 57 81 123 176 147 212 24 36 46
67 50 70 4 3 17 24 30 48 18 31 28 41 40 36 97 -44 230 26 415 218 50 51 114
125 143 163 106 142 113 192 24 182 -71 -8 -174 -45 -258 -93 l-75 -43 21 37
c12 20 51 90 88 156 36 67 72 125 79 129 29 18 300 231 331 261 41 39 99 124
107 159 5 16 2 33 -5 42 -10 13 -17 13 -48 -1 -51 -21 -126 -70 -194 -127 -32
-26 -58 -44 -58 -40 0 4 17 49 39 98 21 50 54 130 72 180 29 76 43 99 96 152
138 140 216 286 217 408 1 81 -25 148 -59 153 -12 2 -37 -10 -56 -25z m45 -69
c12 -32 5 -110 -14 -152 -21 -47 -98 -158 -128 -186 -11 -9 -28 -16 -38 -14
-11 2 -26 -9 -38 -29 -25 -38 -36 -42 -29 -10 18 76 207 407 232 407 5 0 12
-7 15 -16z m-569 -710 c28 -74 9 -176 -61 -329 -25 -55 -29 -58 -35 -35 -7 26
-3 207 6 250 2 14 7 39 11 55 3 17 12 52 21 78 18 56 31 52 58 -19z m369 -162
c-39 -35 -111 -92 -118 -92 -7 0 53 54 98 88 34 26 48 29 20 4z m-740 -454
c13 -50 7 -75 -18 -80 -20 -4 -24 -1 -20 16 2 12 7 36 10 54 7 37 19 42 28 10z
m525 -189 c-93 -132 -251 -279 -358 -334 -36 -18 -125 -30 -116 -14 4 5 14 9
24 9 10 0 43 20 73 45 30 25 60 45 66 45 16 0 132 71 132 81 0 13 -34 11 -50
-3 -8 -7 18 20 58 61 73 76 80 89 61 108 -8 8 4 16 43 31 29 10 60 22 68 25
39 14 38 3 -1 -54z m-214 -64 c-81 -71 -155 -126 -155 -117 0 6 19 25 42 44
24 18 50 39 58 45 25 21 85 62 90 62 3 0 -13 -15 -35 -34z m-783 -303 c11 -60
11 -61 -18 -96 -16 -19 -32 -35 -35 -35 -10 -1 1 121 17 183 9 39 23 20 36
-52z m-535 -997 c-22 -131 -25 -138 -36 -110 -9 20 -11 61 -8 120 3 72 10 104
33 155 l29 65 3 -45 c1 -25 -8 -108 -21 -185z m11 -317 c-6 -18 -25 -20 -31
-3 -5 10 0 15 14 15 12 0 19 -5 17 -12z m412 -58 c-34 -29 -150 -109 -180
-125 -36 -19 15 22 107 86 106 74 128 85 73 39z m-205 -140 c-3 -5 -12 -10
-18 -10 -7 0 -6 4 3 10 19 12 23 12 15 0z m-759 -174 c-6 -71 -80 -316 -88
-294 -9 24 0 166 12 205 16 47 68 153 76 153 3 0 3 -29 0 -64z m409 -445 c-6
-5 -21 -11 -35 -15 -21 -5 -20 -3 5 9 35 17 42 18 30 6z m-1120 -77 c15 -23
15 -27 2 -42 -9 -10 -32 -44 -52 -77 -29 -46 -36 -53 -31 -30 15 67 49 175 56
175 4 0 15 -12 25 -26z m880 -124 c-3 -5 -12 -10 -18 -10 -7 0 -6 4 3 10 19
12 23 12 15 0z m-40 -20 c-3 -5 -12 -10 -18 -10 -7 0 -6 4 3 10 19 12 23 12
15 0z m-830 -93 c-2 -30 -8 -80 -14 -113 -10 -54 -14 -71 -25 -122 -15 -67
-60 -230 -67 -242 -9 -16 -10 -3 -11 100 0 87 17 186 47 269 18 51 66 161 71
161 2 0 1 -24 -1 -53z m655 -593 c0 -3 -5 -14 -10 -25 -8 -15 -15 -17 -29 -9
-10 5 -27 8 -37 6 -11 -3 -53 -12 -94 -21 -41 -9 -84 -18 -95 -20 -11 -3 -43
-11 -70 -19 -27 -9 -50 -14 -52 -12 -5 5 113 56 129 56 8 0 19 5 26 12 7 7 12
9 12 5 0 -3 12 -2 27 4 15 6 46 13 68 16 22 3 42 7 44 9 7 6 81 5 81 -2z
m-1296 -91 c18 -52 16 -60 -10 -45 -11 6 -27 7 -41 1 l-23 -9 16 38 c9 20 18
43 21 50 10 23 21 12 37 -35z m956 -109 c-123 -59 -351 -152 -341 -141 18 23
188 107 274 137 103 36 139 38 67 4z m-1005 -141 c-4 -72 -7 -90 -30 -194 -8
-36 -18 -99 -21 -139 -6 -61 -9 -70 -17 -49 -5 13 -11 69 -13 125 -3 79 1 117
16 173 19 67 55 151 65 151 2 0 2 -30 0 -67z m495 -82 c0 -5 -12 -16 -26 -26
l-25 -16 16 25 c17 26 35 34 35 17z m-2578 -271 c-26 -37 -72 -143 -88 -201
-25 -95 -22 -257 6 -309 15 -27 12 -38 -3 -15 -19 27 -37 82 -43 130 -3 22 -7
49 -8 60 -11 74 37 278 92 395 l26 55 14 -50 c10 -36 11 -53 4 -65z m13 -176
c-3 -31 -7 -60 -10 -64 -2 -4 -7 -20 -10 -36 -3 -16 -10 -45 -15 -64 -8 -29
-9 -23 -6 35 3 59 32 185 43 185 2 0 1 -25 -2 -56z m2195 -284 c-88 -46 -241
-112 -247 -106 -3 3 21 18 53 33 33 15 61 30 64 33 7 8 163 69 175 69 6 0 -15
-13 -45 -29z m-2657 -226 c22 -31 23 -40 15 -76 -5 -23 -10 -80 -11 -126 l-2
-85 -19 59 c-21 69 -35 264 -18 264 6 0 22 -16 35 -36z m103 -186 c10 -29 19
-55 19 -58 1 -3 5 -16 8 -30 17 -63 26 -224 14 -236 -9 -9 -35 49 -53 113 -17
64 -28 263 -14 263 5 0 16 -24 26 -52z m6234 -3 c-29 -35 -275 -183 -286 -172
-12 12 100 93 190 138 55 27 102 49 104 49 3 0 -1 -7 -8 -15z m-5821 -64 c-87
-121 -177 -266 -219 -351 -56 -114 -60 -88 -6 40 46 107 96 184 185 282 44 49
65 64 40 29z m4750 -260 c-68 -66 -126 -118 -128 -116 -8 8 57 84 118 137 103
90 125 108 130 103 2 -3 -52 -58 -120 -124z m-629 94 c-17 -46 -76 -129 -128
-182 -44 -45 -116 -105 -242 -201 -19 -15 -52 -42 -73 -61 -20 -19 -40 -31
-43 -28 -9 8 33 91 72 143 71 95 217 223 353 311 36 24 67 43 68 43 1 0 -2
-11 -7 -25z m-4182 -60 c-16 -30 -34 -58 -40 -61 -10 -6 33 75 55 104 19 25
14 11 -15 -43z m5951 -170 c2 -3 -19 -5 -48 -5 -32 0 -50 4 -46 10 6 9 84 5
94 -5z m-6216 -230 c-3 -9 -8 -14 -10 -11 -3 3 -2 9 2 15 9 16 15 13 8 -4z
m-433 -191 c6 -27 11 -105 10 -174 -2 -159 -1 -201 8 -214 8 -13 3 -58 -7 -69
-8 -8 -45 105 -58 178 -16 85 -8 284 13 339 9 24 19 7 34 -60z m2999 -6 c-43
-82 -175 -250 -211 -269 -19 -10 -18 -5 12 47 37 68 76 118 149 192 55 57 68
64 50 30z m1969 -19 c-32 -17 -270 -38 -255 -22 9 8 20 10 102 19 33 3 66 12
73 18 10 10 23 10 53 2 23 -6 34 -13 27 -17z m-4389 -115 c-79 -176 -288 -395
-471 -496 -27 -15 -48 -24 -48 -22 0 3 46 62 103 131 148 182 176 221 208 290
25 53 36 66 86 95 83 49 127 68 136 59 5 -5 -1 -31 -14 -57z m1540 18 c-5 -16
-24 -39 -41 -52 -17 -12 -27 -16 -23 -9 9 15 69 89 72 89 1 0 -3 -13 -8 -28z
m-1818 -140 c-12 -22 -131 -155 -131 -147 0 22 40 77 83 117 58 53 62 55 48
30z m1810 -90 c-18 -36 -113 -169 -130 -182 -4 -3 -41 -44 -83 -92 -42 -47
-79 -84 -82 -81 -3 4 -6 19 -6 35 0 24 4 28 29 28 24 0 42 14 96 73 66 72 185
238 185 259 0 6 3 9 6 6 3 -3 -4 -24 -15 -46z m1694 -7 c143 -12 179 -13 190
-4 13 9 157 -50 150 -62 -16 -25 -168 -39 -274 -25 -108 15 -344 82 -336 96 5
9 138 6 270 -5z m-790 -249 l50 -12 -35 -7 c-19 -4 -46 -9 -60 -12 -55 -12
-283 -18 -277 -8 4 6 26 14 49 17 24 4 54 13 68 21 30 17 135 18 205 1z
m-1155 -317 c18 -6 13 -7 -16 -3 -23 3 -55 6 -73 6 -17 1 -31 5 -31 9 0 9 79
1 120 -12z m77 -15 c-3 -3 -12 -4 -19 -1 -8 3 -5 6 6 6 11 1 17 -2 13 -5z"/>
<path d="M7528 4251 c-132 -77 -249 -180 -342 -302 -42 -56 -101 -164 -110
-201 -3 -14 -17 -39 -30 -55 -43 -52 -50 -72 -31 -93 9 -10 24 -17 33 -15 9 1
20 -3 24 -8 8 -13 38 10 38 29 0 16 6 22 149 135 143 114 195 162 262 247 64
80 113 175 124 239 6 40 5 44 -20 53 -14 5 -27 10 -28 10 -1 0 -32 -18 -69
-39z m-15 -122 c-10 -17 -43 -57 -73 -89 -55 -58 -191 -170 -205 -170 -9 0 54
80 114 144 40 42 167 146 178 146 2 0 -4 -14 -14 -31z"/>
</g>
</svg>
