<svg xmlns="http://www.w3.org/2000/svg" xmlns:xlink="http://www.w3.org/1999/xlink" width="260.426" height="176.446" viewBox="0 0 260.426 176.446">
  <defs>
    <clipPath id="clip-path">
      <rect id="Rectangle_5" data-name="Rectangle 5" width="260.426" height="176.446" fill="rgba(0,0,0,0)"/>
    </clipPath>
  </defs>
  <g id="Group_10" data-name="Group 10" transform="translate(0 0)">
    <g id="Group_1" data-name="Group 1" transform="translate(0 0)" clip-path="url(#clip-path)">
      <path id="Path_2" data-name="Path 2" d="M31.282,49.842a1.185,1.185,0,0,0-.543-.314,2.029,2.029,0,0,1-.466-.155,2.809,2.809,0,0,0-1.474.663,8.444,8.444,0,0,0-1.009,1.125q-1.552,1.862-3.259,3.569t-3.414,3.411l-1.4,1.086L18.168,60.4a5.114,5.114,0,0,1-.892-1.322c-.181-.411-.375-.85-.582-1.316l-1.63-4.113a7.067,7.067,0,0,0-1.474-2.328,2.41,2.41,0,0,0-1.63-.585,2.5,2.5,0,0,0-1.63.815,4.272,4.272,0,0,0-1.164,1.943L7.693,58.142,7.227,59.7H6.994l.155-4.659a5.363,5.363,0,0,0,.078-.889v-.815q.155-2.949.194-5.82t.194-5.742q.155-2.793.349-5.548t.5-5.471q.31-2.716.582-5.474t.427-5.467a2.043,2.043,0,0,0,.078-.97,4.073,4.073,0,0,0-.233-.892,2.114,2.114,0,0,0-1.436-1.474,2.21,2.21,0,0,0-2.056.466q-.233.31-.466.582a2.338,2.338,0,0,0-.388.66,7.678,7.678,0,0,0-.5,1.048c-.129.336-.246.685-.349,1.044q-.776,2.876-1.28,5.707T1.951,31.6q-.466,3.026-.815,5.978t-.5,5.975Q.554,46.738.36,49.842T.088,56.05Q-.067,62.1.049,68.039T.4,80.027l.31,4.035a2.809,2.809,0,0,0,.466,1.4,2.143,2.143,0,0,0,2.328,1.4A2.292,2.292,0,0,0,5.6,85.3a1.319,1.319,0,0,0,.155-.582,3.424,3.424,0,0,1,.078-.66q.233-1.4.427-2.794t.5-2.8q1.009-5.117,2.25-10.046t2.638-9.971l.388-.776.7,1.549c.31.517.582,1.025.815,1.516a13.317,13.317,0,0,0,.737,1.358,6.5,6.5,0,0,0,1.668,1.785,4.258,4.258,0,0,0,2.289.776,6.555,6.555,0,0,0,4.19-2.1c.983-.934,1.94-1.836,2.871-2.716s1.836-1.785,2.716-2.716q.776-.854,1.552-1.785c.517-.621,1.035-1.245,1.552-1.862a5.758,5.758,0,0,0,.427-.66q.194-.349.349-.66a1.725,1.725,0,0,0-.621-2.328" transform="translate(-0.001 36.595)" fill="#4a1125"/>
      <path id="Path_3" data-name="Path 3" d="M105.018,54.062a2.2,2.2,0,0,0-1.358.543,7.631,7.631,0,0,0-.97,1.086L94.232,67.328A6.59,6.59,0,0,1,93.3,68.5a10.85,10.85,0,0,0-1.009,1.164c-.776.673-1.374.8-1.785.385a2.912,2.912,0,0,1-.776-1.7,26.145,26.145,0,0,1-.349-2.642c-.078-.931-.116-1.82-.116-2.677V61.275q0-4.423.233-8.807t.621-8.885l.466-6.6q.233-2.794.466-5.584t.543-5.59l.388-3.566a3.148,3.148,0,0,0-.427-2.289A5.1,5.1,0,0,0,89.421,18.6a2.85,2.85,0,0,0-1.979.97,4.489,4.489,0,0,0-.892,1.975L85,29.848q-.776,4.117-1.707,8.225t-2.328,9a8.986,8.986,0,0,0-4.151.039,8.208,8.208,0,0,0-3.453,2.215,10.952,10.952,0,0,0-.97,1.086,9.171,9.171,0,0,0-.815,1.242,17.339,17.339,0,0,0-2.561,6.67,25.877,25.877,0,0,0-.078,7.217,16.586,16.586,0,0,0,1.086,3.883,10.663,10.663,0,0,0,.7,1.2,4.476,4.476,0,0,0,.854.967,3.805,3.805,0,0,0,2.1.854,3.211,3.211,0,0,0,2.1-.618,7.222,7.222,0,0,0,1.707-1.63q.466-.858.931-1.672t.931-1.665a28.11,28.11,0,0,0,1.824-4.232q.815-2.362,2.134-6.554c.052,1.19.116,2.583.194,4.19s.233,3.233.466,4.885a27.387,27.387,0,0,0,1.086,4.733,9.008,9.008,0,0,0,2.134,3.647,3.644,3.644,0,0,0,3.919,1.048,8.878,8.878,0,0,0,4.229-2.907c.776-.883,1.526-1.759,2.25-2.642s1.445-1.782,2.173-2.713q1.552-1.945,3.065-4t2.987-4c.259-.411.5-.8.737-1.161a2.96,2.96,0,0,0,.427-1.322,2.088,2.088,0,0,0-1.94-1.782m-25.956,1.7A29.233,29.233,0,0,1,77.9,59.688c-.491,1.316-1.035,2.587-1.63,3.8A17.057,17.057,0,0,1,74.6,66.322a11.683,11.683,0,0,1-.116-2.137,17.865,17.865,0,0,1,.194-2.053A20.25,20.25,0,0,1,76,56.969a10.414,10.414,0,0,1,3.414-4.381,12.051,12.051,0,0,1-.349,3.178" transform="translate(153.468 41.538)" fill="#4a1125"/>
      <path id="Path_4" data-name="Path 4" d="M28.761,175.632c.6-.8,1.193-1.6,1.8-2.393q1.605-2.081,3.22-4.158c-.223.469-.436.947-.666,1.413-.841,1.733-1.727,3.43-2.616,5.121.032.01.068.01.1.016l1.678-.8c.081-.036.155-.052.236-.084.294-.576.6-1.154.889-1.73,1.487-2.945,2.9-5.939,4.268-8.946q9.928-12.682,20.243-25.051c.55-.65,1.109-1.29,1.662-1.937a28.421,28.421,0,0,0,3.03-.931c3.253-.6,6.89-1.474,8.445-4.093.194-.333-.181-.689-.495-.66a39,39,0,0,0-7.469,1.588q2.444-2.794,4.931-5.545a11.069,11.069,0,0,0,4.216-1.319,15.89,15.89,0,0,0,4.982-3.751.523.523,0,0,0-.336-.841,9.064,9.064,0,0,0-4.129.983.37.37,0,0,0-.291.065l-.032.029q2.221-2.406,4.468-4.795a.575.575,0,0,0,.44.175c3.437-.226,9.286-.983,10.825-4.64a.553.553,0,0,0-.424-.763,15.41,15.41,0,0,0-6.819.976c1.617-1.688,3.224-3.379,4.847-5.063a.535.535,0,0,0,.55.1c3.143-1.132,6.819-2.444,8.908-5.215a.5.5,0,0,0-.323-.8,8.116,8.116,0,0,0-4.992,1.542c1.018-1.115,2.024-2.244,3.03-3.372.049-.039.091-.084.136-.123a.592.592,0,0,0,.75.281c.627-.294,1.287-.6,1.943-.918A11.8,11.8,0,0,0,101.5,96.26a.613.613,0,0,0-.026-.789.507.507,0,0,0-.682-.537,17.368,17.368,0,0,0-4.795,2.4c1.982-2.192,4.006-4.342,6.185-6.363a.529.529,0,0,0,.491.21c3.275-.252,6.945-1.235,9.483-3.421a.459.459,0,0,0-.207-.812,7.572,7.572,0,0,0-3.479.656c-.181.068-.44.188-.727.323a5.461,5.461,0,0,0-3.02.857l-.006,0c-.036-.013-.061,0-.091,0,3.22-2.8,6.444-5.548,9.4-8.6.032-.006.065,0,.094-.023.136-.081.265-.178.391-.265a19.544,19.544,0,0,0,3.611-2.826l.045-.039c.036-.032.068-.065.1-.094a.419.419,0,0,0,.094-.511,6.428,6.428,0,0,0,.563-1.115.484.484,0,0,0-.727-.576c-.449.265-3.637,2.577-4.284,3.941-1.2.621-2.464,1.164-3.566,1.82-.621.372-.029,1.219.579,1.038a14.762,14.762,0,0,0,1.788-.685c-2.522,2.406-5.241,4.6-7.957,6.8a15.193,15.193,0,0,0,2.79-6.845c.036-.372-.424-.731-.744-.443-1.377,1.245-4.63,5.125-3.579,7.369a6.042,6.042,0,0,0-.773,1.533.3.3,0,0,0,.029.239c-.339.285-.685.566-1.028.85a60.527,60.527,0,0,0-5.034,4.811c.149-.569.259-1.119.378-1.478a15.962,15.962,0,0,0,.944-6.036.454.454,0,0,0-.86-.126c-.511,1.183-3.641,7.126-2.344,8.885a1.718,1.718,0,0,0-.107.268.663.663,0,0,0,.074.556c-2.153,2.376-4.232,4.814-6.444,7.132q-.868.907-1.73,1.811a.294.294,0,0,0-.1-.155v-.006c2.147-3.185,3.608-8.342,2.315-11.914a.465.465,0,0,0-.789-.116c-1.539,2.1-4.911,9.467-2.538,12.1-.013.065-.029.12-.039.181a.387.387,0,0,0,.666.31.3.3,0,0,0,.091.016c-5.086,5.322-10.162,10.615-15.157,15.985a.323.323,0,0,0-.12-.233c-.036-.029-.055-.074-.091-.1a18.239,18.239,0,0,0,.909-5.587,29.818,29.818,0,0,0,.175-5.144c-.055-.356-.637-.511-.757-.11-.087.294-.2.627-.317.98a4.657,4.657,0,0,0-.314-.537.4.4,0,0,0-.572-.084c-2.347,2.234-3.647,8.532-1.293,11.135.268.294.753-.045.5-.372-1.707-2.237-.889-7.527.954-9.755a5.364,5.364,0,0,1,.343.734c-.993,2.945-2.163,6.916-.323,9,0,.142,0,.281.006.42a.224.224,0,0,0,.427.061c.01-.023.016-.052.029-.078a.638.638,0,0,0,.1.039c-1.119,1.2-2.228,2.406-3.337,3.615-.129.042-.265.068-.394.113a.312.312,0,0,0-.142.469q-1.959,2.148-3.893,4.333c.944-3.052,1.888-7-.094-9.719a.536.536,0,0,0-.485-.217,18.885,18.885,0,0,0-.569-2.276.493.493,0,0,0-.905-.006c-.757,1.988-2.367,12.681,1.212,13.162q-1.751,1.993-3.476,4.009c-.065.081-.126.152-.191.226-.142.065-.291.12-.433.184a.314.314,0,0,0-.116.469c-5.768,6.774-11.539,13.634-17.21,20.612A301.958,301.958,0,0,0,53.514,120.38c1.29-4.64,2.409-9.305,3.4-13.99a26.748,26.748,0,0,0,3.757-4.116,23.908,23.908,0,0,0,5.008-8.238.447.447,0,0,0-.673-.527c-1.7,1.044-6.13,4.64-7.032,7.6q1.222-6.4,2.16-12.852a.59.59,0,0,0,.407.23c-.149.246-.3.485-.433.744-.184.362.32.582.569.343.5-.5,1.022-1.031,1.529-1.568,3.812-1.717,7.029-6.919,6.075-10.847a.464.464,0,0,0-.618-.369c-3.262,1.439-5.9,4.986-7.1,8.526q.786-5.689,1.41-11.4a.391.391,0,0,0,.643.078c.291-.346.576-.7.857-1.057,3.039-2.063,5.823-6.473,5.9-10.139a.41.41,0,0,0,0-.126,7.348,7.348,0,0,0-.068-1.077.485.485,0,0,0-.656-.388c-2.955,1.533-5.07,4.792-6.195,8.144q.4-3.987.75-7.986c.116-1.342.249-2.7.388-4.058a.311.311,0,0,0,.336-.268c.689-3.285,2.208-7.459,5.015-9.648-.023.424-.068.844-.133,1.274a.548.548,0,0,0-.947.084c-1.135,2.583-2.5,5.057-3.605,7.653a.206.206,0,0,0,0,.175c-.158.385-.327.766-.479,1.154-.175.462.407,1.057.831.656C67.85,55.356,70.194,50.814,70,46.31c-.019-.42-.511-.524-.812-.346-2.292,1.355-4.151,4.245-5.138,7.155.33-3.007.682-6.043,1.018-9.092a.25.25,0,0,0,.181-.23c.006-.087.019-.175.032-.265a.446.446,0,0,0,.634.049,12.966,12.966,0,0,0,4.546-9.622c0-.327-.365-.673-.673-.4a15.943,15.943,0,0,0-3.35,4.766c-.317.6-.663,1.258-.967,1.943.262-2.577.5-5.151.676-7.727a.316.316,0,0,0,.055-.33c-.013-.032-.016-.065-.029-.1.026-.378.058-.753.081-1.128,2.79,1.151,4.6-8.659,4.19-10.3a.454.454,0,0,0-.7-.3,9.767,9.767,0,0,0-3.233,4.035c.019-1.73,0-3.453-.065-5.167.669-1.151,1.08-2.593,1.626-3.805a7.626,7.626,0,0,0,.808-4.4.424.424,0,0,0-.747-.21A14.615,14.615,0,0,0,66.182,15.1c-.175-2.014-.417-4.009-.76-5.985,1-2.787,1.5-7.5-1.2-9.072a.412.412,0,0,0-.5.126c-.837,1.361-.753,3.188-.685,4.733.052,1.077.045,3.188,1.235,3.686a.144.144,0,0,0,.1,0q.015,3.264,0,6.544a4.6,4.6,0,0,0-3.094-3.162.386.386,0,0,0-.527.394c.023,2.347,1.235,6.156,3.414,7.592.042.262.1.514.158.763Q64.3,22.8,64.258,24.9a7.273,7.273,0,0,0-2.916-3.385c-.343-.2-.711.181-.682.514a18.417,18.417,0,0,0,1.668,5.642,6.956,6.956,0,0,0,1.8,2.761q-.1,3.705-.255,7.414c-.039-.116-.084-.23-.123-.343-.876-2.687-2.124-5.451-4.656-6.706a.546.546,0,0,0-.744.563c.181,3.7,2.609,7.129,5.4,9.506q-.291,6.266-.734,12.535c-.016-.016-.019-.029-.039-.039a5.674,5.674,0,0,1-.863-.611c.071.032.139.071.21.1a.537.537,0,0,0,.734-.553c-.243-3.188-1.426-7.6-4.368-9.338-.291-.171-.6.107-.663.375A10.827,10.827,0,0,0,59,49.682c.656,1.594,1.927,3.922,3.831,4.19a.267.267,0,0,0,.149-.032c-.314,4.342-.7,8.678-1.145,13.007-.359-3.776-1.125-8.429-4.856-10.249a.566.566,0,0,0-.779.585,22.1,22.1,0,0,0,1.5,5.736,8.107,8.107,0,0,0,1.849,3.9,6.1,6.1,0,0,0,2.076,2.147Q60.85,76.22,59.79,83.424c-.411-4.585-1.364-11.934-6.6-13.25-.323-.081-.585.262-.563.553a22.352,22.352,0,0,0,3.2,9.263,12.22,12.22,0,0,0,3.123,4.268c.013.01.026.006.042.013.081.094.165.2.246.288a.316.316,0,0,0,.369.071q-.834,5.563-1.849,11.074c-.824-3.97-2.04-9.182-5.729-10.786a.572.572,0,0,0-.786.443c-.1,4.258,1.426,10.883,5.477,13.1.281.155.537-.158.479-.424.042.016.078.039.116.052q-.824,4.3-1.772,8.565c-.149.165-.291.333-.443.5-.175.194.029.443.242.43q-1.174,5.233-2.541,10.4A288.563,288.563,0,0,1,38.69,158.3a66.281,66.281,0,0,0,1.937-14.905c3.447-2.865,4.636-9.544,3.269-13.431a.372.372,0,0,0-.559-.158,10.9,10.9,0,0,0-3.068,4.682c-.194-2.027-.443-4.048-.779-6.053a.292.292,0,0,0,.22-.032c0,.194-.016.388-.016.579,0,.22.343.207.378,0l.049-.3a.489.489,0,0,0,.55-.4c.459-3.831,1.138-8.038-.653-11.636-.123-.249-.527-.394-.708-.107a10.586,10.586,0,0,0-1.394,4.552q-.723-2.8-1.626-5.509a.29.29,0,0,0-.11-.323q-.155-.466-.32-.931c0-.016.013-.029.01-.045-.032-.3-.087-.595-.136-.9.091.239.181.482.288.718s.488.152.436-.11c-.585-2.79-1.1-5.959-3.039-8.167-.191-.213-.647-.255-.747.084-.032.12-.045.246-.074.365a10.741,10.741,0,0,0-1.322-1.361.384.384,0,0,0-.618.242c-.139,3.44,1.051,9.069,4.743,10.417.676,2.538,1.3,5.076,1.859,7.624a11.324,11.324,0,0,0-4.575-5.011.4.4,0,0,0-.417.065,8.6,8.6,0,0,0-1.814-.7c-.262-.061-.4.236-.343.443a11.32,11.32,0,0,0,5.257,6.418,6.79,6.79,0,0,0,1.972,1.284.472.472,0,0,0,.424-.052,87.953,87.953,0,0,1,1.516,11.248c-1.167-2.929-3-5.762-5.807-6.79-.242-.087-.608.042-.614.346-.065,3.6,2.444,8.232,5.791,9.916.162.136.32.259.482.382a10.036,10.036,0,0,0,.252,2.085l-.01.339c-.061.048-.113.1-.171.149a.481.481,0,0,0,.136.805,90.32,90.32,0,0,1-3.5,19.483q-5.063,6.353-9.952,12.846a17.541,17.541,0,0,1,2.881-.815m46.7-52.954a16.477,16.477,0,0,1-3.612,2.483,8.68,8.68,0,0,1-1.261.514,7.491,7.491,0,0,0,2.082-1.982,9.463,9.463,0,0,1,2.79-1.015m8.93-8.914a11.71,11.71,0,0,1,2.351-.133c-1.536,2.124-5.222,2.826-8,3.107,1.594-1.277,3.747-1.691,5.539-2.7a.233.233,0,0,0,.113-.278m7.915-9.848a6.368,6.368,0,0,1,1.4-.327,13.67,13.67,0,0,1-4.054,2.577c.854-.614,1.71-1.219,2.561-1.846a.3.3,0,0,0,.094-.4M110.387,87.9a13.129,13.129,0,0,1-1.759.879.411.411,0,0,0,.081-.4,10,10,0,0,1,1.678-.479m-4.116-5.652a14.844,14.844,0,0,1-1.694,3.5c-.226.372-.485.731-.744,1.093-.032-1.364,1.326-3.3,2.438-4.6m-9.606,7.918a19.473,19.473,0,0,1-.64,2.522c-.107.346-.559,2.111-.938,3.072-.265-1.048.731-3.634,1.578-5.593m-8.749,5.248c.634,3.521-1.484,6.363-2.441,9.606-.934-2.409,1.067-7.262,2.441-9.606M70.528,114.818a9.6,9.6,0,0,1,.042,1.727c-.032.32-.074.77-.136,1.271-.055.388-.113.773-.178,1.157a3.689,3.689,0,0,1-.53,1.458,13.546,13.546,0,0,1,.8-5.613m-9.46,6.732c.071.372.126.747.171,1.122a14.207,14.207,0,0,0-.521,1.487c.094-.947.217-1.849.349-2.609m-.078,8.972a.542.542,0,0,0,.653-.317,17.437,17.437,0,0,0,.731-6.34c.724,2.409-.417,5.238-.734,7.679a2.081,2.081,0,0,1-.65-1.022m.938,3.822a23.079,23.079,0,0,1,4.08-1.167q-2.2.65-4.349,1.484c.094-.107.181-.21.268-.317m4.856-55.5A32.018,32.018,0,0,0,63,82.373c.065-.107.123-.2.158-.252A11.648,11.648,0,0,1,67.449,77.9a6.535,6.535,0,0,1-.016.905.511.511,0,0,0-.65.036m1.164-16.066a32.322,32.322,0,0,0-3.227,3.712,12.017,12.017,0,0,1,3.227-3.712m-1.759-7.86c.533-1.154,1.09-2.3,1.636-3.447q.383-.786.74-1.584a15.9,15.9,0,0,1-2.376,5.031M63.844,4.8a15.5,15.5,0,0,1,.081-2.48c.078-.676.006-1.691.65-.876,1.128,1.426.718,3.45.339,5.37a.34.34,0,0,0-.546.294c.01.372,0,.744.006,1.119-.537-.682-.485-2.674-.53-3.427m4.168,7.86a13.088,13.088,0,0,1-1.248,3.291,15.21,15.21,0,0,1,1.248-3.291m-5.561,3.563a11.05,11.05,0,0,1-.892-3.327c2.325,1.077,2.247,3.78,2.5,6.2a10.783,10.783,0,0,1-1.607-2.874M61.8,23.06a6.314,6.314,0,0,1,1.219,1.61.33.33,0,0,0-.6.136,4.661,4.661,0,0,0,0,.475A16.066,16.066,0,0,1,61.8,23.06m4.514,6.984c.006-.11.01-.217.013-.327a.439.439,0,0,0,.469-.281c.22-.559.433-1.128.64-1.7a.21.21,0,0,0,.265-.1c.223-.566.585-1.057.854-1.6.091-.184-.2-.3-.291-.126-.145.281-.31.553-.479.818l0-.006a23.472,23.472,0,0,0,.792-2.955l-.023,0a.286.286,0,0,0-.543-.155c-.488,1.167-.909,2.363-1.351,3.547a.267.267,0,0,0-.23.155l-.016.042c0-.081.006-.162.01-.242a12.155,12.155,0,0,1,3.207-5.532c.026,2.5-1.254,8.151-3.314,8.471m-6.751,2.328a6.9,6.9,0,0,1,1.468,1.7,3.781,3.781,0,0,0-.281,1.461,9.651,9.651,0,0,1-1.187-3.162m-.013,13.56A34.567,34.567,0,0,1,61.565,51.1a6.318,6.318,0,0,1-2.014-5.173m-.595,17.243c-.039-.1-.074-.2-.113-.3a11.957,11.957,0,0,1-.272-2.987c1.106,1.578,1.2,3.77,1.665,5.713a18.973,18.973,0,0,1-1.28-2.428M66.234,66.4c-.824,1.322-1.694,2.619-2.515,3.941A19.993,19.993,0,0,1,66.234,66.4m-12.5,5a5.3,5.3,0,0,1,.925.5l0,.013a13.192,13.192,0,0,0-.1,2.952,17.887,17.887,0,0,1-.824-3.469M57.8,81.329c-.116-.181-.233-.362-.343-.54a13.669,13.669,0,0,1-1.869-7.032,39.187,39.187,0,0,1,2.47,7.921c-.087-.12-.181-.233-.259-.349m3.692,5.694a14.449,14.449,0,0,1,3.961-5.435c-1.128,1.94-2.651,3.605-3.961,5.435m-7.892.757a.6.6,0,0,0-.918.23c-.048.171-.081.356-.12.537a20.379,20.379,0,0,1-.188-2.131,6.487,6.487,0,0,1,1.717,1.875,5.635,5.635,0,0,0-.491-.511m.013,1.746c1.426,1.937,1.384,4.721,2.764,6.638a8.855,8.855,0,0,1-2.764-6.638m4.96,13.217a25.306,25.306,0,0,1,3.2-4.278,40.385,40.385,0,0,1-2.7,3.977c-.149.142-.3.281-.453.424a.8.8,0,0,1-.045-.123m-24.5,7.679a.2.2,0,0,0-.036.175c.2.7.391,1.4.582,2.1a8.821,8.821,0,0,1-1.316-3.983,14.2,14.2,0,0,1,.77,1.707M31.409,106.1a10.627,10.627,0,0,1,1.022,1.193,8.975,8.975,0,0,0,2.729,7.381l.036.139c-2.684-1.465-3.725-5.726-3.786-8.714M40,124.386a28.968,28.968,0,0,1,.026-4.1,20.72,20.72,0,0,1-.026,4.1m-9.069-5.991a8.2,8.2,0,0,1,1.3.614,12.131,12.131,0,0,0,1.568,3.524,10.019,10.019,0,0,1-2.871-4.139m2.373,1.342a11.477,11.477,0,0,1,2.134,2.166c.026.036.045.068.071.1a9.9,9.9,0,0,1,1.306,2.464,9.633,9.633,0,0,1-3.511-4.73m6.133-1.642a27.8,27.8,0,0,0,0,9.024,13.329,13.329,0,0,1,0-9.024m1.743,16.37a20.78,20.78,0,0,1-.653,3.657c-.023-.537-.045-1.077-.078-1.617a18.8,18.8,0,0,1,.731-2.04m-6.143-1.743c1.843,1.277,2.273,3.76,3.56,5.545a.227.227,0,0,0,.242.074c.12.365.226.721.33,1.073l-.013.1a12.568,12.568,0,0,1-4.119-6.8m6.344,5.357a11.767,11.767,0,0,0,.255-4.552c0-.019-.023-.026-.029-.042a14.93,14.93,0,0,1,1.3-2.244c.844-1.174.656,1.859.653,2.089a16.756,16.756,0,0,1-.514,3.346,12.971,12.971,0,0,1-2.286,5.05c.3-1.206.427-2.538.621-3.647" transform="translate(57.796 0)" fill="#4a1125"/>
      <path id="Path_5" data-name="Path 5" d="M41.816,43.212a.512.512,0,0,0,.931.339.307.307,0,0,0,.495-.33c-.052-.165-.081-.356-.126-.533,1.374-3.311,3.256-7.369,2.115-10.828a.532.532,0,0,0-.9-.136c-1.678,2.224-3.172,7-2.328,10.207a7.063,7.063,0,0,0-.184,1.28m2.619-9.748c.133,2.124-.808,4.025-1.61,5.965a14.007,14.007,0,0,1,1.61-5.965" transform="translate(93.252 70.419)" fill="#4a1125"/>
    </g>
  </g>
</svg>
